<?xml version="1.0" encoding="UTF-8"?>
<svg width="182px" height="42px" viewBox="0 0 182 42" version="1.1" xmlns="http://www.w3.org/2000/svg" xmlns:xlink="http://www.w3.org/1999/xlink">
    <!-- Generator: Sketch 44.1 (41455) - http://www.bohemiancoding.com/sketch -->
    <title>logo-default</title>
    <desc>Created with Sketch.</desc>
    <defs></defs>
    <g id="Page-1" stroke="none" stroke-width="1" fill="none" fill-rule="evenodd">
        <g id="logo-default" transform="translate(2.000000, 2.000000)" fill-rule="nonzero">
            <path d="M55.4536585,17.1317073 C54.9073143,16.5593467 54.3349623,16.1040667 53.7365854,15.7658537 C53.1382084,15.4276406 52.5268324,15.2585366 51.902439,15.2585366 C51.0438981,15.2585366 50.2764261,15.4146326 49.6,15.7268293 C48.9235739,16.039026 48.3447179,16.455282 47.8634146,16.9756098 C47.3821114,17.4959376 47.0178874,18.0943056 46.7707317,18.7707317 C46.523576,19.4471579 46.4,20.1495899 46.4,20.8780488 C46.4,21.6065077 46.523576,22.3089397 46.7707317,22.9853659 C47.0178874,23.661792 47.3821114,24.26016 47.8634146,24.7804878 C48.3447179,25.3008156 48.9235739,25.7170716 49.6,26.0292683 C50.2764261,26.341465 51.0438981,26.497561 51.902439,26.497561 C52.630898,26.497561 53.307314,26.347969 53.9317073,26.0487805 C54.5561007,25.749592 55.0894287,25.313824 55.5317073,24.7414634 L58.6536585,28.097561 C58.1853635,28.565856 57.6455315,28.969104 57.0341463,29.3073171 C56.4227612,29.6455301 55.8048812,29.9186981 55.1804878,30.1268293 C54.5560944,30.3349604 53.9577264,30.4845524 53.3853659,30.5756098 C52.8130053,30.6666671 52.3187013,30.7121951 51.902439,30.7121951 C50.497554,30.7121951 49.170738,30.4780511 47.9219512,30.0097561 C46.6731645,29.5414611 45.5935005,28.8780531 44.6829268,28.0195122 C43.7723532,27.1609713 43.0504092,26.1268353 42.5170732,24.9170732 C41.9837372,23.707311 41.7170732,22.360983 41.7170732,20.8780488 C41.7170732,19.3951145 41.9837372,18.0487865 42.5170732,16.8390244 C43.0504092,15.6292622 43.7723532,14.5951262 44.6829268,13.7365854 C45.5935005,12.8780445 46.6731645,12.2146365 47.9219512,11.7463415 C49.170738,11.2780464 50.497554,11.0439024 51.902439,11.0439024 C53.099193,11.0439024 54.302433,11.2715424 55.5121951,11.7268293 C56.7219573,12.1821161 57.7821093,12.9040601 58.6926829,13.8926829 L55.4536585,17.1317073 Z M58.9268293,11.5121951 L64.0780488,11.5121951 L69.3073171,24.5073171 L69.3853659,24.5073171 L74.0682927,11.5121951 L78.9463415,11.5121951 L70.0878049,34.2634146 C69.7495918,35.1479719 69.3788638,35.9219479 68.9756098,36.5853659 C68.5723557,37.2487838 68.0975637,37.8081278 67.5512195,38.2634146 C67.0048753,38.7187015 66.3609793,39.0569095 65.6195122,39.2780488 C64.8780451,39.4991881 63.9869971,39.6097561 62.9463415,39.6097561 C61.7235711,39.6097561 60.5268351,39.4536601 59.3560976,39.1414634 L59.9414634,34.9268293 C60.3056929,35.0569112 60.6894289,35.1674792 61.0926829,35.2585366 C61.495937,35.349594 61.905689,35.395122 62.3219512,35.395122 C62.8943118,35.395122 63.3756078,35.34309 63.7658537,35.2390244 C64.1560995,35.1349588 64.4878035,34.9723588 64.7609756,34.7512195 C65.0341477,34.5300802 65.2617877,34.2439042 65.4439024,33.8926829 C65.6260172,33.5414617 65.8211372,33.1187017 66.0292683,32.6243902 L66.9268293,30.4 L58.9268293,11.5121951 Z M81.795122,0.741463415 L86.4780488,0.741463415 L86.4780488,30.2439024 L81.795122,30.2439024 L81.795122,0.741463415 Z M91.9804878,11.5121951 L96.6634146,11.5121951 L96.6634146,30.2439024 L91.9804878,30.2439024 L91.9804878,11.5121951 Z M91.3170732,5.15121951 C91.3170732,4.3967442 91.5967452,3.7398402 92.1560976,3.1804878 C92.71545,2.62113541 93.424386,2.34146341 94.2829268,2.34146341 C95.1414677,2.34146341 95.8634117,2.60812741 96.4487805,3.14146341 C97.0341493,3.67479941 97.3268293,4.34471141 97.3268293,5.15121951 C97.3268293,5.95772761 97.0341493,6.62763961 96.4487805,7.16097561 C95.8634117,7.69431161 95.1414677,7.96097561 94.2829268,7.96097561 C93.424386,7.96097561 92.71545,7.68130361 92.1560976,7.12195122 C91.5967452,6.56259883 91.3170732,5.90569483 91.3170732,5.15121951 Z M101.073171,11.5121951 L105.521951,11.5121951 L105.521951,14.5170732 L105.6,14.5170732 C106.042279,13.5804831 106.718695,12.7674831 107.629268,12.0780488 C108.539842,11.3886144 109.775602,11.0439024 111.336585,11.0439024 C112.585372,11.0439024 113.645524,11.2520304 114.517073,11.6682927 C115.388622,12.0845549 116.097558,12.6308909 116.643902,13.3073171 C117.190247,13.9837432 117.580487,14.7642232 117.814634,15.6487805 C118.048781,16.5333378 118.165854,17.4569058 118.165854,18.4195122 L118.165854,30.2439024 L113.482927,30.2439024 L113.482927,20.7609756 C113.482927,20.2406478 113.456911,19.6617918 113.404878,19.0243902 C113.352845,18.3869887 113.216261,17.7886207 112.995122,17.2292683 C112.773982,16.6699159 112.42927,16.2016279 111.960976,15.8243902 C111.492681,15.4471526 110.855289,15.2585366 110.04878,15.2585366 C109.268289,15.2585366 108.611384,15.3886166 108.078049,15.6487805 C107.544713,15.9089444 107.102441,16.2601604 106.75122,16.702439 C106.399998,17.1447177 106.146342,17.6520297 105.990244,18.2243902 C105.834145,18.7967508 105.756098,19.3951188 105.756098,20.0195122 L105.756098,30.2439024 L101.073171,30.2439024 L101.073171,11.5121951 Z M137.326829,27.4341463 L137.24878,27.4341463 C136.572354,28.5788675 135.661794,29.4113795 134.517073,29.9317073 C133.372352,30.4520351 132.136592,30.7121951 130.809756,30.7121951 C129.352838,30.7121951 128.058542,30.4585391 126.926829,29.9512195 C125.795116,29.4438999 124.82602,28.7479719 124.019512,27.8634146 C123.213004,26.9788574 122.601628,25.9382174 122.185366,24.7414634 C121.769103,23.5447095 121.560976,22.2569175 121.560976,20.8780488 C121.560976,19.4991801 121.782111,18.2113881 122.22439,17.0146341 C122.666669,15.8178802 123.284549,14.7772402 124.078049,13.8926829 C124.871548,13.0081257 125.827637,12.3121977 126.946341,11.804878 C128.065046,11.2975584 129.287798,11.0439024 130.614634,11.0439024 C131.499191,11.0439024 132.279671,11.1349584 132.956098,11.3170732 C133.632524,11.4991879 134.230892,11.7333319 134.75122,12.0195122 C135.271547,12.3056925 135.71382,12.6113805 136.078049,12.9365854 C136.442278,13.2617902 136.741462,13.5804862 136.97561,13.8926829 L137.092683,13.8926829 L137.092683,0.741463415 L141.77561,0.741463415 L141.77561,30.2439024 L137.326829,30.2439024 L137.326829,27.4341463 Z M126.243902,20.8780488 C126.243902,21.6065077 126.367478,22.3089397 126.614634,22.9853659 C126.86179,23.661792 127.226014,24.26016 127.707317,24.7804878 C128.18862,25.3008156 128.767476,25.7170716 129.443902,26.0292683 C130.120329,26.341465 130.887801,26.497561 131.746341,26.497561 C132.604882,26.497561 133.372354,26.341465 134.04878,26.0292683 C134.725207,25.7170716 135.304062,25.3008156 135.785366,24.7804878 C136.266669,24.26016 136.630893,23.661792 136.878049,22.9853659 C137.125205,22.3089397 137.24878,21.6065077 137.24878,20.8780488 C137.24878,20.1495899 137.125205,19.4471579 136.878049,18.7707317 C136.630893,18.0943056 136.266669,17.4959376 135.785366,16.9756098 C135.304062,16.455282 134.725207,16.039026 134.04878,15.7268293 C133.372354,15.4146326 132.604882,15.2585366 131.746341,15.2585366 C130.887801,15.2585366 130.120329,15.4146326 129.443902,15.7268293 C128.767476,16.039026 128.18862,16.455282 127.707317,16.9756098 C127.226014,17.4959376 126.86179,18.0943056 126.614634,18.7707317 C126.367478,19.4471579 126.243902,20.1495899 126.243902,20.8780488 Z M149.853659,22.5170732 C150.009757,23.9219582 150.556093,25.0146302 151.492683,25.795122 C152.429273,26.5756137 153.560969,26.9658537 154.887805,26.9658537 C156.058542,26.9658537 157.040647,26.7252057 157.834146,26.2439024 C158.627646,25.7625992 159.323575,25.1577272 159.921951,24.4292683 L163.278049,26.9658537 C162.18536,28.318706 160.962609,29.281298 159.609756,29.8536585 C158.256903,30.4260191 156.839032,30.7121951 155.356098,30.7121951 C153.951213,30.7121951 152.624396,30.4780511 151.37561,30.0097561 C150.126823,29.5414611 149.047159,28.8780531 148.136585,28.0195122 C147.226012,27.1609713 146.504067,26.1268353 145.970732,24.9170732 C145.437396,23.707311 145.170732,22.360983 145.170732,20.8780488 C145.170732,19.3951145 145.437396,18.0487865 145.970732,16.8390244 C146.504067,15.6292622 147.226012,14.5951262 148.136585,13.7365854 C149.047159,12.8780445 150.126823,12.2146365 151.37561,11.7463415 C152.624396,11.2780464 153.951213,11.0439024 155.356098,11.0439024 C156.656917,11.0439024 157.847149,11.2715424 158.926829,11.7268293 C160.006509,12.1821161 160.930077,12.8390201 161.697561,13.697561 C162.465045,14.5561019 163.063413,15.6162539 163.492683,16.8780488 C163.921953,18.1398437 164.136585,19.5902357 164.136585,21.2292683 L164.136585,22.5170732 L149.853659,22.5170732 Z M159.453659,19.004878 C159.427642,17.6260094 158.998379,16.5398414 158.165854,15.7463415 C157.333329,14.9528416 156.175618,14.5560976 154.692683,14.5560976 C153.287798,14.5560976 152.175614,14.9593456 151.356098,15.7658537 C150.536581,16.5723618 150.035774,17.6520258 149.853659,19.004878 L159.453659,19.004878 Z M167.531707,11.5121951 L172.214634,11.5121951 L172.214634,14.4780488 L172.292683,14.4780488 C172.813011,13.3853604 173.554466,12.5398404 174.517073,11.9414634 C175.47968,11.3430864 176.58536,11.0439024 177.834146,11.0439024 C178.120327,11.0439024 178.399999,11.0699184 178.673171,11.1219512 C178.946342,11.173984 179.226015,11.239024 179.512195,11.3170732 L179.512195,15.8439024 C179.121949,15.7398369 178.738214,15.6552849 178.360976,15.5902439 C177.983738,15.5252029 177.61301,15.4926829 177.24878,15.4926829 C176.156092,15.4926829 175.278052,15.6943069 174.614634,16.097561 C173.951217,16.500815 173.443904,16.962599 173.092683,17.4829268 C172.741461,18.0032546 172.507318,18.5235746 172.390244,19.0439024 C172.27317,19.5642302 172.214634,19.9544702 172.214634,20.2146341 L172.214634,30.2439024 L167.531707,30.2439024 L167.531707,11.5121951 Z" id="cylinder" fill="#002141"></path>
            <g id="form" stroke-linecap="round" stroke-linejoin="round" stroke="#002241" stroke-width="4">
                <path d="M28.6829268,7.80004963 L28.6829268,29.2747559 L28.6829268,7.80004963 Z M0.526829268,7.80004963 L0.526829268,29.2747559 L0.526829268,7.80004963 Z M14.6053065,15.146601 C6.83026948,15.146601 0.527356624,11.8140033 0.527356624,7.7030358 C0.527356624,3.5920683 6.83026948,0.25947068 14.6053065,0.25947068 C22.3803436,0.25947068 28.6832564,3.5920683 28.6832564,7.7030358 C28.6832564,11.8140033 22.3803436,15.146601 14.6053065,15.146601 Z" id="oval" fill-opacity="0" fill="#FFFFFF"></path>
                <path d="M0.527356624,29.550467 C0.527356624,33.6614345 6.83026948,36.9940322 14.6053065,36.9940322 C22.3803436,36.9940322 28.6832564,33.6614345 28.6832564,29.550467 C28.6832564,28.2213507 28.1544195,14.933726 27,13.8536555 L26.869998,13.8536555 C22.9901073,15.999999 18.9195884,17.0731707 14.6584413,17.0731707 C10.3972942,17.0731707 6.32677528,15.999999 2.44688453,13.8536555 C1.27983089,14.9558953 0.527356624,28.1810889 0.527356624,29.550467 Z" id="Path" fill="#2A98FF"></path>
            </g>
        </g>
    </g>
</svg>