<?xml version="1.0" encoding="UTF-8"?>
<svg width="358px" height="329px" viewBox="0 0 358 329" version="1.1" xmlns="http://www.w3.org/2000/svg" xmlns:xlink="http://www.w3.org/1999/xlink">
    <!-- Generator: Sketch 44.1 (41455) - http://www.bohemiancoding.com/sketch -->
    <title>idea</title>
    <desc>Created with Sketch.</desc>
    <defs></defs>
    <g id="Page-1" stroke="none" stroke-width="1" fill="none" fill-rule="evenodd">
        <g id="idea">
            <g id="circles" transform="translate(0.000000, 50.000000)">
                <circle id="Oval-Copy" fill-opacity="0.053442029" fill="#2FFFD2" cx="104.622871" cy="144.377129" r="104.622871"></circle>
                <circle id="Oval-Copy-2" fill-opacity="0.18" fill="#2F6CFF" cx="180.510949" cy="173.622871" r="104.622871"></circle>
                <circle id="Oval" fill-opacity="0.23" fill="#2F9AFF" cx="90.6326034" cy="112.138686" r="66.9099757"></circle>
                <circle id="Oval" fill-opacity="0.23" fill="#2EB7FF" cx="253.041363" cy="137.077859" r="104.622871"></circle>
                <circle id="Oval" fill-opacity="0.25" fill="#2F9AFF" cx="261.861314" cy="136.773723" r="78.163017"></circle>
                <circle id="Oval" fill-opacity="0.37" fill="#44C6FF" cx="174.878345" cy="124.608273" r="123.783455"></circle>
            </g>
            <g id="Group" transform="translate(29.000000, 0.000000)" fill-rule="nonzero">
                <path d="M126.523315,5.52995392 C126.695932,5.70276498 127.041168,5.87557604 127.386403,5.87557604 C127.731639,5.87557604 128.076874,5.70276498 128.249492,5.52995392 C128.767345,5.01152074 128.767345,4.14746544 128.249492,3.62903226 L125.832844,1.20967742 C125.314991,0.69124424 124.451902,0.69124424 123.934049,1.20967742 C123.416196,1.7281106 123.416196,2.5921659 123.934049,3.11059908 L126.523315,5.52995392 Z" id="Shape" fill="#7FECFF"></path>
                <path d="M134.463729,13.4792627 C134.636347,13.6520737 134.981582,13.8248848 135.326818,13.8248848 C135.672053,13.8248848 136.017288,13.6520737 136.189906,13.4792627 C136.707759,12.9608295 136.707759,12.0967742 136.189906,11.578341 L133.773258,9.15898618 C133.255405,8.640553 132.392317,8.640553 131.874464,9.15898618 C131.35661,9.67741935 131.35661,10.5414747 131.874464,11.0599078 L134.463729,13.4792627 Z" id="Shape" fill="#7FECFF"></path>
                <path d="M124.969755,13.8248848 C125.314991,13.8248848 125.660226,13.6520737 125.832844,13.4792627 L128.249492,11.0599078 C128.767345,10.5414747 128.767345,9.67741935 128.249492,9.15898618 C127.731639,8.640553 126.86855,8.640553 126.350697,9.15898618 L123.934049,11.578341 C123.416196,12.0967742 123.416196,12.9608295 123.934049,13.4792627 C124.279285,13.6520737 124.62452,13.8248848 124.969755,13.8248848 Z" id="Shape" fill="#7FECFF"></path>
                <path d="M132.91017,5.87557604 C133.255405,5.87557604 133.600641,5.70276498 133.773258,5.52995392 L136.189906,3.11059908 C136.707759,2.5921659 136.707759,1.7281106 136.189906,1.20967742 C135.672053,0.69124424 134.808965,0.69124424 134.291111,1.20967742 L131.874464,3.62903226 C131.35661,4.14746544 131.35661,5.01152074 131.874464,5.52995392 C132.219699,5.70276498 132.564934,5.87557604 132.91017,5.87557604 Z" id="Shape" fill="#7FECFF"></path>
                <path d="M265.153297,40.0737327 C265.325914,40.2465438 265.67115,40.4193548 266.016385,40.4193548 C266.36162,40.4193548 266.706856,40.2465438 266.879474,40.0737327 C267.397327,39.5552995 267.397327,38.6912442 266.879474,38.1728111 L264.462826,35.7534562 C263.944973,35.235023 263.081884,35.235023 262.564031,35.7534562 C262.046178,36.2718894 262.046178,37.1359447 262.564031,37.6543779 L265.153297,40.0737327 Z" id="Shape" fill="#7FECFF"></path>
                <path d="M272.921093,48.0230415 C273.093711,48.1958525 273.438946,48.3686636 273.784182,48.3686636 C274.129417,48.3686636 274.474653,48.1958525 274.64727,48.0230415 C275.165123,47.5046083 275.165123,46.640553 274.64727,46.1221198 L272.230622,43.702765 C271.712769,43.1843318 270.849681,43.1843318 270.331828,43.702765 C269.813975,44.2211982 269.813975,45.0852535 270.331828,45.6036866 L272.921093,48.0230415 Z" id="Shape" fill="#7FECFF"></path>
                <path d="M263.599737,48.3686636 C263.944973,48.3686636 264.290208,48.1958525 264.462826,48.0230415 L266.879474,45.6036866 C267.397327,45.0852535 267.397327,44.2211982 266.879474,43.702765 C266.36162,43.1843318 265.498532,43.1843318 264.980679,43.702765 L262.564031,46.1221198 C262.046178,46.640553 262.046178,47.5046083 262.564031,48.0230415 C262.909266,48.3686636 263.254502,48.3686636 263.599737,48.3686636 Z" id="Shape" fill="#7FECFF"></path>
                <path d="M271.540152,40.5921659 C271.885387,40.5921659 272.230622,40.4193548 272.40324,40.2465438 L274.819888,37.8271889 C275.337741,37.3087558 275.337741,36.4447005 274.819888,35.9262673 C274.302035,35.4078341 273.438946,35.4078341 272.921093,35.9262673 L270.504445,38.3456221 C269.986592,38.8640553 269.986592,39.7281106 270.504445,40.2465438 C270.849681,40.4193548 271.194916,40.5921659 271.540152,40.5921659 Z" id="Shape" fill="#7FECFF"></path>
                <path d="M5.15329654,85.0737327 C5.32591424,85.2465438 5.67114965,85.4193548 6.01638505,85.4193548 C6.36162046,85.4193548 6.70685587,85.2465438 6.87947357,85.0737327 C7.39732668,84.5552995 7.39732668,83.6912442 6.87947357,83.1728111 L4.46282572,80.7534562 C3.94497261,80.235023 3.0818841,80.235023 2.56403099,80.7534562 C2.04617788,81.2718894 2.04617788,82.1359447 2.56403099,82.6543779 L5.15329654,85.0737327 Z" id="Shape" fill="#7FECFF"></path>
                <path d="M12.9210932,93.0230415 C13.0937109,93.1958525 13.4389463,93.3686636 13.7841817,93.3686636 C14.1294171,93.3686636 14.4746525,93.1958525 14.6472702,93.0230415 C15.1651233,92.5046083 15.1651233,91.640553 14.6472702,91.1221198 L12.2306224,88.702765 C11.7127693,88.1843318 10.8496807,88.1843318 10.3318276,88.702765 C9.81397452,89.2211982 9.81397452,90.0852535 10.3318276,90.6036866 L12.9210932,93.0230415 Z" id="Shape" fill="#7FECFF"></path>
                <path d="M3.59973721,93.3686636 C3.94497261,93.3686636 4.29020802,93.1958525 4.46282572,93.0230415 L6.87947357,90.6036866 C7.39732668,90.0852535 7.39732668,89.2211982 6.87947357,88.702765 C6.36162046,88.1843318 5.49853194,88.1843318 4.98067883,88.702765 L2.56403099,91.1221198 C2.04617788,91.640553 2.04617788,92.5046083 2.56403099,93.0230415 C2.90926639,93.3686636 3.2545018,93.3686636 3.59973721,93.3686636 Z" id="Shape" fill="#7FECFF"></path>
                <path d="M11.5401516,85.5921659 C11.885387,85.5921659 12.2306224,85.4193548 12.4032401,85.2465438 L14.8198879,82.8271889 C15.337741,82.3087558 15.337741,81.4447005 14.8198879,80.9262673 C14.3020348,80.4078341 13.4389463,80.4078341 12.9210932,80.9262673 L10.5044453,83.3456221 C9.98659223,83.8640553 9.98659223,84.7281106 10.5044453,85.2465438 C10.8496807,85.4193548 11.1949161,85.5921659 11.5401516,85.5921659 Z" id="Shape" fill="#7FECFF"></path>
                <path d="M266.611629,201.218894 C266.784246,201.391705 267.129482,201.564516 267.474717,201.564516 C267.819952,201.564516 268.165188,201.391705 268.337806,201.218894 C268.855659,200.700461 268.855659,199.836406 268.337806,199.317972 L265.921158,196.898618 C265.403305,196.380184 264.540216,196.380184 264.022363,196.898618 C263.50451,197.417051 263.50451,198.281106 264.022363,198.799539 L266.611629,201.218894 Z" id="Shape" fill="#7FECFF"></path>
                <path d="M273.861572,204.847926 C273.343719,204.329493 272.48063,204.329493 271.962777,204.847926 C271.444924,205.366359 271.444924,206.230415 271.962777,206.748848 L274.379425,209.168203 C274.552043,209.341014 274.897278,209.513825 275.242514,209.513825 C275.587749,209.513825 275.932985,209.341014 276.105602,209.168203 C276.623455,208.64977 276.623455,207.785714 276.105602,207.267281 L273.861572,204.847926 Z" id="Shape" fill="#7FECFF"></path>
                <path d="M264.194981,209.168203 C264.367598,209.341014 264.712834,209.513825 265.058069,209.513825 C265.403305,209.513825 265.74854,209.341014 265.921158,209.168203 L268.337806,206.748848 C268.855659,206.230415 268.855659,205.366359 268.337806,204.847926 C267.819952,204.329493 266.956864,204.329493 266.439011,204.847926 L264.022363,207.267281 C263.677128,207.785714 263.677128,208.64977 264.194981,209.168203 Z" id="Shape" fill="#7FECFF"></path>
                <path d="M276.450838,196.898618 C275.932985,196.380184 275.069896,196.380184 274.552043,196.898618 L272.135395,199.317972 C271.617542,199.836406 271.617542,200.700461 272.135395,201.218894 C272.308013,201.391705 272.653248,201.564516 272.998484,201.564516 C273.343719,201.564516 273.688954,201.391705 273.861572,201.218894 L276.27822,198.799539 C276.968691,198.281106 276.968691,197.417051 276.450838,196.898618 Z" id="Shape" fill="#7FECFF"></path>
                <path d="M2.28718457,221.388825 C1.76933146,220.870392 0.906242942,220.870392 0.388389832,221.388825 C-0.129463277,221.907258 -0.129463277,222.771313 0.388389832,223.289747 L2.80503768,225.709101 C2.97765538,225.881912 3.32289079,226.054724 3.66812619,226.054724 C4.0133616,226.054724 4.35859701,225.881912 4.53121471,225.709101 C5.04906782,225.190668 5.04906782,224.326613 4.53121471,223.80818 L2.28718457,221.388825 Z" id="Shape" fill="#7FECFF"></path>
                <path d="M10.2871846,229.388825 C9.76933146,228.870392 8.90624294,228.870392 8.38838983,229.388825 C7.87053672,229.907258 7.87053672,230.771313 8.38838983,231.289747 L10.8050377,233.709101 C10.9776554,233.881912 11.3228908,234.054724 11.6681262,234.054724 C12.0133616,234.054724 12.358597,233.881912 12.5312147,233.709101 C13.0490678,233.190668 13.0490678,232.326613 12.5312147,231.80818 L10.2871846,229.388825 Z" id="Shape" fill="#7FECFF"></path>
                <path d="M2.80503768,229.388825 L0.388389832,231.80818 C-0.129463277,232.326613 -0.129463277,233.190668 0.388389832,233.709101 C0.561007536,233.881912 0.906242942,234.054724 1.25147835,234.054724 C1.59671376,234.054724 1.94194916,233.881912 2.11456686,233.709101 L4.53121471,231.289747 C5.04906782,230.771313 5.04906782,229.907258 4.53121471,229.388825 C4.1859793,228.870392 3.32289079,228.870392 2.80503768,229.388825 Z" id="Shape" fill="#7FECFF"></path>
                <path d="M10.8050377,221.388825 L8.38838983,223.80818 C7.87053672,224.326613 7.87053672,225.190668 8.38838983,225.709101 C8.56100754,225.881912 8.90624294,226.054724 9.25147835,226.054724 C9.59671376,226.054724 9.94194916,225.881912 10.1145669,225.709101 L12.5312147,223.289747 C13.0490678,222.771313 13.0490678,221.907258 12.5312147,221.388825 C12.1859793,220.870392 11.3228908,220.870392 10.8050377,221.388825 Z" id="Shape" fill="#7FECFF"></path>
                <path d="M84.9224483,79.3179724 C80.9522411,79.3179724 77.6725048,82.6013825 77.6725048,86.5760369 C77.6725048,90.5506912 80.9522411,93.8341014 84.9224483,93.8341014 C88.8926555,93.8341014 92.1723918,90.5506912 92.1723918,86.5760369 C92.1723918,82.6013825 88.8926555,79.3179724 84.9224483,79.3179724 Z M84.9224483,91.4147465 C82.3331828,91.4147465 80.2617703,89.3410138 80.2617703,86.7488479 C80.2617703,84.156682 82.3331828,82.0829493 84.9224483,82.0829493 C87.5117139,82.0829493 89.5831263,84.156682 89.5831263,86.7488479 C89.5831263,89.1682028 87.5117139,91.4147465 84.9224483,91.4147465 Z" id="Shape" fill="#FFCE5B"></path>
                <path d="M231.129643,251.437788 C227.849907,251.437788 225.260641,254.029954 225.260641,257.313364 C225.260641,260.596774 227.849907,263.18894 231.129643,263.18894 C234.409379,263.18894 236.998645,260.596774 236.998645,257.313364 C237.171263,254.029954 234.409379,251.437788 231.129643,251.437788 Z M231.129643,260.596774 C229.230848,260.596774 227.849907,259.041475 227.849907,257.313364 C227.849907,255.412442 229.403466,254.029954 231.129643,254.029954 C233.028438,254.029954 234.409379,255.585253 234.409379,257.313364 C234.581997,259.041475 233.028438,260.596774 231.129643,260.596774 Z" id="Shape" fill="#FFCE5B"></path>
                <path d="M78.1903579,275.285714 L84.4045952,275.285714 C85.095066,275.285714 85.7855368,274.767281 85.7855368,273.903226 C85.7855368,273.039171 85.2676837,272.520737 84.4045952,272.520737 L78.1903579,272.520737 C77.4998871,272.520737 76.8094163,273.039171 76.8094163,273.903226 C76.8094163,274.767281 77.4998871,275.285714 78.1903579,275.285714 Z" id="Shape" fill="#0065C3"></path>
                <path d="M78.1903579,268.718894 L91.6545387,268.718894 C92.3450096,268.718894 93.0354804,268.200461 93.0354804,267.336406 C93.0354804,266.47235 92.3450096,266.126728 91.6545387,266.126728 L78.1903579,266.126728 C77.4998871,266.126728 76.8094163,266.645161 76.8094163,267.509217 C76.8094163,268.373272 77.4998871,268.718894 78.1903579,268.718894 Z" id="Shape" fill="#0065C3"></path>
                <path d="M97.3509229,268.718894 L101.666366,268.718894 C102.356836,268.718894 103.047307,268.200461 103.047307,267.336406 C103.047307,266.47235 102.529454,265.953917 101.666366,265.953917 L97.3509229,265.953917 C96.6604521,265.953917 95.9699813,266.47235 95.9699813,267.336406 C95.9699813,268.200461 96.6604521,268.718894 97.3509229,268.718894 Z" id="Shape" fill="#0065C3"></path>
                <path d="M265.998419,134.617512 L243.3855,134.4447 C242.522411,134.4447 242.004558,134.963134 242.004558,135.654378 C242.004558,136.345622 242.522411,137.036866 243.212882,137.036866 L265.825801,137.209677 C265.825801,137.209677 265.825801,137.209677 265.825801,137.209677 C266.516272,137.209677 267.206743,136.691244 267.206743,136 C267.379361,135.135945 266.68889,134.617512 265.998419,134.617512 Z" id="Shape" fill="#FFCE5B"></path>
                <path d="M240.278381,149.997696 C240.105764,150.68894 240.623617,151.380184 241.314087,151.552995 L254.605651,154.317972 C254.778268,154.317972 254.778268,154.317972 254.950886,154.317972 C255.468739,154.317972 256.15921,153.97235 256.15921,153.281106 C256.331828,152.589862 255.813975,151.898618 255.123504,151.725806 L241.831941,148.960829 C241.14147,148.788018 240.450999,149.306452 240.278381,149.997696 Z" id="Shape" fill="#FFCE5B"></path>
                <path d="M255.296121,118.891705 C255.986592,118.718894 256.331828,117.854839 256.15921,117.336406 C255.986592,116.645161 255.123504,116.299539 254.605651,116.47235 L241.659323,120.619816 C240.968852,120.792627 240.623617,121.656682 240.796234,122.175115 C240.968852,122.693548 241.486705,123.039171 242.004558,123.039171 C242.177176,123.039171 242.349794,123.039171 242.349794,123.039171 L255.296121,118.891705 Z" id="Shape" fill="#FFCE5B"></path>
                <path d="M189.183541,82.2557604 C189.874012,82.2557604 190.564483,81.7373272 190.564483,80.8732719 L190.564483,58.4078341 C190.564483,57.7165899 190.04663,57.0253456 189.183541,57.0253456 C188.49307,57.0253456 187.802599,57.5437788 187.802599,58.4078341 L187.802599,81.0460829 C187.802599,81.7373272 188.49307,82.2557604 189.183541,82.2557604 Z" id="Shape" fill="#FFCE5B"></path>
                <path d="M160.356385,89.1682028 C160.529002,89.5138249 161.046855,89.859447 161.392091,89.859447 C161.564709,89.859447 161.909944,89.859447 162.082562,89.6866359 C162.773032,89.3410138 162.94565,88.4769585 162.600415,87.9585253 L151.035029,68.4308756 C150.689793,67.7396313 149.826705,67.5668203 149.308852,67.9124424 C148.618381,68.2580645 148.445763,69.1221198 148.790999,69.640553 L160.356385,89.1682028 Z" id="Shape" fill="#FFCE5B"></path>
                <path d="M121.517401,98.5 L141.19582,109.732719 C141.368437,109.90553 141.541055,109.90553 141.88629,109.90553 C142.404143,109.90553 142.749379,109.732719 143.094614,109.214286 C143.43985,108.523041 143.267232,107.831797 142.576761,107.486175 L122.898343,96.2534562 C122.207872,95.9078341 121.517401,96.0806452 121.172166,96.7718894 C120.654313,97.2903226 120.999548,98.1543779 121.517401,98.5 Z" id="Shape" fill="#FFCE5B"></path>
                <path d="M112.196045,137.036866 C112.196045,137.036866 112.196045,137.036866 112.196045,137.036866 L134.808965,136.864055 C135.499435,136.864055 136.189906,136.345622 136.017288,135.481567 C136.017288,134.790323 135.499435,134.271889 134.636347,134.271889 C134.636347,134.271889 134.636347,134.271889 134.636347,134.271889 L112.023428,134.4447 C111.332957,134.4447 110.642486,134.963134 110.815104,135.827189 C110.987722,136.518433 111.505575,137.036866 112.196045,137.036866 Z" id="Shape" fill="#FFCE5B"></path>
                <path d="M256.15921,172.981567 L236.653409,161.576037 C235.962939,161.230415 235.272468,161.403226 234.927232,162.09447 C234.581997,162.785714 234.754615,163.476959 235.445086,163.822581 L254.950886,175.228111 C255.123504,175.400922 255.468739,175.400922 255.641357,175.400922 C256.15921,175.400922 256.504445,175.228111 256.849681,174.709677 C257.022298,174.191244 256.849681,173.327189 256.15921,172.981567 Z" id="Shape" fill="#FFCE5B"></path>
                <path d="M234.927232,108.868664 C235.09985,109.387097 235.617703,109.559908 236.135556,109.559908 C236.308174,109.559908 236.480792,109.559908 236.826027,109.387097 L256.849681,98.8456221 C257.540152,98.5 257.712769,97.6359447 257.367534,97.1175115 C257.022298,96.4262673 256.331828,96.2534562 255.641357,96.5990783 L235.617703,107.140553 C234.927232,107.313364 234.581997,108.177419 234.927232,108.868664 Z" id="Shape" fill="#FFCE5B"></path>
                <path d="M216.111903,89.6866359 C216.28452,89.859447 216.629756,89.859447 216.802374,89.859447 C217.320227,89.859447 217.665462,89.6866359 217.83808,89.1682028 L229.403466,69.640553 C229.748701,68.9493088 229.576084,68.2580645 228.885613,67.9124424 C228.195142,67.5668203 227.504671,67.7396313 227.159436,68.4308756 L215.59405,87.9585253 C215.421432,88.4769585 215.59405,89.3410138 216.111903,89.6866359 Z" id="Shape" fill="#FFCE5B"></path>
                <path d="M175.028889,82.6013825 C175.201507,83.1198157 175.71936,83.4654378 176.237213,83.4654378 C176.409831,83.4654378 176.582449,83.4654378 176.582449,83.4654378 C177.27292,83.2926267 177.618155,82.6013825 177.445537,81.9101382 L173.47533,68.9493088 C173.302712,68.2580645 172.439624,67.7396313 171.749153,68.0852535 C171.058682,68.2580645 170.713447,68.9493088 170.886065,69.640553 L175.028889,82.6013825 Z" id="Shape" fill="#FFCE5B"></path>
                <path d="M150.517176,96.7718894 C150.689793,96.9447005 151.035029,97.1175115 151.380264,97.1175115 C151.725499,97.1175115 152.070735,96.9447005 152.41597,96.7718894 C152.933823,96.2534562 152.933823,95.3894009 152.41597,94.8709677 L142.404143,85.7119816 C141.88629,85.1935484 141.023202,85.1935484 140.505349,85.7119816 C139.987496,86.2304147 139.987496,87.09447 140.505349,87.6129032 L150.517176,96.7718894 Z" id="Shape" fill="#FFCE5B"></path>
                <path d="M123.761432,115.781106 C123.070961,115.608295 122.38049,116.126728 122.207872,116.817972 C122.035255,117.509217 122.553108,118.200461 123.243578,118.373272 L136.535142,121.31106 C136.707759,121.31106 136.707759,121.31106 136.880377,121.31106 C137.39823,121.31106 138.088701,120.965438 138.088701,120.274194 C138.261319,119.582949 137.743466,118.891705 137.052995,118.718894 L123.761432,115.781106 Z" id="Shape" fill="#FFCE5B"></path>
                <path d="M228.022524,173.5 C227.504671,172.981567 226.641583,172.981567 226.12373,173.672811 C225.605876,174.191244 225.605876,175.0553 226.296347,175.573733 L236.308174,184.732719 C236.480792,184.90553 236.826027,185.078341 237.171263,185.078341 C237.516498,185.078341 237.861733,184.90553 238.206969,184.732719 C238.724822,184.214286 238.724822,183.35023 238.034351,182.831797 L228.022524,173.5 Z" id="Shape" fill="#FFCE5B"></path>
                <path d="M227.332053,98.1543779 C227.504671,98.3271889 227.849907,98.5 228.195142,98.5 C228.540377,98.5 228.885613,98.3271889 229.230848,97.9815668 L238.379586,87.7857143 C238.89744,87.2672811 238.89744,86.4032258 238.206969,85.8847926 C237.689116,85.3663594 236.826027,85.3663594 236.308174,86.0576037 L227.159436,96.2534562 C226.8142,96.7718894 226.8142,97.6359447 227.332053,98.1543779 Z" id="Shape" fill="#FFCE5B"></path>
                <path d="M203.51081,83.983871 C203.683428,83.983871 203.683428,83.983871 203.856046,83.983871 C204.373899,83.983871 205.06437,83.6382488 205.06437,82.9470046 L207.826253,69.640553 C207.998871,68.9493088 207.481018,68.2580645 206.790547,68.0852535 C206.100076,67.9124424 205.409605,68.4308756 205.236987,69.1221198 L202.475104,82.4285714 C202.475104,83.1198157 202.82034,83.8110599 203.51081,83.983871 Z" id="Shape" fill="#FFCE5B"></path>
                <path d="M211.451225,233.983871 C211.451225,233.983871 211.451225,233.81106 211.451225,233.81106 L211.451225,228.97235 C211.451225,225.170507 211.451225,221.368664 211.451225,217.739631 C211.623842,199.248848 213.35002,184.387097 221.290434,167.624424 C222.153522,165.723502 223.189229,163.822581 224.052317,161.921659 C230.266554,149.479263 236.135556,137.728111 231.129643,121.829493 C226.12373,105.758065 212.141696,93.6612903 195.570396,91.0691244 C177.27292,88.3041475 158.975443,97.2903226 149.999322,113.707373 C143.267232,125.976959 143.267232,139.456221 149.654087,154.145161 C149.654087,154.317972 154.142147,162.958525 156.21356,167.451613 C158.112354,171.253456 159.493296,175.0553 160.874238,178.857143 C158.284972,177.647465 155.350471,176.78341 152.41597,176.78341 C151.035029,176.78341 149.654087,176.956221 148.273145,177.301843 C149.136234,171.599078 149.654087,165.723502 149.654087,159.847926 C149.654087,156.046083 146.546968,153.108295 142.921997,153.108295 L69.9047081,153.108295 C66.1071187,153.108295 63.1726177,156.218894 63.1726177,159.847926 C63.1726177,177.129032 67.1428249,194.582949 74.5653861,210.308756 L79.3986818,220.677419 C83.368889,229.145161 85.6129191,238.64977 85.6129191,247.981567 C85.6129191,250.919355 87.8569493,253.165899 90.7914502,253.165899 L122.207872,253.165899 C124.969755,253.165899 127.386403,250.919355 127.386403,247.981567 C127.386403,238.476959 129.457816,229.145161 133.600641,220.677419 L138.606554,210.308756 C138.606554,210.135945 138.779172,209.963134 138.779172,209.790323 C142.404143,213.592166 147.410057,215.83871 152.761206,215.83871 C158.284972,215.83871 163.118268,213.592166 166.74324,209.963134 C166.915857,212.209677 166.915857,214.801843 166.915857,217.394009 L166.915857,233.465438 C166.915857,233.465438 166.915857,233.638249 166.915857,233.638249 C166.915857,233.81106 166.915857,234.156682 167.088475,234.329493 L188.147835,268.891705 C188.320453,269.237327 188.838306,269.582949 189.183541,269.582949 C189.701394,269.582949 190.04663,269.410138 190.219247,268.891705 L211.278607,234.329493 C211.451225,234.502304 211.451225,234.156682 211.451225,233.983871 Z M137.052995,207.198157 C137.052995,207.198157 137.052995,207.198157 137.052995,207.198157 C137.052995,207.198157 137.052995,207.198157 137.052995,207.198157 C136.707759,207.889401 136.362524,208.753456 136.017288,209.4447 L131.011375,219.813364 C126.86855,228.626728 124.62452,238.476959 124.62452,248.327189 C124.62452,249.709677 123.416196,250.919355 122.035255,250.919355 L90.7914502,250.919355 C89.4105086,250.919355 88.2021847,249.709677 88.2021847,248.327189 C88.2021847,238.476959 85.9581545,228.626728 81.8153297,219.813364 L76.982034,209.4447 C69.7320904,194.064516 65.934501,177.129032 65.934501,160.020737 C65.934501,157.774194 67.8332957,155.873272 70.0773258,155.873272 L143.094614,155.873272 C145.338644,155.873272 147.237439,157.774194 147.237439,160.020737 C147.237439,166.241935 146.719586,172.635945 145.68388,179.029954 L145.68388,179.029954 C144.993409,183.35023 143.957703,187.670507 142.749379,191.817972 C142.231526,192.854839 141.88629,193.891705 141.88629,194.928571 C140.332731,199.076037 138.779172,203.223502 137.052995,207.198157 Z M152.588588,188.016129 C157.249266,188.016129 161.046855,191.817972 161.046855,196.483871 C161.046855,201.14977 157.249266,204.951613 152.588588,204.951613 C147.92791,204.951613 144.130321,201.14977 144.130321,196.483871 C144.130321,196.138249 144.130321,195.792627 144.302938,195.274194 C144.648174,194.410138 144.820791,193.546083 144.993409,192.682028 C146.374351,190.089862 149.308852,188.016129 152.588588,188.016129 Z M152.588588,213.419355 C147.582675,213.419355 142.921997,211.172811 139.64226,207.370968 C140.677966,205.124424 141.541055,203.050691 142.404143,200.804147 C144.130321,204.778802 147.92791,207.543779 152.588588,207.543779 C158.630208,207.543779 163.636121,202.532258 163.636121,196.483871 C163.636121,190.435484 158.630208,185.423963 152.588588,185.423963 C150.344558,185.423963 148.273145,186.115207 146.546968,187.324885 C147.064821,185.078341 147.582675,182.658986 147.92791,180.239631 C149.481469,179.894009 151.035029,179.548387 152.588588,179.548387 C161.909944,179.548387 169.505123,187.152074 169.505123,196.483871 C169.505123,205.815668 161.909944,213.419355 152.588588,213.419355 Z M189.183541,265.953917 L185.040716,259.041475 L193.498984,259.041475 L189.183541,265.953917 Z M194.707308,256.794931 L194.707308,256.62212 L183.487157,256.62212 L183.487157,256.967742 L169.332505,233.638249 L169.332505,233.465438 C169.332505,233.465438 169.505123,233.465438 169.505123,233.465438 C172.267006,233.465438 174.683654,232.082949 176.064596,230.009217 C177.445537,232.082949 179.862185,233.465438 182.624068,233.465438 C185.385952,233.465438 187.802599,232.082949 189.183541,230.009217 C190.564483,232.082949 192.981131,233.465438 195.743014,233.465438 C198.504897,233.465438 200.921545,232.082949 202.302487,230.009217 C203.683428,232.082949 206.100076,233.465438 208.861959,233.465438 C208.861959,233.465438 209.034577,233.465438 209.034577,233.465438 L209.034577,233.638249 L194.707308,256.794931 Z M174.856272,225.516129 C174.856272,225.516129 174.683654,225.516129 174.856272,225.516129 C174.856272,228.626728 172.439624,230.873272 169.505123,230.873272 C169.505123,230.873272 169.332505,230.873272 169.332505,230.873272 L169.332505,218.949309 L174.683654,218.949309 L174.856272,225.516129 C174.683654,225.343318 174.856272,225.516129 174.856272,225.516129 Z M187.802599,225.516129 C187.802599,225.516129 187.802599,225.516129 187.802599,225.516129 C187.802599,228.626728 185.385952,230.873272 182.451451,230.873272 C179.51695,230.873272 177.27292,228.453917 177.27292,225.68894 C177.27292,225.68894 177.27292,225.68894 177.27292,225.516129 C177.27292,225.516129 177.27292,225.343318 177.27292,225.343318 L177.27292,218.949309 L187.802599,218.949309 C187.802599,219.12212 187.802599,219.12212 187.802599,219.294931 L187.802599,225.516129 C187.802599,225.343318 187.802599,225.516129 187.802599,225.516129 Z M200.921545,225.516129 C200.921545,225.516129 200.921545,225.516129 200.921545,225.516129 C200.921545,228.626728 198.504897,230.873272 195.570396,230.873272 C192.635895,230.873272 190.391865,228.453917 190.391865,225.68894 C190.391865,225.68894 190.391865,225.68894 190.391865,225.516129 C190.391865,225.516129 190.391865,225.516129 190.391865,225.343318 L190.391865,219.294931 C190.391865,219.12212 190.391865,219.12212 190.391865,218.949309 L200.921545,218.949309 L200.921545,225.516129 C200.921545,225.343318 200.921545,225.516129 200.921545,225.516129 Z M208.861959,228.97235 L208.861959,230.873272 C208.861959,230.873272 208.689342,230.873272 208.689342,230.873272 C205.754841,230.873272 203.51081,228.453917 203.51081,225.68894 C203.51081,225.68894 203.51081,225.68894 203.51081,225.516129 C203.51081,225.516129 203.51081,225.516129 203.51081,225.343318 L203.51081,218.949309 L208.861959,218.949309 C208.861959,222.232719 208.861959,225.516129 208.861959,228.97235 Z M180.725274,203.050691 L209.55243,203.050691 C209.207195,207.370968 209.034577,211.691244 208.861959,216.357143 L169.159887,216.357143 C169.159887,213.073733 168.98727,209.963134 168.814652,207.198157 C170.886065,204.087558 171.921771,200.458525 171.921771,196.656682 C171.921771,190.435484 168.98727,184.90553 164.326592,181.276498 C162.773032,176.264977 161.046855,171.426267 158.630208,166.587558 C156.386177,162.09447 152.070735,153.281106 152.070735,153.281106 C145.856498,139.28341 146.029115,126.841014 152.41597,115.262673 C160.70162,99.8824885 177.96339,91.2419355 195.225161,94.0069124 C210.760754,96.4262673 224.052317,107.658986 228.712995,122.866359 C233.373673,137.728111 228.022524,148.442396 221.808287,161.057604 C220.945198,162.958525 219.909492,164.859447 219.046404,166.760369 C213.522637,178.33871 210.933372,189.052995 209.725048,200.631336 L180.725274,200.631336 C180.034803,200.631336 179.344332,201.14977 179.344332,202.013825 C179.51695,202.359447 180.034803,203.050691 180.725274,203.050691 Z" id="Shape" stroke="#00396E" fill="#00396E"></path>
                <path d="M176.064596,209.099078 C176.064596,209.790323 176.582449,210.481567 177.445537,210.481567 L202.302487,210.481567 C202.992957,210.481567 203.683428,209.963134 203.683428,209.099078 C203.683428,208.235023 203.165575,207.71659 202.302487,207.71659 L177.445537,207.71659 C176.582449,207.71659 176.064596,208.407834 176.064596,209.099078 Z" id="Shape" fill="#00396E"></path>
                <path d="M210.842816,110.617111 C210.152345,110.444299 209.461874,110.962733 209.289256,111.653977 C209.116639,112.345221 209.634492,113.036465 210.324962,113.209276 C212.223757,113.554899 213.432081,114.246143 214.29517,115.45582 C215.676111,117.529553 215.330876,120.467341 215.158258,120.467341 C214.98564,121.158585 215.503494,121.849829 216.193964,122.022641 C216.193964,122.022641 216.366582,122.022641 216.366582,122.022641 C217.057053,122.022641 217.574906,121.677018 217.574906,120.985774 C217.574906,120.812963 218.265377,117.01112 216.193964,114.073332 C215.330876,112.17241 213.432081,111.135544 210.842816,110.617111 Z" id="Shape" fill="#FFCE5B" transform="translate(213.470591, 116.303129) rotate(-14.000000) translate(-213.470591, -116.303129) "></path>
                <path d="M86.4760076,115.262673 C89.0652732,114.052995 91.9997741,112.670507 91.9997741,109.559908 C91.9997741,108.868664 91.481921,108.177419 90.6188325,108.177419 C89.9283617,108.177419 89.2378909,108.695853 89.2378909,109.559908 C89.2378909,110.942396 87.6843316,111.806452 85.2676837,112.843318 C82.6784182,114.052995 79.7439172,115.435484 79.7439172,118.546083 C79.7439172,121.656682 82.6784182,123.039171 85.2676837,124.248848 C87.6843316,125.458525 89.2378909,126.322581 89.2378909,127.532258 C89.2378909,128.914747 87.6843316,129.778802 85.2676837,130.815668 C82.6784182,132.025346 79.7439172,133.407834 79.7439172,136.518433 C79.7439172,139.629032 82.6784182,141.011521 85.2676837,142.221198 C87.6843316,143.430876 89.2378909,144.294931 89.2378909,145.504608 C89.2378909,146.195853 89.755744,146.887097 90.6188325,146.887097 C91.3093033,146.887097 91.9997741,146.368664 91.9997741,145.504608 C91.9997741,142.394009 89.0652732,141.011521 86.4760076,139.801843 C84.0593598,138.592166 82.5058005,137.728111 82.5058005,136.518433 C82.5058005,135.135945 84.0593598,134.271889 86.4760076,133.235023 C89.0652732,132.025346 91.9997741,130.642857 91.9997741,127.532258 C91.9997741,124.421659 89.0652732,123.039171 86.4760076,121.829493 C84.0593598,120.619816 82.5058005,119.75576 82.5058005,118.546083 C82.3331828,117.163594 83.8867421,116.299539 86.4760076,115.262673 Z" id="Shape" fill="#FFFFFF"></path>
                <path d="M107.017514,104.894009 C107.017514,106.276498 105.463955,107.140553 103.047307,108.177419 C100.458042,109.387097 97.5235406,110.769585 97.5235406,113.880184 C97.5235406,116.990783 100.458042,118.373272 103.047307,119.582949 C105.463955,120.792627 107.017514,121.656682 107.017514,122.866359 C107.017514,124.248848 105.463955,125.112903 103.047307,126.14977 C100.458042,127.359447 97.5235406,128.741935 97.5235406,131.852535 C97.5235406,132.543779 98.0413938,133.235023 98.9044823,133.235023 C99.5949531,133.235023 100.285424,132.71659 100.285424,131.852535 C100.285424,130.470046 101.838983,129.605991 104.255631,128.569124 C106.844897,127.359447 109.779398,125.976959 109.779398,122.866359 C109.779398,119.75576 106.844897,118.373272 104.255631,117.163594 C101.838983,115.953917 100.285424,115.089862 100.285424,113.880184 C100.285424,112.497696 101.838983,111.633641 104.255631,110.596774 C106.844897,109.387097 109.779398,108.004608 109.779398,104.894009 C109.779398,104.202765 109.261544,103.511521 108.398456,103.511521 C107.707985,103.511521 107.017514,104.202765 107.017514,104.894009 Z" id="Shape" fill="#FFFFFF"></path>
                <path d="M77.6725048,179.894009 C77.6725048,179.202765 76.982034,178.684332 76.2915631,178.684332 C75.6010923,178.684332 75.0832392,179.375576 75.0832392,180.06682 C75.9463277,194.064516 81.642712,205.124424 86.1307722,213.764977 C89.9283617,221.195853 93.0354804,227.071429 92.1723918,232.25576 C91.9997741,232.947005 92.5176273,233.638249 93.2080981,233.81106 C93.2080981,233.81106 93.3807158,233.81106 93.3807158,233.81106 C94.0711866,233.81106 94.5890397,233.292627 94.5890397,232.774194 C95.4521282,226.725806 92.1723918,220.331797 88.2021847,212.728111 C83.8867421,203.914747 78.3629756,193.373272 77.6725048,179.894009 Z" id="Shape" stroke="#0065C3" fill="#0065C3"></path>
                <path d="M138.261319,169.006912 C137.570848,169.006912 136.880377,169.525346 136.880377,170.21659 C136.017288,184.214286 131.35661,194.928571 126.86855,203.569124 C126.523315,204.260369 126.86855,204.951613 127.386403,205.297235 C127.559021,205.470046 127.731639,205.470046 127.904256,205.470046 C128.42211,205.470046 128.767345,205.297235 129.11258,204.778802 C133.773258,195.965438 138.433936,184.90553 139.469643,170.389401 C139.64226,169.698157 138.951789,169.006912 138.261319,169.006912 Z" id="Shape" stroke="#0065C3" fill="#0065C3"></path>
                <path d="M135.844671,259.90553 L76.982034,259.90553 C76.2915631,259.90553 75.6010923,260.423963 75.6010923,261.288018 C75.6010923,262.152074 76.1189454,262.670507 76.982034,262.670507 L135.844671,262.670507 C136.535142,262.670507 137.225612,262.152074 137.225612,261.288018 C137.225612,260.423963 136.535142,259.90553 135.844671,259.90553 Z" id="Shape" fill="#0065C3"></path>
            </g>
        </g>
    </g>
</svg>