<?xml version="1.0" encoding="UTF-8"?>
<svg width="588px" height="427px" viewBox="0 0 588 427" version="1.1" xmlns="http://www.w3.org/2000/svg" xmlns:xlink="http://www.w3.org/1999/xlink">
    <g id="Page-1" stroke="none" stroke-width="1" fill="none" fill-rule="evenodd">
        <g id="iPad" transform="translate(-9.000000, -11.000000)">
            <g id="Group" transform="translate(9.000000, 11.000000)">
                <g id="circles" transform="translate(0.000000, 9.000000)">
                    <circle id="Oval-Copy" fill-opacity="0.053442029" fill="#2FFFD2" cx="172" cy="239" r="172"></circle>
                    <circle id="Oval-Copy-2" fill-opacity="0.123952672" fill="#2F6CFF" cx="231" cy="172" r="172"></circle>
                    <circle id="Oval" fill-opacity="0.132019928" fill="#2F9AFF" cx="149" cy="186" r="110"></circle>
                    <circle id="Oval" fill-opacity="0.132869112" fill="#2EB7FF" cx="416" cy="227" r="172"></circle>
                    <circle id="Oval" fill-opacity="0.303923234" fill="#2F9AFF" cx="430.5" cy="226.5" r="128.5"></circle>
                    <circle id="Oval" fill-opacity="0.374377264" fill="#44C6FF" cx="287.5" cy="206.5" r="203.5"></circle>
                </g>
                <g id="ruby" transform="translate(131.000000, 313.000000)" stroke="#00396E" stroke-width="2.5">
                    <polygon id="Path" points="16.6050145 6.47193405 18.0402889 0.677734375 28.0872093 0.677734375 30.3198583 9.59188772 15.8076399 9.59188772"></polygon>
                    <polygon id="Path" stroke-linecap="round" stroke-linejoin="round" points="7.55809411 0.677734375 17.1265898 0.677734375 16.1697402 4.46624955 14.8939408 9.59188772 0.860147166 9.59188772"></polygon>
                    <polygon id="Path" stroke-linecap="round" stroke-linejoin="round" points="0.860147166 9.78138626 15.2128906 9.78138626 22.3892624 33.8621003"></polygon>
                    <polygon id="Path" stroke-linecap="round" stroke-linejoin="round" points="23.1434866 33.9686137 15.8076399 9.25 30.4793332 9.25"></polygon>
                    <path d="M24.2898347,33.5431504 C24.2898347,33.5431504 24.2898347,33.5431504 24.2898347,33.5431504 L23.9708848,33.8621003 L31.1472565,9.78138626 L45.5,9.78138626 L37.6857286,18.3930323 C37.6857286,18.3930323 37.6857286,18.3930323 37.6857286,18.3930323 L24.2898347,33.5431504 Z" id="Path" stroke-linecap="round" stroke-linejoin="round"></path>
                    <polygon id="Path" stroke-linecap="round" stroke-linejoin="round" points="28.8899994 0.677734375 38.458495 0.677734375 45.156442 9.36903388 31.1226484 9.36903388"></polygon>
                </g>
                <rect id="Rectangle" fill="#00396E" x="29" y="347" width="508" height="5" rx="2.5"></rect>
                <g id="rocket" transform="translate(23.000000, 0.000000)" fill-rule="nonzero">
                    <path d="M145.880127,211.532265 L145.880127,233.909765 C145.880127,234.778794 146.531177,235.647823 147.616262,235.647823 C148.484329,235.647823 149.352397,234.996051 149.352397,233.909765 L149.352397,211.532265 C149.352397,210.663236 148.701346,209.794207 147.616262,209.794207 C146.531177,209.794207 145.880127,210.663236 145.880127,211.532265 Z" id="Shape" fill="#0065C3"></path>
                    <path d="M147.399245,250.204061 C148.267313,250.204061 149.13538,249.552289 149.13538,248.466003 L149.13538,241.296513 C149.13538,240.427484 148.484329,239.558454 147.399245,239.558454 C146.531177,239.558454 145.66311,240.210226 145.66311,241.296513 L145.66311,248.466003 C145.880127,249.335032 146.531177,250.204061 147.399245,250.204061 Z" id="Shape" fill="#0065C3"></path>
                    <path d="M492.350011,219.589279 C493.218078,219.589279 494.086146,218.937507 494.086146,217.851221 L494.086146,195.473721 C494.086146,194.604692 493.435095,193.735663 492.350011,193.735663 C491.481943,193.735663 490.613875,194.387434 490.613875,195.473721 L490.613875,217.851221 C490.613875,218.937507 491.481943,219.589279 492.350011,219.589279 Z" id="Shape" fill="#0065C3"></path>
                    <path d="M492.350011,234.145517 C493.218078,234.145517 494.086146,233.493745 494.086146,232.407459 L494.086146,225.237969 C494.086146,224.368939 493.435095,223.49991 492.350011,223.49991 C491.481943,223.49991 490.613875,224.151682 490.613875,225.237969 L490.613875,232.407459 C490.613875,233.493745 491.481943,234.145517 492.350011,234.145517 Z" id="Shape" fill="#0065C3"></path>
                    <path d="M298.349308,9.36126792 C298.566325,9.5785252 299.000359,9.79578249 299.434393,9.79578249 C299.868427,9.79578249 300.30246,9.5785252 300.519477,9.36126792 C301.170528,8.70949607 301.170528,7.62320965 300.519477,6.9714378 L297.047207,3.49532127 C296.396156,2.84354942 295.311072,2.84354942 294.660021,3.49532127 C294.00897,4.14709312 294.00897,5.23337954 294.660021,5.88515139 L298.349308,9.36126792 Z" id="Shape" fill="#7FECFF"></path>
                    <path d="M309.851204,20.8759039 C310.068221,21.0931612 310.502254,21.3104185 310.936288,21.3104185 C311.370322,21.3104185 311.804356,21.0931612 312.021373,20.8759039 C312.672423,20.2241321 312.672423,19.1378457 312.021373,18.4860738 L308.549102,15.0099573 C307.898052,14.3581854 306.812967,14.3581854 306.161917,15.0099573 C305.510866,15.6617291 305.510866,16.7480156 306.161917,17.3997874 L309.851204,20.8759039 Z" id="Shape" fill="#7FECFF"></path>
                    <path d="M295.962122,21.3104185 C296.396156,21.3104185 296.83019,21.0931612 297.047207,20.8759039 L300.519477,17.3997874 C301.170528,16.7480156 301.170528,15.6617291 300.519477,15.0099573 C299.868427,14.3581854 298.783342,14.3581854 298.132291,15.0099573 L294.660021,18.4860738 C294.00897,19.1378457 294.00897,20.2241321 294.660021,20.8759039 C295.094055,21.3104185 295.528089,21.3104185 295.962122,21.3104185 Z" id="Shape" fill="#7FECFF"></path>
                    <path d="M307.464018,10.0130398 C307.898052,10.0130398 308.332086,9.79578249 308.549102,9.5785252 L312.021373,5.88515139 C312.672423,5.23337954 312.672423,4.14709312 312.021373,3.49532127 C311.370322,3.0608067 310.502254,3.0608067 309.851204,3.71257855 L306.378933,7.18869509 C305.727883,7.84046694 305.727883,8.92675335 306.378933,9.5785252 C306.59595,9.79578249 307.029984,10.0130398 307.464018,10.0130398 Z" id="Shape" fill="#7FECFF"></path>
                    <path d="M101.616262,96.8589387 C101.833279,97.076196 102.267313,97.2934533 102.701346,97.2934533 C103.13538,97.2934533 103.569414,97.076196 103.786431,96.8589387 C104.437482,96.2071669 104.437482,95.1208805 103.786431,94.4691086 L100.314161,90.9929921 C99.6631098,90.3412202 98.5780253,90.3412202 97.9269747,90.9929921 C97.275924,91.6447639 97.275924,92.7310504 97.9269747,93.3828222 L101.616262,96.8589387 Z" id="Shape" fill="#7FECFF"></path>
                    <path d="M111.816056,102.507628 C111.165005,101.855856 110.079921,101.855856 109.42887,102.507628 C108.777819,103.1594 108.777819,104.245686 109.42887,104.897458 L112.90114,108.373575 C113.118157,108.590832 113.552191,108.808089 113.986225,108.808089 C114.420259,108.808089 114.854292,108.590832 115.071309,108.373575 C115.72236,107.721803 115.72236,106.635516 115.071309,105.983745 L111.816056,102.507628 Z" id="Shape" fill="#7FECFF"></path>
                    <path d="M104.003448,104.680201 C104.654498,104.028429 104.654498,102.942143 104.003448,102.290371 C103.352397,101.638599 102.267313,101.638599 101.616262,102.290371 L98.1439915,105.766487 C97.4929409,106.418259 97.4929409,107.504546 98.1439915,108.156317 C98.3610084,108.373575 98.7950422,108.590832 99.229076,108.590832 C99.6631098,108.590832 100.097144,108.373575 100.314161,108.156317 L104.003448,104.680201 Z" id="Shape" fill="#7FECFF"></path>
                    <path d="M113.118157,90.9929921 L109.42887,94.4691086 C108.777819,95.1208805 108.777819,96.2071669 109.42887,96.8589387 C109.645887,97.076196 110.079921,97.2934533 110.513955,97.2934533 C110.947988,97.2934533 111.382022,97.076196 111.599039,96.8589387 L115.071309,93.3828222 C115.72236,92.7310504 115.72236,91.6447639 115.071309,90.9929921 C114.637276,90.3412202 113.552191,90.3412202 113.118157,90.9929921 Z" id="Shape" fill="#7FECFF"></path>
                    <path d="M329.382724,127.472191 C329.599741,127.689448 330.033775,127.906706 330.467809,127.906706 C330.901843,127.906706 331.335876,127.689448 331.552893,127.472191 C332.203944,126.820419 332.203944,125.734133 331.552893,125.082361 L328.080623,121.606244 C327.429572,120.954473 326.344488,120.954473 325.693437,121.606244 C325.042386,122.258016 325.042386,123.344303 325.693437,123.996075 L329.382724,127.472191 Z" id="Shape" fill="#7FECFF"></path>
                    <path d="M339.582518,132.903623 C338.931468,132.251851 337.846383,132.251851 337.195333,132.903623 C336.544282,133.555395 336.544282,134.641681 337.195333,135.293453 L340.667603,138.76957 C340.88462,138.986827 341.318654,139.204084 341.752687,139.204084 C342.186721,139.204084 342.620755,138.986827 342.837772,138.76957 C343.488823,138.117798 343.488823,137.031512 342.837772,136.37974 L339.582518,132.903623 Z" id="Shape" fill="#7FECFF"></path>
                    <path d="M326.995539,139.204084 C327.429572,139.204084 327.863606,138.986827 328.080623,138.76957 L331.552893,135.293453 C332.203944,134.641681 332.203944,133.555395 331.552893,132.903623 C330.901843,132.251851 329.816758,132.251851 329.165707,132.903623 L325.693437,136.37974 C325.042386,137.031512 325.042386,138.117798 325.693437,138.76957 C326.127471,139.204084 326.561505,139.204084 326.995539,139.204084 Z" id="Shape" fill="#7FECFF"></path>
                    <path d="M343.054789,121.606244 C342.403738,120.954473 341.318654,120.954473 340.667603,121.606244 L337.195333,125.082361 C336.544282,125.734133 336.544282,126.820419 337.195333,127.472191 C337.412349,127.689448 337.846383,127.906706 338.280417,127.906706 C338.714451,127.906706 339.148485,127.689448 339.365502,127.472191 L342.837772,123.996075 C343.705839,123.127045 343.705839,122.258016 343.054789,121.606244 Z" id="Shape" fill="#7FECFF"></path>
                    <path d="M97.9831362,225.140882 C97.3320855,224.48911 96.247001,224.48911 95.5959503,225.140882 C94.9448997,225.792654 94.9448997,226.87894 95.5959503,227.530712 L98.2001531,230.1378 C98.41717,230.355057 98.8512038,230.572314 99.2852376,230.572314 C99.7192714,230.572314 100.153305,230.355057 100.370322,230.1378 C101.021373,229.486028 101.021373,228.399741 100.370322,227.747969 L97.9831362,225.140882 Z" id="Shape" fill="#7FECFF"></path>
                    <path d="M106.880829,233.831173 C106.229778,233.179401 105.144694,233.179401 104.493643,233.831173 C103.842592,234.482945 103.842592,235.569232 104.493643,236.221003 L107.097846,238.828091 C107.314863,239.045348 107.748896,239.262605 108.18293,239.262605 C108.616964,239.262605 109.050998,239.045348 109.268015,238.828091 C109.919065,238.176319 109.919065,237.090033 109.268015,236.438261 L106.880829,233.831173 Z" id="Shape" fill="#7FECFF"></path>
                    <path d="M98.41717,233.831173 L95.8129672,236.438261 C95.1619166,237.090033 95.1619166,238.176319 95.8129672,238.828091 C96.0299841,239.045348 96.4640179,239.262605 96.8980517,239.262605 C97.3320855,239.262605 97.7661193,239.045348 97.9831362,238.828091 L100.587339,236.221003 C101.23839,235.569232 101.23839,234.482945 100.587339,233.831173 C100.153305,233.179401 99.0682207,233.179401 98.41717,233.831173 Z" id="Shape" fill="#7FECFF"></path>
                    <path d="M107.097846,225.140882 L104.493643,227.747969 C103.842592,228.399741 103.842592,229.486028 104.493643,230.1378 C104.71066,230.355057 105.144694,230.572314 105.578728,230.572314 C106.012761,230.572314 106.446795,230.355057 106.663812,230.1378 L109.268015,227.530712 C109.919065,226.87894 109.919065,225.792654 109.268015,225.140882 C108.833981,224.48911 107.748896,224.48911 107.097846,225.140882 Z" id="Shape" fill="#7FECFF"></path>
                    <path d="M194.976927,370.746424 C194.325876,370.094652 193.240792,370.094652 192.589741,370.746424 C191.938691,371.398196 191.938691,372.484483 192.589741,373.136254 L195.193944,375.743342 C195.410961,375.960599 195.844995,376.177856 196.279029,376.177856 C196.713062,376.177856 197.147096,375.960599 197.364113,375.743342 C198.015164,375.09157 198.015164,374.005284 197.364113,373.353512 L194.976927,370.746424 Z" id="Shape" fill="#7FECFF"></path>
                    <path d="M203.87462,379.436716 C203.223569,378.784944 202.138485,378.784944 201.487434,379.436716 C200.836383,380.088487 200.836383,381.174774 201.487434,381.826546 L204.091637,384.433633 C204.308654,384.65089 204.742687,384.868148 205.176721,384.868148 C205.610755,384.868148 206.044789,384.65089 206.261806,384.433633 C206.912856,383.781861 206.912856,382.695575 206.261806,382.043803 L203.87462,379.436716 Z" id="Shape" fill="#7FECFF"></path>
                    <path d="M195.410961,379.436716 L192.806758,382.043803 C192.155707,382.695575 192.155707,383.781861 192.806758,384.433633 C193.023775,384.65089 193.457809,384.868148 193.891843,384.868148 C194.325876,384.868148 194.75991,384.65089 194.976927,384.433633 L197.58113,381.826546 C198.232181,381.174774 198.232181,380.088487 197.58113,379.436716 C197.147096,378.784944 196.062012,378.784944 195.410961,379.436716 Z" id="Shape" fill="#7FECFF"></path>
                    <path d="M204.091637,370.746424 L201.487434,373.353512 C200.836383,374.005284 200.836383,375.09157 201.487434,375.743342 C201.704451,375.960599 202.138485,376.177856 202.572518,376.177856 C203.006552,376.177856 203.440586,375.960599 203.657603,375.743342 L206.261806,373.136254 C206.912856,372.484483 206.912856,371.398196 206.261806,370.746424 C205.827772,370.094652 204.742687,370.094652 204.091637,370.746424 Z" id="Shape" fill="#7FECFF"></path>
                    <path d="M508.306435,109.689831 C507.655384,109.038059 506.5703,109.038059 505.919249,109.689831 C505.268198,110.341603 505.268198,111.427889 505.919249,112.079661 L508.523452,114.686748 C508.740469,114.904006 509.174502,115.121263 509.608536,115.121263 C510.04257,115.121263 510.476604,114.904006 510.693621,114.686748 C511.344671,114.034976 511.344671,112.94869 510.693621,112.296918 L508.306435,109.689831 Z" id="Shape" fill="#7FECFF"></path>
                    <path d="M516.408399,118.959475 C515.757348,118.307703 514.672264,118.307703 514.021213,118.959475 C513.370162,119.611247 513.370162,120.697533 514.021213,121.349305 L516.625416,123.956392 C516.842433,124.17365 517.276466,124.390907 517.7105,124.390907 C518.144534,124.390907 518.578568,124.17365 518.795585,123.956392 C519.446635,123.304621 519.446635,122.218334 518.795585,121.566562 L516.408399,118.959475 Z" id="Shape" fill="#7FECFF"></path>
                    <path d="M508.523452,118.959475 L505.919249,121.566562 C505.268198,122.218334 505.268198,123.304621 505.919249,123.956392 C506.136266,124.17365 506.5703,124.390907 507.004333,124.390907 C507.438367,124.390907 507.872401,124.17365 508.089418,123.956392 L510.693621,121.349305 C511.344671,120.697533 511.344671,119.611247 510.693621,118.959475 C510.259587,118.307703 509.174502,118.307703 508.523452,118.959475 Z" id="Shape" fill="#7FECFF"></path>
                    <path d="M516.625416,109.689831 L514.021213,112.296918 C513.370162,112.94869 513.370162,114.034976 514.021213,114.686748 C514.23823,114.904006 514.672264,115.121263 515.106297,115.121263 C515.540331,115.121263 515.974365,114.904006 516.191382,114.686748 L518.795585,112.079661 C519.446635,111.427889 519.446635,110.341603 518.795585,109.689831 C518.361551,109.038059 517.276466,109.038059 516.625416,109.689831 Z" id="Shape" fill="#7FECFF"></path>
                    <path d="M454.710487,0 C448.208959,0 442.945817,5.26897167 442.945817,11.7777014 C442.945817,18.2864311 448.208959,23.5554027 454.710487,23.5554027 C461.212015,23.5554027 466.475156,18.2864311 466.475156,11.7777014 C466.784753,5.26897167 461.212015,0 454.710487,0 Z M454.710487,18.9063101 C450.685731,18.9063101 447.589766,15.806915 447.589766,11.7777014 C447.589766,7.74848774 450.685731,4.64909265 454.710487,4.64909265 C458.735242,4.64909265 461.831208,7.74848774 461.831208,11.7777014 C461.831208,15.806915 458.735242,18.9063101 454.710487,18.9063101 Z" id="Shape" fill="#FFCE5B"></path>
                    <path d="M98.3962733,386 C94.9469691,386 91.9034654,388.84375 91.9034654,392.5 C91.9034654,395.953125 94.7440689,399 98.3962733,399 C102.048478,399 104.889081,396.15625 104.889081,392.5 C104.889081,388.84375 102.048478,386 98.3962733,386 Z M98.3962733,395.75 C96.5701711,395.75 94.9469691,394.328125 94.9469691,392.296875 C94.9469691,390.46875 96.3672709,388.84375 98.3962733,388.84375 C100.425276,388.84375 101.845578,390.265625 101.845578,392.296875 C101.845578,394.328125 100.425276,395.75 98.3962733,395.75 Z" id="Shape" fill="#FFCE5B"></path>
                    <path d="M34.9511795,174 C28.0779191,174 22.0132776,179.666602 22.0132776,186.952233 C22.0132776,193.833107 27.6736097,199.904466 34.9511795,199.904466 C42.2287492,199.904466 47.8890813,194.237864 47.8890813,186.952233 C47.8890813,179.666602 42.2287492,174 34.9511795,174 Z M34.9511795,193.42835 C31.3123946,193.42835 28.0779191,190.595049 28.0779191,186.547476 C28.0779191,182.90466 30.9080851,179.666602 34.9511795,179.666602 C38.9942738,179.666602 41.8244398,182.499903 41.8244398,186.547476 C41.8244398,190.595049 38.9942738,193.42835 34.9511795,193.42835 Z" id="Shape" fill="#FFCE5B"></path>
                    <path d="M207.161558,76.3389807 C211.067862,76.3389807 214.323115,73.0801215 214.323115,69.1694904 C214.323115,65.2588593 211.067862,62 207.161558,62 C203.255253,62 200,65.2588593 200,69.1694904 C200,73.2973787 203.255253,76.3389807 207.161558,76.3389807 Z M207.161558,65.2588593 C209.331727,65.2588593 211.067862,66.9969175 211.067862,69.1694904 C211.067862,71.3420632 209.331727,73.0801215 207.161558,73.0801215 C204.991389,73.0801215 203.255253,71.3420632 203.255253,69.1694904 C203.255253,66.9969175 204.991389,65.2588593 207.161558,65.2588593 Z" id="Shape" fill="#FFCE5B"></path>
                    <path d="M379.441288,324.959062 L355.135396,324.959062 C354.267328,324.959062 353.399261,325.610834 353.399261,326.69712 C353.399261,327.783406 354.050311,328.435178 355.135396,328.435178 L379.441288,328.435178 C380.309356,328.435178 381.177423,327.783406 381.177423,326.69712 C381.177423,325.610834 380.309356,324.959062 379.441288,324.959062 Z" id="Shape" fill="#0065C3"></path>
                    <path d="M339.510179,324.959062 C338.642112,324.959062 337.774044,325.610834 337.774044,326.69712 C337.774044,327.783406 338.425095,328.435178 339.510179,328.435178 L347.322788,328.435178 C348.190855,328.435178 349.058923,327.783406 349.058923,326.69712 C349.058923,325.610834 348.407872,324.959062 347.322788,324.959062 L339.510179,324.959062 Z" id="Shape" fill="#0065C3"></path>
                    <path d="M356.437497,333.214838 L339.510179,333.214838 C338.642112,333.214838 337.774044,333.86661 337.774044,334.952897 C337.774044,336.039183 338.425095,336.690955 339.510179,336.690955 L356.437497,336.690955 C357.305565,336.690955 358.173632,336.039183 358.173632,334.952897 C358.173632,333.86661 357.305565,333.214838 356.437497,333.214838 Z" id="Shape" fill="#0065C3"></path>
                    <path d="M369.024477,333.214838 L363.599055,333.214838 C362.730987,333.214838 361.86292,333.86661 361.86292,334.952897 C361.86292,336.039183 362.51397,336.690955 363.599055,336.690955 L369.024477,336.690955 C369.892545,336.690955 370.760612,336.039183 370.760612,334.952897 C370.760612,333.86661 369.892545,333.214838 369.024477,333.214838 Z" id="Shape" fill="#0065C3"></path>
                    <path d="M26.7605966,325.828091 L2.45470433,325.828091 C1.58663674,325.828091 0.718569163,326.479863 0.718569163,327.566149 C0.718569163,328.435178 1.36961985,329.304207 2.45470433,329.304207 L26.7605966,329.304207 C27.6286642,329.304207 28.4967318,328.652436 28.4967318,327.566149 C28.2797149,326.479863 27.6286642,325.828091 26.7605966,325.828091 Z" id="Shape" fill="#0065C3"></path>
                    <path d="M42.3858131,325.828091 L34.5732049,325.828091 C33.7051373,325.828091 32.8370697,326.479863 32.8370697,327.566149 C32.8370697,328.435178 33.4881204,329.304207 34.5732049,329.304207 L42.3858131,329.304207 C43.2538807,329.304207 44.1219482,328.652436 44.1219482,327.566149 C44.1219482,326.479863 43.4708976,325.828091 42.3858131,325.828091 Z" id="Shape" fill="#0065C3"></path>
                    <path d="M42.3858131,317.355057 L25.4584952,317.355057 C24.5904277,317.355057 23.7223601,318.006829 23.7223601,319.093115 C23.7223601,320.179401 24.3734108,320.831173 25.4584952,320.831173 L42.3858131,320.831173 C43.2538807,320.831173 44.1219482,320.179401 44.1219482,319.093115 C44.1219482,318.006829 43.4708976,317.355057 42.3858131,317.355057 Z" id="Shape" fill="#0065C3"></path>
                    <path d="M18.2969377,320.613916 C19.1650053,320.613916 20.0330729,319.962144 20.0330729,318.875858 C20.0330729,317.789571 19.3820222,317.1378 18.2969377,317.1378 L12.8715153,317.1378 C12.0034477,317.1378 11.1353801,317.789571 11.1353801,318.875858 C11.1353801,319.962144 11.7864308,320.613916 12.8715153,320.613916 L18.2969377,320.613916 Z" id="Shape" fill="#0065C3"></path>
                    <path d="M412.1385,382.894337 L387.832608,382.894337 C386.964541,382.894337 386.096473,383.546109 386.096473,384.632396 C386.096473,385.501425 386.747524,386.370454 387.832608,386.370454 L412.1385,386.370454 C413.006568,386.370454 413.874636,385.718682 413.874636,384.632396 C413.657619,383.546109 413.006568,382.894337 412.1385,382.894337 Z" id="Shape" fill="#0065C3"></path>
                    <path d="M428.053073,382.894337 L420.240465,382.894337 C419.372397,382.894337 418.504329,383.546109 418.504329,384.632396 C418.504329,385.501425 419.15538,386.370454 420.240465,386.370454 L428.053073,386.370454 C428.92114,386.370454 429.789208,385.718682 429.789208,384.632396 C429.789208,383.546109 429.138157,382.894337 428.053073,382.894337 Z" id="Shape" fill="#0065C3"></path>
                    <path d="M427.908395,373.624693 L410.981077,373.624693 C410.113009,373.624693 409.244942,374.276465 409.244942,375.362751 C409.244942,376.449038 409.895993,377.10081 410.981077,377.10081 L427.908395,377.10081 C428.776462,377.10081 429.64453,376.449038 429.64453,375.362751 C429.64453,374.276465 428.993479,373.624693 427.908395,373.624693 Z" id="Shape" fill="#0065C3"></path>
                    <path d="M403.674842,377.10081 C404.542909,377.10081 405.410977,376.449038 405.410977,375.362751 C405.410977,374.276465 404.759926,373.624693 403.674842,373.624693 L398.249419,373.624693 C397.381352,373.624693 396.513284,374.276465 396.513284,375.362751 C396.513284,376.449038 397.164335,377.10081 398.249419,377.10081 L403.674842,377.10081 Z" id="Shape" fill="#0065C3"></path>
                    <path d="M335.459197,98.7942297 L359.76509,98.7942297 C360.633157,98.7942297 361.501225,98.1424579 361.501225,97.0561714 C361.501225,96.1871423 360.850174,95.3181132 359.76509,95.3181132 L335.459197,95.3181132 C334.59113,95.3181132 333.723062,95.969885 333.723062,97.0561714 C333.723062,97.9252006 334.59113,98.7942297 335.459197,98.7942297 Z" id="Shape" fill="#0065C3"></path>
                    <path d="M367.577698,98.7942297 L375.390306,98.7942297 C376.258374,98.7942297 377.126441,98.1424579 377.126441,97.0561714 C377.126441,96.1871423 376.475391,95.3181132 375.390306,95.3181132 L367.577698,95.3181132 C366.70963,95.3181132 365.841563,95.969885 365.841563,97.0561714 C365.841563,97.9252006 366.70963,98.7942297 367.577698,98.7942297 Z" id="Shape" fill="#0065C3"></path>
                    <path d="M375.390306,103.791147 L358.462988,103.791147 C357.594921,103.791147 356.726853,104.442919 356.726853,105.529205 C356.726853,106.398235 357.377904,107.267264 358.462988,107.267264 L375.390306,107.267264 C376.258374,107.267264 377.126441,106.615492 377.126441,105.529205 C377.126441,104.442919 376.258374,103.791147 375.390306,103.791147 Z" id="Shape" fill="#0065C3"></path>
                    <path d="M345.876008,103.791147 C345.007941,103.791147 344.139873,104.442919 344.139873,105.529205 C344.139873,106.398235 344.790924,107.267264 345.876008,107.267264 L351.301431,107.267264 C352.169498,107.267264 353.037566,106.615492 353.037566,105.529205 C353.037566,104.660176 352.386515,103.791147 351.301431,103.791147 L345.876008,103.791147 Z" id="Shape" fill="#0065C3"></path>
                    <path d="M298.132291,336.039183 L289.017582,336.039183 L281.639007,302.147047 L362.803326,302.147047 C369.964884,302.147047 375.607323,296.2811 375.607323,289.328867 L375.607323,167.664789 C375.607323,160.495298 369.747867,154.846609 362.803326,154.846609 L321.136082,154.846609 C318.965913,153.325808 316.795744,152.022264 314.191542,150.935978 C300.519477,144.635516 293.574937,128.34122 290.970734,121.606244 C289.017582,110.308866 284.894261,99.2287443 278.817788,88.8003947 C278.817788,88.5831374 278.600771,88.3658801 278.600771,88.3658801 C277.081653,85.5415354 275.128501,82.4999335 273.175348,79.6755888 L271.222196,76.8512441 C270.571146,75.9822149 269.052027,75.9822149 268.617994,76.8512441 L266.664842,79.6755888 C264.71169,82.4999335 262.758537,85.5415354 261.022402,88.5831374 L261.022402,88.5831374 C261.022402,88.5831374 261.022402,88.5831374 261.022402,88.8003947 C257.333115,95.1008559 254.511895,101.835832 252.341726,108.570807 C250.822608,112.915953 249.737524,117.261099 249.086473,121.606244 L249.086473,121.606244 C246.699287,127.906706 239.53773,144.201002 225.865665,150.71872 C223.478479,151.805007 221.091294,153.325808 218.921125,154.629352 L177.253881,154.629352 C170.092323,154.629352 164.449884,160.495298 164.449884,167.447531 L164.449884,289.11161 C164.449884,296.2811 170.30934,301.92979 177.253881,301.92979 L258.4182,301.92979 L251.256642,336.039183 L242.141932,336.039183 C237.801594,336.039183 234.329324,339.5153 234.329324,343.860445 C234.329324,348.205591 237.801594,351.681708 242.141932,351.681708 L298.132291,351.681708 C302.472629,351.681708 305.9449,348.205591 305.9449,343.860445 C305.9449,339.5153 302.472629,336.039183 298.132291,336.039183 Z M312.88944,153.543065 C315.276626,154.629352 317.663812,156.150153 319.833981,157.453696 C332.854995,166.578502 336.327265,179.613939 337.195333,184.393599 L291.838801,184.393599 L291.838801,163.971415 C291.838801,162.667871 291.838801,161.581585 291.621785,160.278041 C291.621785,160.278041 291.621785,160.278041 291.621785,160.060784 C291.404768,158.974497 291.187751,157.670954 290.970734,156.584667 L290.970734,156.36741 C292.055818,150.501463 292.706869,144.418259 292.706869,138.335055 C292.706869,136.37974 292.706869,134.207167 292.489852,132.251851 C296.613173,140.073114 303.12368,148.980662 312.88944,153.543065 Z M286.413379,196.125493 L281.42199,196.125493 L281.42199,196.125493 L281.42199,196.125493 C280.119889,196.125493 279.251822,195.039206 279.251822,193.735663 L279.251822,186.131658 L279.251822,186.131658 L279.251822,186.131658 L279.251822,164.188672 C279.251822,161.798842 279.685855,159.191754 280.336906,156.801924 C280.336906,156.36741 280.553923,155.932895 280.77094,155.715638 C281.639007,153.325808 282.724092,150.935978 284.24321,148.546148 C285.979345,151.370492 287.281447,153.97758 287.932497,156.801924 L287.932497,157.019182 C288.583548,159.409012 288.800565,161.581585 288.800565,164.188672 L288.800565,186.131658 L288.800565,193.735663 C288.583548,195.039206 287.71548,196.125493 286.413379,196.125493 Z M253.860845,196.125493 C252.558743,196.125493 251.690676,195.039206 251.690676,193.735663 L251.690676,186.131658 L251.690676,164.188672 C251.690676,161.798842 251.907693,159.409012 252.558743,157.236439 C252.558743,157.019182 252.558743,157.019182 252.77576,156.801924 C252.77576,156.36741 252.992777,155.932895 253.209794,155.715638 C254.077862,153.325808 255.162946,150.935978 256.682064,148.546148 C258.4182,151.153235 259.720301,153.97758 260.371352,156.801924 C261.022402,159.191754 261.456436,161.798842 261.456436,164.188672 L261.456436,193.735663 C261.456436,195.039206 260.371352,196.125493 259.286267,196.125493 L253.860845,196.125493 Z M264.277656,161.364327 C264.277656,161.14707 264.277656,160.929813 264.277656,160.712555 C264.277656,159.843526 264.060639,158.974497 263.843622,157.888211 L263.843622,157.888211 L276.647619,157.888211 L276.647619,157.888211 C276.430602,158.75724 276.430602,159.626269 276.213585,160.495298 C276.213585,160.712555 276.213585,160.929813 276.213585,161.14707 C276.213585,162.016099 275.996568,162.885128 275.996568,163.971415 L275.996568,184.393599 L264.277656,184.393599 L264.277656,163.971415 C264.277656,163.102386 264.277656,162.233356 264.277656,161.364327 Z M264.277656,193.735663 L264.277656,187.869716 L275.779551,187.869716 L275.779551,193.735663 C275.779551,196.34275 277.298669,198.298065 279.685855,199.167095 C279.468838,203.077726 278.166737,214.809619 270.137112,223.065396 C261.89047,214.809619 260.805385,202.860468 260.588369,199.167095 C262.758537,198.298065 264.277656,196.34275 264.277656,193.735663 Z M269.486061,81.1963898 L270.137112,80.3273606 L270.788163,81.1963898 C272.307281,83.3689626 273.392365,85.3242781 274.694467,87.496851 L265.579757,87.496851 C266.881858,85.1070209 268.18396,83.1517053 269.486061,81.1963898 Z M255.59698,109.222579 C257.550132,102.922118 260.371352,96.6216569 263.843622,90.7557102 L276.647619,90.7557102 C282.290058,100.966803 286.196362,111.395152 288.149514,122.258016 L288.149514,122.258016 C289.017582,127.472191 289.668633,133.12088 289.668633,138.552313 C289.668633,142.462944 289.451616,146.373575 288.800565,150.284206 C287.932497,148.763405 287.06443,147.025347 285.979345,145.504546 L285.328295,144.635516 C285.111278,144.201002 284.460227,143.983745 284.026193,143.983745 C283.592159,143.983745 282.941109,144.201002 282.724092,144.635516 L282.073041,145.504546 C280.119889,148.32889 278.600771,151.370492 277.515686,154.629352 L277.515686,154.846609 L262.975554,154.846609 C261.89047,151.58775 260.371352,148.546148 258.4182,145.504546 L257.767149,144.635516 C257.550132,144.201002 256.899081,143.983745 256.465048,143.983745 C256.031014,143.983745 255.379963,144.201002 255.162946,144.635516 L254.511895,145.504546 C253.426811,147.025347 252.558743,148.763405 251.690676,150.284206 C251.256642,146.373575 250.822608,142.462944 250.822608,138.552313 C250.822608,128.558478 252.341726,118.7819 255.59698,109.222579 Z M227.384784,153.543065 C237.150544,148.980662 243.661051,139.855856 247.784372,132.251851 C247.567355,134.207167 247.567355,136.37974 247.567355,138.335055 C247.567355,144.418259 248.218405,150.501463 249.30349,156.36741 C248.652439,158.75724 248.435422,161.364327 248.435422,163.971415 L248.435422,184.393599 L203.078891,184.393599 C203.946959,179.613939 207.419229,166.578502 220.440243,157.453696 L220.440243,157.453696 L220.440243,157.453696 C222.610412,156.150153 224.780581,154.846609 227.384784,153.543065 Z M177.253881,157.888211 L214.797804,157.888211 C214.36377,158.322725 213.929736,158.539983 213.712719,158.974497 C213.278685,159.191754 213.061668,159.626269 212.627635,159.843526 C212.193601,160.278041 211.54255,160.929813 211.108516,161.364327 C210.891499,161.581585 210.674483,162.016099 210.240449,162.233356 C209.589398,162.885128 209.155364,163.5369 208.721331,164.188672 C208.504314,164.405929 208.504314,164.405929 208.287297,164.623187 C207.636246,165.492216 206.985195,166.361245 206.551162,167.013017 C206.334145,167.230274 206.334145,167.447531 206.117128,167.664789 C205.683094,168.31656 205.466077,168.751075 205.032043,169.402847 C204.815026,169.620104 204.598009,170.054619 204.598009,170.271876 C204.380993,170.706391 204.163976,171.358162 203.729942,171.792677 C203.512925,172.227191 203.512925,172.444449 203.295908,172.661706 C203.078891,173.096221 202.861874,173.530735 202.644857,173.96525 C202.427841,174.182507 202.427841,174.617022 202.210824,174.834279 C201.993807,175.268793 201.77679,175.703308 201.77679,176.137823 C201.559773,176.35508 201.559773,176.789594 201.559773,177.006852 C201.342756,177.441366 201.342756,177.875881 201.125739,178.093138 C201.125739,178.310395 200.908722,178.74491 200.908722,178.962167 C200.908722,179.396682 200.691705,179.613939 200.691705,180.048454 C200.691705,180.265711 200.474688,180.482968 200.474688,180.700226 C200.474688,180.917483 200.257672,181.351997 200.257672,181.569255 C200.257672,181.786512 200.257672,182.003769 200.040655,182.221027 C200.040655,182.438284 199.823638,182.872798 199.823638,183.090056 C199.823638,183.307313 199.823638,183.52457 199.823638,183.52457 C199.823638,183.741828 199.823638,183.959085 199.823638,184.176342 C199.823638,184.610857 199.823638,184.828114 199.823638,184.828114 C199.823638,185.262628 199.823638,185.262628 199.823638,185.262628 C199.823638,185.697143 200.040655,186.131658 200.257672,186.566172 C200.474688,187.000687 200.908722,187.000687 201.559773,187.000687 L248.652439,187.000687 L248.652439,192.866633 C248.652439,195.256464 250.171558,197.429036 252.341726,198.080808 C250.388574,207.422871 245.397186,215.026876 241.707899,219.154765 C241.273865,216.982192 240.18878,215.026876 238.452645,213.723333 C236.71651,212.419789 234.546341,211.985274 232.376172,212.419789 C231.508105,207.205614 227.167767,203.294983 221.959361,203.294983 C221.091294,203.294983 220.223226,203.51224 219.355158,203.729498 C219.138141,201.12241 217.619023,198.515323 215.231837,197.429036 C213.495702,196.777265 211.759567,196.777265 210.023432,197.429036 C209.155364,197.863551 208.504314,198.298065 207.853263,198.949837 C206.768178,197.211779 205.032043,196.125493 203.078891,195.690978 C201.125739,195.256464 198.95557,195.690978 197.219435,196.777265 C195.266283,198.080808 194.181199,199.818866 193.747165,202.208697 C193.530148,203.077726 194.181199,203.946755 195.049266,204.164012 C195.917334,204.381269 196.785401,203.729498 197.002418,202.860468 C197.219435,201.556925 198.087503,200.253381 199.172587,199.601609 C200.257672,198.949837 201.342756,198.73258 202.644857,198.949837 C205.24906,199.601609 206.985195,202.208697 206.334145,205.033041 C206.117128,205.90207 206.768178,206.7711 207.636246,206.988357 C208.721331,206.988357 209.372381,206.553842 209.372381,205.684813 C209.589398,204.815784 209.589398,203.729498 209.372381,202.860468 C209.806415,201.774182 210.457466,201.12241 211.325533,200.687896 C212.193601,200.253381 213.061668,200.253381 213.929736,200.687896 C215.882888,201.556925 216.750956,203.729498 215.882888,205.684813 C215.01482,206.336585 214.146753,207.205614 213.495702,208.074643 C213.061668,208.726415 213.278685,209.812702 213.929736,210.247216 C214.580787,210.681731 215.665871,210.464473 216.099905,209.812702 C217.402006,207.857386 219.572175,206.7711 221.742344,206.7711 C225.648648,206.7711 228.686885,210.029959 228.686885,214.157847 C228.035834,214.809619 227.384784,215.461391 226.733733,216.113163 C226.299699,216.764935 226.516716,217.851221 227.167767,218.285736 C227.818817,218.72025 228.903902,218.502993 229.337936,217.851221 C229.988986,216.764935 231.074071,215.895905 232.376172,215.678648 C233.678273,215.461391 234.763358,215.678648 235.848442,216.547677 C238.018611,218.068478 238.669662,221.327338 237.150544,223.717168 C236.71651,224.368939 236.933527,225.237969 237.367561,225.88974 C237.584578,226.106998 238.018611,226.324255 238.452645,226.324255 C238.886679,226.324255 239.320713,226.106998 239.53773,225.88974 C239.971763,225.455226 251.907693,214.592362 254.945929,198.73258 L256.899081,198.73258 C257.116098,203.294983 258.635216,216.764935 268.617994,225.88974 C268.835011,226.106998 269.269044,226.324255 269.703078,226.324255 C270.137112,226.324255 270.571146,226.106998 270.788163,225.88974 C280.77094,216.764935 282.290058,203.294983 282.507075,198.73258 L284.677244,198.73258 C287.71548,214.809619 299.65141,225.455226 300.085443,225.88974 C300.30246,226.106998 300.736494,226.324255 301.170528,226.324255 C301.604562,226.324255 302.038596,226.106998 302.255612,225.88974 C302.906663,225.455226 302.906663,224.368939 302.472629,223.717168 C300.953511,221.327338 301.604562,218.285736 303.774731,216.547677 C304.859815,215.895905 305.9449,215.461391 307.247001,215.678648 C308.549102,215.895905 309.634187,216.764935 310.285238,217.851221 C310.719271,218.502993 311.804356,218.72025 312.455407,218.285736 C313.106457,217.851221 313.323474,216.764935 312.88944,216.113163 C312.455407,215.244134 311.804356,214.592362 310.936288,214.157847 C310.936288,210.029959 314.191542,206.7711 317.880829,206.7711 C320.050998,206.7711 322.221167,207.857386 323.523268,209.812702 C323.957302,210.464473 325.042386,210.681731 325.693437,210.247216 C326.344488,209.812702 326.561505,208.726415 326.127471,208.074643 C325.47642,207.205614 324.608353,206.336585 323.740285,205.684813 C322.872218,203.729498 323.957302,201.339667 325.693437,200.687896 C326.561505,200.253381 327.429572,200.253381 328.29764,200.687896 C329.165707,201.12241 330.033775,201.774182 330.250792,202.860468 C330.033775,203.729498 330.033775,204.815784 330.250792,205.684813 C330.467809,206.553842 331.11886,206.988357 331.76991,206.988357 C332.854995,206.7711 333.506045,205.90207 333.289028,205.033041 C332.854995,202.208697 334.374113,199.601609 336.978316,198.949837 C338.0634,198.73258 339.365502,198.949837 340.450586,199.601609 C341.535671,200.253381 342.403738,201.556925 342.620755,202.860468 C342.837772,203.729498 343.705839,204.381269 344.573907,204.164012 C345.441975,203.946755 346.093025,203.077726 345.876008,202.208697 C345.441975,200.036124 344.139873,198.080808 342.403738,196.777265 C340.667603,195.690978 338.497434,195.256464 336.544282,195.690978 C334.59113,196.125493 332.854995,197.429036 331.76991,198.949837 C331.11886,198.298065 330.467809,197.863551 329.599741,197.429036 C327.863606,196.777265 326.127471,196.777265 324.391336,197.429036 C321.787133,198.515323 320.268015,201.12241 320.268015,203.729498 C319.399947,203.51224 318.53188,203.294983 317.663812,203.294983 C312.455407,203.294983 308.115069,207.422871 307.464018,212.419789 C305.076832,211.985274 303.12368,212.419789 301.170528,213.723333 C300.519477,216.113163 299.434393,218.068478 299.000359,220.241051 C295.311072,215.895905 290.102666,208.291901 288.366531,199.167095 C290.319683,198.298065 291.838801,196.34275 291.838801,193.95292 L291.838801,188.086973 L338.931468,188.086973 C339.365502,188.086973 339.799535,187.869716 340.233569,187.652459 C340.450586,187.217944 340.667603,186.783429 340.667603,186.348915 C340.667603,186.131658 340.667603,186.131658 340.667603,185.9144 C340.667603,185.697143 340.667603,185.697143 340.667603,185.479886 C340.667603,185.479886 340.667603,185.262628 340.667603,185.045371 C340.667603,184.828114 340.667603,184.610857 340.667603,184.393599 C340.667603,184.176342 340.667603,183.959085 340.667603,183.959085 C340.667603,183.741828 340.667603,183.52457 340.450586,183.090056 C340.450586,182.872798 340.450586,182.655541 340.233569,182.438284 C340.233569,182.221027 340.016552,181.786512 340.016552,181.569255 C340.016552,181.351997 339.799535,181.13474 339.799535,180.700226 C339.799535,180.482968 339.582518,180.048454 339.582518,179.613939 C339.582518,179.396682 339.365502,178.962167 339.365502,178.74491 C339.148485,178.310395 339.148485,178.093138 338.931468,177.658624 C338.714451,177.441366 338.714451,177.006852 338.497434,176.789594 C338.280417,176.35508 338.280417,176.137823 338.0634,175.703308 C337.846383,175.268793 337.846383,175.051536 337.629366,174.617022 C337.412349,174.182507 337.195333,173.747992 336.978316,173.313478 C336.761299,172.878963 336.544282,172.661706 336.544282,172.227191 C336.327265,171.792677 336.110248,171.358162 335.893231,170.923648 C335.676214,170.489133 335.459197,170.271876 335.242181,169.837361 C335.025164,169.402847 334.59113,168.968332 334.374113,168.31656 C334.157096,167.882046 333.940079,167.664789 333.723062,167.230274 C333.289028,166.361245 332.637978,165.709473 331.986927,164.840444 C331.76991,164.623187 331.552893,164.405929 331.335876,163.971415 C330.901843,163.319643 330.467809,162.885128 330.033775,162.233356 C329.816758,161.798842 329.382724,161.581585 329.165707,161.14707 C328.731674,160.712555 328.29764,160.278041 327.863606,159.626269 C327.429572,159.191754 327.212555,158.974497 326.778522,158.539983 C326.344488,158.105468 326.127471,157.888211 325.693437,157.453696 L363.23736,157.453696 C368.445766,157.453696 372.786103,161.798842 372.786103,167.013017 L372.786103,272.600056 L167.705137,272.600056 L167.705137,167.664789 C167.705137,162.233356 172.045475,157.888211 177.253881,157.888211 Z M167.705137,289.11161 L167.705137,276.510688 L372.569087,276.510688 L372.569087,289.11161 C372.569087,294.325785 368.228749,298.67093 363.020343,298.67093 L177.253881,298.67093 C172.045475,298.888188 167.705137,294.543042 167.705137,289.11161 Z M261.89047,302.147047 L278.383754,302.147047 L285.762328,336.039183 L254.511895,336.039183 L261.89047,302.147047 Z M298.132291,348.422848 L242.141932,348.422848 C239.53773,348.422848 237.584578,346.467533 237.584578,343.860445 C237.584578,341.253358 239.53773,339.298042 242.141932,339.298042 L252.558743,339.298042 L287.71548,339.298042 L298.132291,339.298042 C300.736494,339.298042 302.689646,341.253358 302.689646,343.860445 C302.689646,346.467533 300.736494,348.422848 298.132291,348.422848 Z" id="Shape" stroke="#00396E" fill="#00396E"></path>
                    <path d="M290.102666,283.028406 L250.171558,283.028406 C247.567355,283.028406 245.397186,285.200979 245.397186,287.808066 C245.397186,290.415154 247.567355,292.587726 250.171558,292.587726 L290.102666,292.587726 C292.706869,292.587726 294.877038,290.415154 294.877038,287.808066 C294.877038,284.983722 292.706869,283.028406 290.102666,283.028406 Z M290.102666,289.328867 L250.171558,289.328867 C249.30349,289.328867 248.652439,288.677095 248.652439,287.808066 C248.652439,286.939037 249.30349,286.287265 250.171558,286.287265 L290.102666,286.287265 C290.970734,286.287265 291.621785,286.939037 291.621785,287.808066 C291.621785,288.677095 290.970734,289.328867 290.102666,289.328867 Z" id="Shape" fill="#00396E"></path>
                    <path d="M326.995539,174.834279 C327.212555,175.268793 327.863606,175.703308 328.29764,175.703308 C328.514657,175.703308 328.948691,175.703308 329.165707,175.486051 C330.033775,175.051536 330.250792,173.96525 329.599741,173.313478 C328.080623,170.706391 326.127471,168.31656 323.957302,166.143988 C323.306251,165.492216 322.221167,165.492216 321.570116,166.143988 C320.919065,166.795759 320.919065,167.882046 321.570116,168.533818 C323.740285,170.054619 325.47642,172.444449 326.995539,174.834279 Z" id="Shape" fill="#DFF0FF"></path>
                    <path d="M307.247001,158.105468 C307.681035,158.322725 308.115069,158.539983 308.549102,158.75724 C311.153305,160.060784 313.757508,161.581585 316.144694,163.102386 C316.361711,163.319643 316.795744,163.319643 317.012761,163.319643 C317.446795,163.319643 318.097846,163.102386 318.314863,162.667871 C318.748896,162.016099 318.748896,160.929813 317.880829,160.278041 C315.493643,158.539983 312.672423,156.801924 309.851204,155.498381 C309.41717,155.281123 308.983136,155.063866 308.549102,154.846609 C307.681035,154.412094 306.812967,154.629352 306.378933,155.498381 C306.161917,156.584667 306.59595,157.670954 307.247001,158.105468 Z" id="Shape" fill="#DFF0FF"></path>
                    <path d="M300.519477,153.325808 C300.736494,153.543065 301.170528,153.760322 301.604562,153.760322 C302.038596,153.760322 302.472629,153.543065 302.906663,153.108551 C303.557714,152.456779 303.340697,151.370492 302.689646,150.71872 C300.736494,148.980662 298.783342,147.025347 296.83019,144.635516 C296.179139,143.983745 295.311072,143.766487 294.443004,144.418259 C293.791954,145.070031 293.574937,145.93906 294.225987,146.808089 C296.396156,149.415177 298.349308,151.58775 300.519477,153.325808 Z" id="Shape" fill="#DFF0FF"></path>
                    <path d="M239.103696,153.760322 C239.53773,153.760322 239.754747,153.543065 240.18878,153.325808 C242.358949,151.370492 244.529118,149.197919 246.48227,146.808089 C247.133321,146.156317 246.916304,145.070031 246.265253,144.418259 C245.614203,143.766487 244.529118,143.983745 243.878068,144.635516 C242.141932,147.025347 240.18878,148.980662 238.018611,150.71872 C237.367561,151.370492 237.150544,152.239521 237.801594,153.108551 C238.235628,153.543065 238.669662,153.760322 239.103696,153.760322 Z" id="Shape" fill="#DFF0FF"></path>
                    <path d="M223.695496,163.5369 C224.12953,163.5369 224.346547,163.5369 224.563564,163.319643 C226.95075,161.581585 229.337936,160.060784 232.159155,158.974497 C232.593189,158.75724 233.027223,158.539983 233.461257,158.322725 C234.329324,157.888211 234.546341,156.801924 234.112307,156.150153 C233.678273,155.281123 232.593189,155.063866 231.942138,155.498381 C231.508105,155.715638 231.074071,155.932895 230.640037,156.150153 C227.818817,157.453696 224.997598,159.191754 222.610412,160.929813 C221.959361,161.364327 221.742344,162.450614 222.176378,163.319643 C222.610412,163.319643 223.044446,163.5369 223.695496,163.5369 Z" id="Shape" fill="#DFF0FF"></path>
                    <path d="M216.533939,165.92673 C214.36377,168.099303 212.627635,170.489133 210.891499,173.096221 C210.457466,173.96525 210.674483,174.834279 211.325533,175.268793 C211.54255,175.486051 211.976584,175.486051 212.193601,175.486051 C212.627635,175.486051 213.278685,175.268793 213.495702,174.617022 C215.01482,172.227191 216.750956,170.054619 218.704108,168.099303 C219.355158,167.447531 219.355158,166.361245 218.704108,165.709473 C218.270074,165.274958 217.184989,165.274958 216.533939,165.92673 Z" id="Shape" fill="#DFF0FF"></path>
                    <path d="M282.290058,132.469109 C282.290058,133.338138 282.941109,134.207167 283.809176,134.207167 L283.809176,134.207167 C284.677244,134.207167 285.545311,133.555395 285.545311,132.686366 C285.545311,118.347385 277.94972,101.401317 277.732703,100.749545 C277.298669,99.8805161 276.430602,99.6632588 275.562534,99.8805161 C274.694467,100.315031 274.47745,101.18406 274.694467,102.053089 C274.911484,102.053089 282.290058,118.7819 282.290058,132.469109 Z" id="Shape" fill="#DFF0FF"></path>
                    <path d="M256.899081,134.207167 L256.899081,134.207167 C257.767149,134.207167 258.635216,133.555395 258.635216,132.469109 C258.635216,118.7819 266.013791,102.053089 266.230808,101.835832 C266.664842,100.966803 266.230808,100.097773 265.36274,99.6632588 C264.494673,99.2287443 263.626605,99.6632588 263.192571,100.532288 C262.975554,101.18406 255.162946,118.130128 255.379963,132.469109 C255.162946,133.338138 256.031014,134.207167 256.899081,134.207167 Z" id="Shape" fill="#DFF0FF"></path>
                    <path d="M330.467809,218.502993 C330.684826,218.502993 330.901843,218.72025 331.11886,218.72025 C331.76991,218.72025 332.420961,218.285736 332.637978,217.851221 C332.637978,217.633964 335.025164,212.637046 341.969704,214.592362 C342.837772,214.809619 343.705839,214.375104 343.922856,213.506075 C344.139873,212.637046 343.705839,211.768017 342.837772,211.55076 C335.242181,209.378187 330.901843,213.94059 329.599741,216.764935 C329.165707,217.199449 329.599741,218.068478 330.467809,218.502993 Z" id="Shape" fill="#FFFFFF"></path>
                    <path d="M312.23839,227.193284 C312.672423,227.193284 313.323474,226.976027 313.540491,226.541512 C313.540491,226.541512 314.842592,224.803454 316.361711,224.586197 C317.229778,224.586197 318.097846,224.803454 318.748896,225.455226 C319.399947,226.106998 320.485032,225.88974 321.136082,225.237969 C321.787133,224.586197 321.570116,223.49991 320.919065,222.848139 C318.965913,221.11008 317.229778,220.892823 315.927677,221.11008 C312.88944,221.544595 310.936288,223.934425 310.719271,224.368939 C310.285238,225.020711 310.285238,226.106998 311.153305,226.75877 C311.370322,227.193284 311.804356,227.193284 312.23839,227.193284 Z" id="Shape" fill="#FFFFFF"></path>
                    <path d="M300.995539,239.279571 C301.212555,239.496828 301.646589,239.496828 301.863606,239.496828 C302.514657,239.496828 302.948691,239.279571 303.165707,238.627799 C303.165707,238.410541 305.11886,235.368939 308.157096,235.803454 C309.025164,235.803454 309.893231,235.151682 309.893231,234.282653 C309.893231,233.413624 309.242181,232.544595 308.374113,232.544595 C303.165707,232.11008 300.344488,236.88974 300.344488,237.106998 C299.910454,237.75877 300.344488,238.845056 300.995539,239.279571 Z" id="Shape" fill="#FFFFFF"></path>
                    <path d="M330.467809,238.502993 C330.684826,238.502993 330.901843,238.72025 331.11886,238.72025 C331.76991,238.72025 332.420961,238.285736 332.637978,237.851221 C332.637978,237.633964 335.025164,232.637046 341.969704,234.592362 C342.837772,234.809619 343.705839,234.375104 343.922856,233.506075 C344.139873,232.637046 343.705839,231.768017 342.837772,231.55076 C335.242181,229.378187 330.901843,233.94059 329.599741,236.764935 C329.165707,237.199449 329.599741,238.068478 330.467809,238.502993 Z" id="Shape" fill="#FFFFFF"></path>
                    <path d="M322.467809,233.502993 C322.684826,233.502993 322.901843,233.72025 323.11886,233.72025 C323.76991,233.72025 324.420961,233.285736 324.637978,232.851221 C324.637978,232.633964 327.025164,227.637046 333.969704,229.592362 C334.837772,229.809619 335.705839,229.375104 335.922856,228.506075 C336.139873,227.637046 335.705839,226.768017 334.837772,226.55076 C327.242181,224.378187 322.901843,228.94059 321.599741,231.764935 C321.165707,232.199449 321.599741,233.068478 322.467809,233.502993 Z" id="Shape" fill="#FFFFFF"></path>
                    <path d="M312.23839,247.193284 C312.672423,247.193284 313.323474,246.976027 313.540491,246.541512 C313.540491,246.541512 314.842592,244.803454 316.361711,244.586197 C317.229778,244.586197 318.097846,244.803454 318.748896,245.455226 C319.399947,246.106998 320.485032,245.88974 321.136082,245.237969 C321.787133,244.586197 321.570116,243.49991 320.919065,242.848139 C318.965913,241.11008 317.229778,240.892823 315.927677,241.11008 C312.88944,241.544595 310.936288,243.934425 310.719271,244.368939 C310.285238,245.020711 310.285238,246.106998 311.153305,246.75877 C311.370322,247.193284 311.804356,247.193284 312.23839,247.193284 Z" id="Shape" fill="#FFFFFF"></path>
                    <path d="M326.995539,248.279571 C327.212555,248.496828 327.646589,248.496828 327.863606,248.496828 C328.514657,248.496828 328.948691,248.279571 329.165707,247.627799 C329.165707,247.410541 331.11886,244.368939 334.157096,244.803454 C335.025164,244.803454 335.893231,244.151682 335.893231,243.282653 C335.893231,242.413624 335.242181,241.544595 334.374113,241.544595 C329.165707,241.11008 326.344488,245.88974 326.344488,246.106998 C325.910454,246.75877 326.344488,247.845056 326.995539,248.279571 Z" id="Shape" fill="#FFFFFF"></path>
                    <path d="M342.995539,226.279571 C343.212555,226.496828 343.646589,226.496828 343.863606,226.496828 C344.514657,226.496828 344.948691,226.279571 345.165707,225.627799 C345.165707,225.410541 347.11886,222.368939 350.157096,222.803454 C351.025164,222.803454 351.893231,222.151682 351.893231,221.282653 C351.893231,220.413624 351.242181,219.544595 350.374113,219.544595 C345.165707,219.11008 342.344488,223.88974 342.344488,224.106998 C341.910454,224.75877 342.344488,225.845056 342.995539,226.279571 Z" id="Shape" fill="#FFFFFF"></path>
                    <g id="Group-2" transform="translate(206.000000, 228.500000) rotate(41.000000) translate(-206.000000, -228.500000) translate(179.000000, 208.000000)" fill="#FFFFFF">
                        <path d="M31.4678088,9.50299285 C31.6848257,9.50299285 31.9018426,9.72025013 32.1188595,9.72025013 C32.7699102,9.72025013 33.4209609,9.28573556 33.6379778,8.851221 C33.6379778,8.63396371 36.0251636,3.6370462 42.9697043,5.59236175 C43.8377719,5.80961903 44.7058395,5.37510446 44.9228564,4.50607533 C45.1398733,3.6370462 44.7058395,2.76801706 43.8377719,2.55075978 C36.2421805,0.378186945 31.9018426,4.9405899 30.5997413,7.76493458 C30.1657075,8.19944915 30.5997413,9.06847828 31.4678088,9.50299285 Z" id="Shape" transform="translate(37.703814, 5.851486) rotate(15.000000) translate(-37.703814, -5.851486) "></path>
                        <path d="M13.2383896,18.1932842 C13.6724234,18.1932842 14.3234741,17.9760269 14.540491,17.5415123 C14.540491,17.5415123 15.8425924,15.8034541 17.3617106,15.5861968 C18.2297782,15.5861968 19.0978458,15.8034541 19.7488965,16.4552259 C20.3999472,17.1069978 21.4850317,16.8897405 22.1360823,16.2379686 C22.787133,15.5861968 22.5701161,14.4999104 21.9190654,13.8481385 C19.9659134,12.1100802 18.2297782,11.892823 16.9276769,12.1100802 C13.8894403,12.5445948 11.9362883,14.9344249 11.7192714,15.3689395 C11.2852376,16.0207113 11.2852376,17.1069978 12.1533052,17.7587696 C12.370322,18.1932842 12.8043558,18.1932842 13.2383896,18.1932842 Z" id="Shape" transform="translate(16.981679, 15.116921) rotate(15.000000) translate(-16.981679, -15.116921) "></path>
                        <path d="M1.99553852,30.2795706 C2.21255541,30.4968279 2.6465892,30.4968279 2.8636061,30.4968279 C3.51465679,30.4968279 3.94869058,30.2795706 4.16570747,29.6277987 C4.16570747,29.4105415 6.11885953,26.3689395 9.15709607,26.8034541 C10.0251636,26.8034541 10.8932312,26.1516822 10.8932312,25.2826531 C10.8932312,24.4136239 10.2421805,23.5445948 9.37411296,23.5445948 C4.16570747,23.1100802 1.34448783,27.8897405 1.34448783,28.1069978 C0.910454041,28.7587696 1.34448783,29.845056 1.99553852,30.2795706 Z" id="Shape" transform="translate(6.031504, 27.006757) rotate(15.000000) translate(-6.031504, -27.006757) "></path>
                        <path d="M31.4678088,29.5029928 C31.6848257,29.5029928 31.9018426,29.7202501 32.1188595,29.7202501 C32.7699102,29.7202501 33.4209609,29.2857356 33.6379778,28.851221 C33.6379778,28.6339637 36.0251636,23.6370462 42.9697043,25.5923617 C43.8377719,25.809619 44.7058395,25.3751045 44.9228564,24.5060753 C45.1398733,23.6370462 44.7058395,22.7680171 43.8377719,22.5507598 C36.2421805,20.3781869 31.9018426,24.9405899 30.5997413,27.7649346 C30.1657075,28.1994491 30.5997413,29.0684783 31.4678088,29.5029928 Z" id="Shape" transform="translate(37.703814, 25.851486) rotate(15.000000) translate(-37.703814, -25.851486) "></path>
                        <path d="M23.4678088,24.5029928 C23.6848257,24.5029928 23.9018426,24.7202501 24.1188595,24.7202501 C24.7699102,24.7202501 25.4209609,24.2857356 25.6379778,23.851221 C25.6379778,23.6339637 28.0251636,18.6370462 34.9697043,20.5923617 C35.8377719,20.809619 36.7058395,20.3751045 36.9228564,19.5060753 C37.1398733,18.6370462 36.7058395,17.7680171 35.8377719,17.5507598 C28.2421805,15.3781869 23.9018426,19.9405899 22.5997413,22.7649346 C22.1657075,23.1994491 22.5997413,24.0684783 23.4678088,24.5029928 Z" id="Shape" transform="translate(29.703814, 20.851486) rotate(15.000000) translate(-29.703814, -20.851486) "></path>
                        <path d="M13.2383896,38.1932842 C13.6724234,38.1932842 14.3234741,37.9760269 14.540491,37.5415123 C14.540491,37.5415123 15.8425924,35.8034541 17.3617106,35.5861968 C18.2297782,35.5861968 19.0978458,35.8034541 19.7488965,36.4552259 C20.3999472,37.1069978 21.4850317,36.8897405 22.1360823,36.2379686 C22.787133,35.5861968 22.5701161,34.4999104 21.9190654,33.8481385 C19.9659134,32.1100802 18.2297782,31.892823 16.9276769,32.1100802 C13.8894403,32.5445948 11.9362883,34.9344249 11.7192714,35.3689395 C11.2852376,36.0207113 11.2852376,37.1069978 12.1533052,37.7587696 C12.370322,38.1932842 12.8043558,38.1932842 13.2383896,38.1932842 Z" id="Shape" transform="translate(16.981679, 35.116921) rotate(15.000000) translate(-16.981679, -35.116921) "></path>
                        <path d="M27.9955385,39.2795706 C28.2125554,39.4968279 28.6465892,39.4968279 28.8636061,39.4968279 C29.5146568,39.4968279 29.9486906,39.2795706 30.1657075,38.6277987 C30.1657075,38.4105415 32.1188595,35.3689395 35.1570961,35.8034541 C36.0251636,35.8034541 36.8932312,35.1516822 36.8932312,34.2826531 C36.8932312,33.4136239 36.2421805,32.5445948 35.374113,32.5445948 C30.1657075,32.1100802 27.3444878,36.8897405 27.3444878,37.1069978 C26.910454,37.7587696 27.3444878,38.845056 27.9955385,39.2795706 Z" id="Shape" transform="translate(32.031504, 36.006757) rotate(15.000000) translate(-32.031504, -36.006757) "></path>
                        <path d="M43.9955385,17.2795706 C44.2125554,17.4968279 44.6465892,17.4968279 44.8636061,17.4968279 C45.5146568,17.4968279 45.9486906,17.2795706 46.1657075,16.6277987 C46.1657075,16.4105415 48.1188595,13.3689395 51.1570961,13.8034541 C52.0251636,13.8034541 52.8932312,13.1516822 52.8932312,12.2826531 C52.8932312,11.4136239 52.2421805,10.5445948 51.374113,10.5445948 C46.1657075,10.1100802 43.3444878,14.8897405 43.3444878,15.1069978 C42.910454,15.7587696 43.3444878,16.845056 43.9955385,17.2795706 Z" id="Shape" transform="translate(48.031504, 14.006757) rotate(15.000000) translate(-48.031504, -14.006757) "></path>
                    </g>
                </g>
                <g id="mobile" transform="translate(125.422103, 171.986276)">
                    <path d="M399.15396,115.494229 L394.730264,115.012642 C394.252027,112.12312 393.056434,109.353995 391.382603,106.94606 L394.132468,103.454555 C394.371586,103.093365 394.371586,102.611778 394.012908,102.250587 L390.904365,99.120272 C390.545687,98.7590818 390.06745,98.7590818 389.708772,98.9998753 L386.241551,101.769 C383.850364,100.083446 381.100499,98.9998753 378.231075,98.3978915 L377.752838,93.943212 C377.752838,93.461625 377.2746,93.1004348 376.915922,93.1004348 L372.492227,93.1004348 C372.013989,93.1004348 371.655311,93.461625 371.655311,93.943212 L371.177074,98.3978915 C368.905446,98.7590818 366.753378,99.601859 364.720869,100.805826 L364.720869,75.8837003 L364.720869,65.2887868 C364.720869,62.7604552 362.688361,60.5933138 360.058055,60.5933138 L298.843672,60.5933138 C296.332925,60.5933138 294.180857,62.6400584 294.180857,65.2887868 L294.180857,75.8837003 L294.180857,161.485786 L294.180857,172.080699 C294.180857,174.609031 296.213366,176.776172 298.843672,176.776172 L360.177614,176.776172 C362.688361,176.776172 364.840429,174.729428 364.840429,172.080699 L364.840429,161.485786 L364.840429,136.202469 C366.872938,137.406437 369.025006,138.128817 371.296633,138.610404 L371.774871,143.065084 C371.774871,143.546671 372.253108,143.907861 372.611786,143.907861 L377.035482,143.907861 C377.513719,143.907861 377.872397,143.546671 377.872397,143.065084 L378.350634,138.610404 C381.220059,138.128817 383.969924,136.92485 386.36111,135.239295 L389.828331,138.00842 C390.187009,138.249214 390.665247,138.249214 391.023925,137.888024 L394.132468,134.757708 C394.491146,134.396518 394.491146,133.914931 394.252027,133.553741 L391.502162,130.062235 C393.175993,127.6543 394.252027,124.885175 394.849824,121.995653 L399.273519,121.514066 C399.751757,121.514066 400.110435,121.03248 400.110435,120.671289 L400.110435,116.21661 C399.990875,115.975816 399.632197,115.494229 399.15396,115.494229 Z M355.634359,103.574952 L358.384224,107.066457 C356.710393,109.474392 355.634359,112.243517 355.036563,115.133039 L350.612867,115.614626 C350.13463,115.614626 349.775952,116.096213 349.775952,116.457403 L349.775952,120.912083 C349.775952,121.39367 350.13463,121.75486 350.612867,121.75486 L355.036563,122.236447 C355.5148,125.125969 356.710393,127.895094 358.384224,130.303029 L355.634359,133.794534 C355.395241,134.155725 355.395241,134.637312 355.753919,134.998502 L358.862462,138.128817 C359.22114,138.490007 359.699377,138.490007 360.058055,138.249214 L363.166598,135.720882 L363.166598,160.763405 L295.974247,160.763405 L295.974247,76.7264775 L363.047039,76.7264775 L363.047039,101.769 L359.938496,99.2406688 C359.579818,98.9998753 359.10158,98.9998753 358.742902,99.3610655 L355.634359,102.491381 C355.275681,102.732174 355.275681,103.213761 355.634359,103.574952 Z M298.843672,62.2788682 L360.177614,62.2788682 C361.731886,62.2788682 363.047039,63.6032324 363.047039,65.1683901 L363.047039,74.9205264 L295.974247,74.9205264 L295.974247,65.1683901 C295.974247,63.6032324 297.2894,62.2788682 298.843672,62.2788682 Z M360.297174,174.970221 L298.843672,174.970221 C297.2894,174.970221 295.974247,173.645857 295.974247,172.080699 L295.974247,162.328563 L363.047039,162.328563 L363.047039,172.080699 C363.166598,173.645857 361.851445,174.970221 360.297174,174.970221 Z M398.197485,120.069306 L393.893349,120.550893 C393.534671,120.550893 393.175993,120.912083 393.056434,121.273273 C392.578196,124.283192 391.382603,127.29311 389.589213,129.701045 C389.350094,130.062235 389.350094,130.543822 389.589213,130.784616 L392.339077,134.155725 L390.426128,136.202469 L387.078466,133.433344 C386.719788,133.192551 386.241551,133.192551 386.002432,133.433344 C383.491686,135.239295 380.622262,136.56366 377.633278,136.92485 C377.2746,136.92485 376.915922,137.28604 376.915922,137.767627 L376.437685,142.10191 L373.68782,142.10191 L373.209583,137.767627 C373.209583,137.406437 372.850905,137.045247 372.492227,136.92485 C369.503243,136.443263 366.514259,135.239295 364.123073,133.433344 C363.764395,133.192551 363.286157,133.192551 363.047039,133.433344 L359.699377,136.202469 L357.666868,134.155725 L360.416733,130.784616 C360.655852,130.423426 360.655852,129.941839 360.416733,129.701045 C358.623343,127.172713 357.30819,124.283192 356.949512,121.273273 C356.949512,120.912083 356.590834,120.550893 356.112597,120.550893 L351.80846,120.069306 L351.80846,117.30018 L356.112597,116.818593 C356.471275,116.818593 356.829953,116.457403 356.949512,116.096213 C357.427749,113.086294 358.623343,110.076376 360.416733,107.668441 C360.655852,107.307251 360.655852,106.825664 360.416733,106.58487 L357.666868,103.213761 L359.699377,101.287413 L363.047039,104.056539 C363.405717,104.297332 363.883954,104.297332 364.123073,104.056539 C366.633819,102.250587 369.503243,100.926223 372.492227,100.565033 C372.850905,100.565033 373.209583,100.203843 373.209583,99.7222557 L373.68782,95.3879729 L376.437685,95.3879729 L376.915922,99.7222557 C376.915922,100.083446 377.2746,100.444636 377.633278,100.565033 C380.622262,101.04662 383.611245,102.250587 386.002432,104.056539 C386.36111,104.297332 386.839348,104.297332 387.078466,104.056539 L390.426128,101.287413 L392.339077,103.213761 L389.589213,106.58487 C389.350094,106.94606 389.350094,107.427647 389.589213,107.668441 C391.382603,110.196773 392.697756,113.086294 393.056434,116.096213 C393.056434,116.457403 393.415112,116.818593 393.893349,116.818593 L398.197485,117.30018 L398.197485,120.069306 Z" id="Shape" stroke="#00396E" stroke-width="1.5" fill="#00396E" fill-rule="nonzero"></path>
                    <path d="M343.141052,10.35412 C346.010476,10.35412 348.282103,8.06658188 348.282103,5.17706002 C348.282103,2.28753815 346.010476,0 343.141052,0 C340.271628,0 338,2.28753815 338,5.17706002 C338,8.06658188 340.391187,10.35412 343.141052,10.35412 Z M343.141052,1.80595117 C345.054001,1.80595117 346.488713,3.37110885 346.488713,5.17706002 C346.488713,6.98301118 344.934442,8.54816886 343.141052,8.54816886 C341.347662,8.54816886 339.79339,7.10340793 339.79339,5.17706002 C339.79339,3.2507121 341.347662,1.80595117 343.141052,1.80595117 Z" id="Shape" fill="#FFCD5B" fill-rule="nonzero"></path>
                    <path d="M258.344609,233.027704 C252.397414,233.027704 247.689218,237.768876 247.689218,243.757726 C247.689218,249.746575 252.397414,254.487748 258.344609,254.487748 C264.291804,254.487748 269,249.746575 269,243.757726 C269,237.768876 264.291804,233.027704 258.344609,233.027704 Z M258.344609,250.744717 C254.379813,250.744717 251.406215,247.500757 251.406215,243.757726 C251.406215,239.765159 254.627612,236.770735 258.344609,236.770735 C262.309406,236.770735 265.283003,240.014695 265.283003,243.757726 C265.283003,247.750292 262.061606,250.744717 258.344609,250.744717 Z" id="Shape" fill="#FFCD5B" fill-rule="nonzero"></path>
                    <path d="M10.5306808,118.259296 L6.1069851,108.386763 C5.86786641,107.78478 4.79183233,107.78478 4.4331543,108.386763 L0.129017967,118.259296 C0.00945862458,118.379693 0.00945862458,118.620487 0.129017967,118.740883 C0.129017967,118.740883 0.129017967,118.86128 0.129017967,118.86128 L0.129017967,170.993071 C0.129017967,173.762196 2.28108613,175.929337 5.03095101,175.929337 L5.74830707,175.929337 C8.49817195,175.929337 10.6502401,173.762196 10.6502401,170.993071 L10.6502401,165.695614 C10.6502401,165.695614 10.6502401,165.695614 10.6502401,165.695614 C10.6502401,165.695614 10.6502401,165.695614 10.6502401,165.695614 L10.6502401,161.602124 C10.6502401,161.602124 10.6502401,161.602124 10.6502401,161.602124 C10.6502401,161.602124 10.6502401,161.602124 10.6502401,161.602124 L10.6502401,118.981677 C10.6502401,118.981677 10.6502401,118.86128 10.6502401,118.86128 C10.6502401,118.620487 10.6502401,118.50009 10.5306808,118.259296 Z M1.92240811,162.444902 L8.85684997,162.444902 L8.85684997,164.73244 L1.92240811,164.73244 L1.92240811,162.444902 Z M5.38962904,111.035492 L8.49817195,118.018503 L2.28108613,118.018503 L5.38962904,111.035492 Z M5.74830707,174.243783 L5.03095101,174.243783 C3.35712022,174.243783 1.92240811,172.799022 1.92240811,171.113467 L1.92240811,166.658788 L8.85684997,166.658788 L8.85684997,171.113467 C8.85684997,172.799022 7.42213786,174.243783 5.74830707,174.243783 Z" id="Shape" stroke="#00396E" fill="#00396E" fill-rule="nonzero"></path>
                    <polygon id="Path" fill="#FFFFFF" points="8.85684997 160.63895 1.92240811 160.63895 1.92240811 119.824454 8.85684997 119.824454"></polygon>
                    <path d="M5.62551697,129.575006 C6.10375434,129.575006 6.58199171,129.213816 6.58199171,128.611832 L6.58199171,125.120327 C6.58199171,124.63874 6.22331368,124.157153 5.62551697,124.157153 C5.1472796,124.157153 4.66904223,124.518343 4.66904223,125.120327 L4.66904223,128.611832 C4.66904223,129.213816 5.1472796,129.575006 5.62551697,129.575006 Z" id="Shape" fill="#7FEBFF" fill-rule="nonzero"></path>
                    <path d="M5.62551697,141.32772 C6.10375434,141.32772 6.58199171,140.96653 6.58199171,140.364546 L6.58199171,135.548676 C6.58199171,135.067089 6.22331368,134.585502 5.62551697,134.585502 C5.1472796,134.585502 4.66904223,134.946693 4.66904223,135.548676 L4.66904223,140.364546 C4.66904223,140.96653 5.1472796,141.32772 5.62551697,141.32772 Z" id="Shape" fill="#7FEBFF" fill-rule="nonzero"></path>
                    <path d="M5.62551697,154.073481 C6.10375434,154.073481 6.58199171,153.71229 6.58199171,153.110307 L6.58199171,148.294437 C6.58199171,147.81285 6.22331368,147.331263 5.62551697,147.331263 C5.1472796,147.331263 4.66904223,147.692453 4.66904223,148.294437 L4.66904223,153.110307 C4.66904223,153.591894 5.1472796,154.073481 5.62551697,154.073481 Z" id="Shape" fill="#7FEBFF" fill-rule="nonzero"></path>
                    <path d="M338.656933,165.940465 L320.483913,165.940465 C319.0492,165.940465 317.853607,167.144433 317.853607,168.589194 L317.853607,168.950384 C317.853607,170.395145 319.0492,171.599112 320.483913,171.599112 L338.537373,171.599112 C339.972085,171.599112 341.167679,170.395145 341.167679,168.950384 L341.167679,168.589194 C341.167679,167.144433 340.091645,165.940465 338.656933,165.940465 Z M339.374289,168.829987 C339.374289,169.311574 339.015611,169.672764 338.537373,169.672764 L320.483913,169.672764 C320.005675,169.672764 319.646997,169.311574 319.646997,168.829987 L319.646997,168.468797 C319.646997,167.98721 320.005675,167.62602 320.483913,167.62602 L338.537373,167.62602 C339.015611,167.62602 339.374289,167.98721 339.374289,168.468797 L339.374289,168.829987 Z" id="Shape" fill="#00396E" fill-rule="nonzero"></path>
                    <path d="M322.396862,69.2618794 L336.624424,69.2618794 C337.102661,69.2618794 337.580899,68.9006891 337.580899,68.2987054 C337.580899,67.8171184 337.222221,67.3355315 336.624424,67.3355315 L322.396862,67.3355315 C321.918625,67.3355315 321.440387,67.6967217 321.440387,68.2987054 C321.559947,68.9006891 321.918625,69.2618794 322.396862,69.2618794 Z" id="Shape" fill="#00396E" fill-rule="nonzero"></path>
                    <path d="M315.701539,80.8199668 L300.99574,80.8199668 C300.517502,80.8199668 300.039265,81.1811571 300.039265,81.7831408 L300.039265,95.2675762 C300.039265,95.7491632 300.397943,96.2307501 300.99574,96.2307501 L315.701539,96.2307501 C316.179776,96.2307501 316.658014,95.8695599 316.658014,95.2675762 L316.658014,81.7831408 C316.538454,81.3015538 316.179776,80.8199668 315.701539,80.8199668 Z M314.745064,94.3044022 L301.952215,94.3044022 L301.952215,82.625918 L314.864624,82.625918 L314.864624,94.3044022 L314.745064,94.3044022 Z" id="Shape" fill="#DFF0FF" fill-rule="nonzero"></path>
                    <path d="M336.863543,80.8199668 L322.277303,80.8199668 C321.799065,80.8199668 321.320828,81.1811571 321.320828,81.7831408 L321.320828,95.2675762 C321.320828,95.7491632 321.679506,96.2307501 322.277303,96.2307501 L336.983102,96.2307501 C337.461339,96.2307501 337.939577,95.8695599 337.939577,95.2675762 L337.939577,81.7831408 C337.820017,81.3015538 337.461339,80.8199668 336.863543,80.8199668 Z M336.026627,94.3044022 L323.114218,94.3044022 L323.114218,82.625918 L336.026627,82.625918 L336.026627,94.3044022 Z" id="Shape" fill="#DFF0FF" fill-rule="nonzero"></path>
                    <path d="M359.10158,95.2675762 L359.10158,81.7831408 C359.10158,81.3015538 358.742902,80.8199668 358.145106,80.8199668 L343.439306,80.8199668 C342.961069,80.8199668 342.482832,81.1811571 342.482832,81.7831408 L342.482832,95.2675762 C342.482832,95.7491632 342.84151,96.2307501 343.439306,96.2307501 L358.145106,96.2307501 C358.623343,96.1103534 359.10158,95.7491632 359.10158,95.2675762 Z M357.188631,94.3044022 L344.395781,94.3044022 L344.395781,82.625918 L357.30819,82.625918 L357.30819,94.3044022 L357.188631,94.3044022 Z" id="Shape" fill="#DFF0FF" fill-rule="nonzero"></path>
                    <path d="M315.701539,100.926223 L300.99574,100.926223 C300.517502,100.926223 300.039265,101.287413 300.039265,101.889397 L300.039265,115.373833 C300.039265,115.85542 300.397943,116.337006 300.99574,116.337006 L315.701539,116.337006 C316.179776,116.337006 316.658014,115.975816 316.658014,115.373833 L316.658014,101.769 C316.538454,101.287413 316.179776,100.926223 315.701539,100.926223 Z M314.745064,114.410659 L301.952215,114.410659 L301.952215,102.732174 L314.864624,102.732174 L314.864624,114.410659 L314.745064,114.410659 Z" id="Shape" fill="#DFF0FF" fill-rule="nonzero"></path>
                    <path d="M336.863543,100.926223 L322.277303,100.926223 C321.799065,100.926223 321.320828,101.287413 321.320828,101.889397 L321.320828,115.373833 C321.320828,115.85542 321.679506,116.337006 322.277303,116.337006 L336.983102,116.337006 C337.461339,116.337006 337.939577,115.975816 337.939577,115.373833 L337.939577,101.769 C337.820017,101.287413 337.461339,100.926223 336.863543,100.926223 Z M336.026627,114.410659 L323.114218,114.410659 L323.114218,102.732174 L336.026627,102.732174 L336.026627,114.410659 Z" id="Shape" fill="#DFF0FF" fill-rule="nonzero"></path>
                    <path d="M315.701539,141.018339 L300.99574,141.018339 C300.517502,141.018339 300.039265,141.379529 300.039265,141.981513 L300.039265,155.465948 C300.039265,155.947535 300.397943,156.429122 300.99574,156.429122 L315.701539,156.429122 C316.179776,156.429122 316.658014,156.067932 316.658014,155.465948 L316.658014,141.981513 C316.538454,141.499926 316.179776,141.018339 315.701539,141.018339 Z M314.745064,154.623171 L301.952215,154.623171 L301.952215,142.944687 L314.864624,142.944687 L314.864624,154.623171 L314.745064,154.623171 Z" id="Shape" fill="#DFF0FF" fill-rule="nonzero"></path>
                    <path d="M336.863543,141.018339 L322.277303,141.018339 C321.799065,141.018339 321.320828,141.379529 321.320828,141.981513 L321.320828,155.465948 C321.320828,155.947535 321.679506,156.429122 322.277303,156.429122 L336.983102,156.429122 C337.461339,156.429122 337.939577,156.067932 337.939577,155.465948 L337.939577,141.981513 C337.820017,141.499926 337.461339,141.018339 336.863543,141.018339 Z M336.026627,154.623171 L323.114218,154.623171 L323.114218,142.944687 L336.026627,142.944687 L336.026627,154.623171 Z" id="Shape" fill="#DFF0FF" fill-rule="nonzero"></path>
                    <path d="M342.602391,141.981513 L342.602391,155.465948 C342.602391,155.947535 342.961069,156.429122 343.558866,156.429122 L358.264665,156.429122 C358.742902,156.429122 359.22114,156.067932 359.22114,155.465948 L359.22114,141.981513 C359.22114,141.499926 358.862462,141.018339 358.264665,141.018339 L343.439306,141.018339 C342.961069,141.018339 342.602391,141.499926 342.602391,141.981513 Z M344.395781,142.944687 L357.30819,142.944687 L357.30819,154.623171 L344.395781,154.623171 L344.395781,142.944687 Z" id="Shape" fill="#DFF0FF" fill-rule="nonzero"></path>
                    <path d="M374.883413,104.778919 C382.535211,104.778919 388.632738,111.03955 388.632738,118.624545 C388.632738,126.20954 382.415652,132.47017 374.883413,132.47017 C367.351175,132.47017 361.134089,126.20954 361.134089,118.624545 C361.134089,111.03955 367.351175,104.778919 374.883413,104.778919 Z" id="Shape" stroke="#00396E" stroke-width="3" fill="#FFFFFF" fill-rule="nonzero"></path>
                </g>
            </g>
        </g>
    </g>
</svg>
