<?xml version="1.0" encoding="UTF-8"?>
<svg width="505px" height="378px" viewBox="0 0 505 378" version="1.1" xmlns="http://www.w3.org/2000/svg" xmlns:xlink="http://www.w3.org/1999/xlink">
    <!-- Generator: Sketch 44.1 (41455) - http://www.bohemiancoding.com/sketch -->
    <title>people</title>
    <desc>Created with Sketch.</desc>
    <defs></defs>
    <g id="Page-1" stroke="none" stroke-width="1" fill="none" fill-rule="evenodd">
        <g id="iPad" transform="translate(-53.000000, -51.000000)">
            <g id="people" transform="translate(9.000000, 23.000000)">
                <g id="rocket" transform="translate(45.000000, 28.000000)" fill-rule="nonzero">
                    <path d="M50.8801267,216.532265 L50.8801267,238.909765 C50.8801267,239.778794 51.5311774,240.647823 52.6162619,240.647823 C53.4843295,240.647823 54.352397,239.996051 54.352397,238.909765 L54.352397,216.532265 C54.352397,215.663236 53.7013464,214.794207 52.6162619,214.794207 C51.5311774,214.794207 50.8801267,215.663236 50.8801267,216.532265 Z" id="Shape" fill="#0065C3"></path>
                    <path d="M52.399245,255.204061 C53.2673126,255.204061 54.1353801,254.552289 54.1353801,253.466003 L54.1353801,246.296513 C54.1353801,245.427484 53.4843295,244.558454 52.399245,244.558454 C51.5311774,244.558454 50.6631098,245.210226 50.6631098,246.296513 L50.6631098,253.466003 C50.8801267,254.335032 51.5311774,255.204061 52.399245,255.204061 Z" id="Shape" fill="#0065C3"></path>
                    <path d="M403.350011,213.589279 C404.218078,213.589279 405.086146,212.937507 405.086146,211.851221 L405.086146,189.473721 C405.086146,188.604692 404.435095,187.735663 403.350011,187.735663 C402.481943,187.735663 401.613875,188.387434 401.613875,189.473721 L401.613875,211.851221 C401.613875,212.937507 402.481943,213.589279 403.350011,213.589279 Z" id="Shape" fill="#0065C3"></path>
                    <path d="M403.350011,228.145517 C404.218078,228.145517 405.086146,227.493745 405.086146,226.407459 L405.086146,219.237969 C405.086146,218.368939 404.435095,217.49991 403.350011,217.49991 C402.481943,217.49991 401.613875,218.151682 401.613875,219.237969 L401.613875,226.407459 C401.613875,227.493745 402.481943,228.145517 403.350011,228.145517 Z" id="Shape" fill="#0065C3"></path>
                    <path d="M324.349308,6.36126792 C324.566325,6.5785252 325.000359,6.79578249 325.434393,6.79578249 C325.868427,6.79578249 326.30246,6.5785252 326.519477,6.36126792 C327.170528,5.70949607 327.170528,4.62320965 326.519477,3.9714378 L323.047207,0.49532127 C322.396156,-0.15645058 321.311072,-0.15645058 320.660021,0.49532127 C320.00897,1.14709312 320.00897,2.23337954 320.660021,2.88515139 L324.349308,6.36126792 Z" id="Shape" fill="#FFFFFF"></path>
                    <path d="M335.851204,17.8759039 C336.068221,18.0931612 336.502254,18.3104185 336.936288,18.3104185 C337.370322,18.3104185 337.804356,18.0931612 338.021373,17.8759039 C338.672423,17.2241321 338.672423,16.1378457 338.021373,15.4860738 L334.549102,12.0099573 C333.898052,11.3581854 332.812967,11.3581854 332.161917,12.0099573 C331.510866,12.6617291 331.510866,13.7480156 332.161917,14.3997874 L335.851204,17.8759039 Z" id="Shape" fill="#FFFFFF"></path>
                    <path d="M321.962122,18.3104185 C322.396156,18.3104185 322.83019,18.0931612 323.047207,17.8759039 L326.519477,14.3997874 C327.170528,13.7480156 327.170528,12.6617291 326.519477,12.0099573 C325.868427,11.3581854 324.783342,11.3581854 324.132291,12.0099573 L320.660021,15.4860738 C320.00897,16.1378457 320.00897,17.2241321 320.660021,17.8759039 C321.094055,18.3104185 321.528089,18.3104185 321.962122,18.3104185 Z" id="Shape" fill="#FFFFFF"></path>
                    <path d="M333.464018,7.01303977 C333.898052,7.01303977 334.332086,6.79578249 334.549102,6.5785252 L338.021373,2.88515139 C338.672423,2.23337954 338.672423,1.14709312 338.021373,0.49532127 C337.370322,0.0608067032 336.502254,0.0608067032 335.851204,0.712578553 L332.378933,4.18869509 C331.727883,4.84046694 331.727883,5.92675335 332.378933,6.5785252 C332.59595,6.79578249 333.029984,7.01303977 333.464018,7.01303977 Z" id="Shape" fill="#FFFFFF"></path>
                    <path d="M79.6162619,56.8589387 C79.8332788,57.076196 80.2673126,57.2934533 80.7013464,57.2934533 C81.1353801,57.2934533 81.5694139,57.076196 81.7864308,56.8589387 C82.4374815,56.2071669 82.4374815,55.1208805 81.7864308,54.4691086 L78.3141605,50.9929921 C77.6631098,50.3412202 76.5780253,50.3412202 75.9269747,50.9929921 C75.275924,51.6447639 75.275924,52.7310504 75.9269747,53.3828222 L79.6162619,56.8589387 Z" id="Shape" fill="#FFFFFF"></path>
                    <path d="M89.816056,62.5076281 C89.1650053,61.8558563 88.0799208,61.8558563 87.4288701,62.5076281 C86.7778194,63.1594 86.7778194,64.2456864 87.4288701,64.8974582 L90.9011404,68.3735748 C91.1181573,68.590832 91.5521911,68.8080893 91.9862249,68.8080893 C92.4202587,68.8080893 92.8542925,68.590832 93.0713094,68.3735748 C93.7223601,67.7218029 93.7223601,66.6355165 93.0713094,65.9837446 L89.816056,62.5076281 Z" id="Shape" fill="#FFFFFF"></path>
                    <path d="M82.0034477,64.6802009 C82.6544984,64.0284291 82.6544984,62.9421427 82.0034477,62.2903708 C81.352397,61.638599 80.2673126,61.638599 79.6162619,62.2903708 L76.1439915,65.7664874 C75.4929409,66.4182592 75.4929409,67.5045456 76.1439915,68.1563175 C76.3610084,68.3735748 76.7950422,68.590832 77.229076,68.590832 C77.6631098,68.590832 78.0971436,68.3735748 78.3141605,68.1563175 L82.0034477,64.6802009 Z" id="Shape" fill="#FFFFFF"></path>
                    <path d="M91.1181573,50.9929921 L87.4288701,54.4691086 C86.7778194,55.1208805 86.7778194,56.2071669 87.4288701,56.8589387 C87.645887,57.076196 88.0799208,57.2934533 88.5139546,57.2934533 C88.9479884,57.2934533 89.3820222,57.076196 89.5990391,56.8589387 L93.0713094,53.3828222 C93.7223601,52.7310504 93.7223601,51.6447639 93.0713094,50.9929921 C92.6372756,50.3412202 91.5521911,50.3412202 91.1181573,50.9929921 Z" id="Shape" fill="#FFFFFF"></path>
                    <path d="M375.382724,266.472191 C375.599741,266.689448 376.033775,266.906706 376.467809,266.906706 C376.901843,266.906706 377.335876,266.689448 377.552893,266.472191 C378.203944,265.820419 378.203944,264.734133 377.552893,264.082361 L374.080623,260.606244 C373.429572,259.954473 372.344488,259.954473 371.693437,260.606244 C371.042386,261.258016 371.042386,262.344303 371.693437,262.996075 L375.382724,266.472191 Z" id="Shape" fill="#FFFFFF"></path>
                    <path d="M385.582518,271.903623 C384.931468,271.251851 383.846383,271.251851 383.195333,271.903623 C382.544282,272.555395 382.544282,273.641681 383.195333,274.293453 L386.667603,277.76957 C386.88462,277.986827 387.318654,278.204084 387.752687,278.204084 C388.186721,278.204084 388.620755,277.986827 388.837772,277.76957 C389.488823,277.117798 389.488823,276.031512 388.837772,275.37974 L385.582518,271.903623 Z" id="Shape" fill="#FFFFFF"></path>
                    <path d="M372.995539,278.204084 C373.429572,278.204084 373.863606,277.986827 374.080623,277.76957 L377.552893,274.293453 C378.203944,273.641681 378.203944,272.555395 377.552893,271.903623 C376.901843,271.251851 375.816758,271.251851 375.165707,271.903623 L371.693437,275.37974 C371.042386,276.031512 371.042386,277.117798 371.693437,277.76957 C372.127471,278.204084 372.561505,278.204084 372.995539,278.204084 Z" id="Shape" fill="#FFFFFF"></path>
                    <path d="M389.054789,260.606244 C388.403738,259.954473 387.318654,259.954473 386.667603,260.606244 L383.195333,264.082361 C382.544282,264.734133 382.544282,265.820419 383.195333,266.472191 C383.412349,266.689448 383.846383,266.906706 384.280417,266.906706 C384.714451,266.906706 385.148485,266.689448 385.365502,266.472191 L388.837772,262.996075 C389.705839,262.127045 389.705839,261.258016 389.054789,260.606244 Z" id="Shape" fill="#FFFFFF"></path>
                    <path d="M75.9831362,185.140882 C75.3320855,184.48911 74.247001,184.48911 73.5959503,185.140882 C72.9448997,185.792654 72.9448997,186.87894 73.5959503,187.530712 L76.2001531,190.1378 C76.41717,190.355057 76.8512038,190.572314 77.2852376,190.572314 C77.7192714,190.572314 78.1533052,190.355057 78.370322,190.1378 C79.0213727,189.486028 79.0213727,188.399741 78.370322,187.747969 L75.9831362,185.140882 Z" id="Shape" fill="#FFFFFF"></path>
                    <path d="M84.8808289,193.831173 C84.2297782,193.179401 83.1446937,193.179401 82.4936431,193.831173 C81.8425924,194.482945 81.8425924,195.569232 82.4936431,196.221003 L85.0978458,198.828091 C85.3148627,199.045348 85.7488965,199.262605 86.1829303,199.262605 C86.6169641,199.262605 87.0509979,199.045348 87.2680148,198.828091 C87.9190654,198.176319 87.9190654,197.090033 87.2680148,196.438261 L84.8808289,193.831173 Z" id="Shape" fill="#FFFFFF"></path>
                    <path d="M76.41717,193.831173 L73.8129672,196.438261 C73.1619166,197.090033 73.1619166,198.176319 73.8129672,198.828091 C74.0299841,199.045348 74.4640179,199.262605 74.8980517,199.262605 C75.3320855,199.262605 75.7661193,199.045348 75.9831362,198.828091 L78.5873389,196.221003 C79.2383896,195.569232 79.2383896,194.482945 78.5873389,193.831173 C78.1533052,193.179401 77.0682207,193.179401 76.41717,193.831173 Z" id="Shape" fill="#FFFFFF"></path>
                    <path d="M85.0978458,185.140882 L82.4936431,187.747969 C81.8425924,188.399741 81.8425924,189.486028 82.4936431,190.1378 C82.71066,190.355057 83.1446937,190.572314 83.5787275,190.572314 C84.0127613,190.572314 84.4467951,190.355057 84.663812,190.1378 L87.2680148,187.530712 C87.9190654,186.87894 87.9190654,185.792654 87.2680148,185.140882 C86.833981,184.48911 85.7488965,184.48911 85.0978458,185.140882 Z" id="Shape" fill="#FFFFFF"></path>
                    <path d="M486.306435,69.6898308 C485.655384,69.038059 484.5703,69.038059 483.919249,69.6898308 C483.268198,70.3416027 483.268198,71.4278891 483.919249,72.0796609 L486.523452,74.6867483 C486.740469,74.9040056 487.174502,75.1212629 487.608536,75.1212629 C488.04257,75.1212629 488.476604,74.9040056 488.693621,74.6867483 C489.344671,74.0349765 489.344671,72.9486901 488.693621,72.2969182 L486.306435,69.6898308 Z" id="Shape" fill="#FFFFFF"></path>
                    <path d="M494.408399,78.9594749 C493.757348,78.3077031 492.672264,78.3077031 492.021213,78.9594749 C491.370162,79.6112468 491.370162,80.6975332 492.021213,81.349305 L494.625416,83.9563924 C494.842433,84.1736497 495.276466,84.390907 495.7105,84.390907 C496.144534,84.390907 496.578568,84.1736497 496.795585,83.9563924 C497.446635,83.3046206 497.446635,82.2183342 496.795585,81.5665623 L494.408399,78.9594749 Z" id="Shape" fill="#FFFFFF"></path>
                    <path d="M486.523452,78.9594749 L483.919249,81.5665623 C483.268198,82.2183342 483.268198,83.3046206 483.919249,83.9563924 C484.136266,84.1736497 484.5703,84.390907 485.004333,84.390907 C485.438367,84.390907 485.872401,84.1736497 486.089418,83.9563924 L488.693621,81.349305 C489.344671,80.6975332 489.344671,79.6112468 488.693621,78.9594749 C488.259587,78.3077031 487.174502,78.3077031 486.523452,78.9594749 Z" id="Shape" fill="#FFFFFF"></path>
                    <path d="M494.625416,69.6898308 L492.021213,72.2969182 C491.370162,72.9486901 491.370162,74.0349765 492.021213,74.6867483 C492.23823,74.9040056 492.672264,75.1212629 493.106297,75.1212629 C493.540331,75.1212629 493.974365,74.9040056 494.191382,74.6867483 L496.795585,72.0796609 C497.446635,71.4278891 497.446635,70.3416027 496.795585,69.6898308 C496.361551,69.038059 495.276466,69.038059 494.625416,69.6898308 Z" id="Shape" fill="#FFFFFF"></path>
                    <path d="M460.76467,255 C454.263142,255 449,260.268972 449,266.777701 C449,273.286431 454.263142,278.555403 460.76467,278.555403 C467.266198,278.555403 472.529339,273.286431 472.529339,266.777701 C472.838936,260.268972 467.266198,255 460.76467,255 Z M460.76467,273.90631 C456.739914,273.90631 453.643949,270.806915 453.643949,266.777701 C453.643949,262.748488 456.739914,259.649093 460.76467,259.649093 C464.789425,259.649093 467.885391,262.748488 467.885391,266.777701 C467.885391,270.806915 464.789425,273.90631 460.76467,273.90631 Z" id="Shape" fill="#FFCE5B"></path>
                    <path d="M12.9511795,134 C6.07791909,134 0.0132776002,139.666602 0.0132776002,146.952233 C0.0132776002,153.833107 5.67360966,159.904466 12.9511795,159.904466 C20.2287492,159.904466 25.8890813,154.237864 25.8890813,146.952233 C25.8890813,139.666602 20.2287492,134 12.9511795,134 Z M12.9511795,153.42835 C9.31239456,153.42835 6.07791909,150.595049 6.07791909,146.547476 C6.07791909,142.90466 8.90808512,139.666602 12.9511795,139.666602 C16.9942738,139.666602 19.8244398,142.499903 19.8244398,146.547476 C19.8244398,150.595049 16.9942738,153.42835 12.9511795,153.42835 Z" id="Shape" fill="#FFCE5B"></path>
                    <path d="M185.161558,36.3389807 C189.067862,36.3389807 192.323115,33.0801215 192.323115,29.1694904 C192.323115,25.2588593 189.067862,22 185.161558,22 C181.255253,22 178,25.2588593 178,29.1694904 C178,33.2973787 181.255253,36.3389807 185.161558,36.3389807 Z M185.161558,25.2588593 C187.331727,25.2588593 189.067862,26.9969175 189.067862,29.1694904 C189.067862,31.3420632 187.331727,33.0801215 185.161558,33.0801215 C182.991389,33.0801215 181.255253,31.3420632 181.255253,29.1694904 C181.255253,26.9969175 182.991389,25.2588593 185.161558,25.2588593 Z" id="Shape" fill="#FFCE5B"></path>
                    <path d="M416.1385,350.894337 L391.832608,350.894337 C390.964541,350.894337 390.096473,351.546109 390.096473,352.632396 C390.096473,353.501425 390.747524,354.370454 391.832608,354.370454 L416.1385,354.370454 C417.006568,354.370454 417.874636,353.718682 417.874636,352.632396 C417.657619,351.546109 417.006568,350.894337 416.1385,350.894337 Z" id="Shape" fill="#0065C3"></path>
                    <path d="M432.053073,350.894337 L424.240465,350.894337 C423.372397,350.894337 422.504329,351.546109 422.504329,352.632396 C422.504329,353.501425 423.15538,354.370454 424.240465,354.370454 L432.053073,354.370454 C432.92114,354.370454 433.789208,353.718682 433.789208,352.632396 C433.789208,351.546109 433.138157,350.894337 432.053073,350.894337 Z" id="Shape" fill="#0065C3"></path>
                    <path d="M431.908395,341.624693 L414.981077,341.624693 C414.113009,341.624693 413.244942,342.276465 413.244942,343.362751 C413.244942,344.449038 413.895993,345.10081 414.981077,345.10081 L431.908395,345.10081 C432.776462,345.10081 433.64453,344.449038 433.64453,343.362751 C433.64453,342.276465 432.993479,341.624693 431.908395,341.624693 Z" id="Shape" fill="#0065C3"></path>
                    <path d="M407.674842,345.10081 C408.542909,345.10081 409.410977,344.449038 409.410977,343.362751 C409.410977,342.276465 408.759926,341.624693 407.674842,341.624693 L402.249419,341.624693 C401.381352,341.624693 400.513284,342.276465 400.513284,343.362751 C400.513284,344.449038 401.164335,345.10081 402.249419,345.10081 L407.674842,345.10081 Z" id="Shape" fill="#0065C3"></path>
                    <path d="M460.736135,329.476117 L485.042027,329.476117 C485.910095,329.476117 486.778163,328.824345 486.778163,327.738058 C486.778163,326.869029 486.127112,326 485.042027,326 L460.736135,326 C459.868068,326 459,326.651772 459,327.738058 C459,328.607087 459.868068,329.476117 460.736135,329.476117 Z" id="Shape" fill="#0065C3"></path>
                    <path d="M493.736135,329.476117 L501.548743,329.476117 C502.416811,329.476117 503.284879,328.824345 503.284879,327.738058 C503.284879,326.869029 502.633828,326 501.548743,326 L493.736135,326 C492.868068,326 492,326.651772 492,327.738058 C492,328.607087 492.868068,329.476117 493.736135,329.476117 Z" id="Shape" fill="#0065C3"></path>
                    <path d="M500.663453,335 L483.736135,335 C482.868068,335 482,335.651772 482,336.738058 C482,337.607087 482.651051,338.476117 483.736135,338.476117 L500.663453,338.476117 C501.531521,338.476117 502.399588,337.824345 502.399588,336.738058 C502.399588,335.651772 501.531521,335 500.663453,335 Z" id="Shape" fill="#0065C3"></path>
                    <path d="M471.736135,335 C470.868068,335 470,335.651772 470,336.738058 C470,337.607087 470.651051,338.476117 471.736135,338.476117 L477.161558,338.476117 C478.029625,338.476117 478.897693,337.824345 478.897693,336.738058 C478.897693,335.869029 478.246642,335 477.161558,335 L471.736135,335 Z" id="Shape" fill="#0065C3"></path>
                </g>
                <g id="mobile" transform="translate(267.422103, 159.986276)" fill-rule="nonzero" fill="#FFCD5B">
                    <path d="M201.141052,10.35412 C204.010476,10.35412 206.282103,8.06658188 206.282103,5.17706002 C206.282103,2.28753815 204.010476,0 201.141052,0 C198.271628,0 196,2.28753815 196,5.17706002 C196,8.06658188 198.391187,10.35412 201.141052,10.35412 Z M201.141052,1.80595117 C203.054001,1.80595117 204.488713,3.37110885 204.488713,5.17706002 C204.488713,6.98301118 202.934442,8.54816886 201.141052,8.54816886 C199.347662,8.54816886 197.79339,7.10340793 197.79339,5.17706002 C197.79339,3.2507121 199.347662,1.80595117 201.141052,1.80595117 Z" id="Shape"></path>
                    <path d="M7.3030322,42 C3.56518971,42 0.606064398,44.9798512 0.606064398,48.7438738 C0.606064398,52.5078964 3.56518971,55.4877477 7.3030322,55.4877477 C11.0408747,55.4877477 14,52.5078964 14,48.7438738 C14,44.9798512 11.0408747,42 7.3030322,42 Z M7.3030322,53.1352335 C4.8111372,53.1352335 2.94221596,51.096388 2.94221596,48.7438738 C2.94221596,46.2345254 4.96688064,44.3525141 7.3030322,44.3525141 C9.79492719,44.3525141 11.6638484,46.3913597 11.6638484,48.7438738 C11.6638484,51.2532222 9.63918376,53.1352335 7.3030322,53.1352335 Z" id="Shape"></path>
                </g>
                <g id="mountain" transform="translate(139.000000, 97.000000)">
                    <path d="M163.874951,13.9686 C153.169646,12.4806 143.117594,19.8636 141.461834,30.5103 C139.804484,41.1561 147.154607,51.2199 157.813877,53.0043 C159.216878,53.2444087 160.641184,52.7160963 161.548389,51.6190711 C162.455595,50.5220458 162.707298,49.0236699 162.208351,47.690347 C161.709404,46.357024 160.535926,45.3921658 159.131507,45.1605 C152.637044,44.0715 148.323014,38.1414 149.319962,31.7343 C150.316922,25.3287 156.250988,20.9385 162.774026,21.8442 C169.297064,22.7502 173.772227,28.5585 172.957043,34.9902 C172.774873,36.4010547 173.359801,37.8018234 174.491131,38.663989 C175.622461,39.5261546 177.127983,39.7184787 178.439656,39.1683965 C179.751328,38.6183143 180.669489,37.409559 180.847712,35.9982 C182.202632,25.3089 174.581057,15.4545 163.874951,13.9686 L163.874951,13.9686 Z" id="Shape" fill="#FFCD5B" fill-rule="nonzero"></path>
                    <polygon id="Shape" fill="#FFCD5B" points="157.147919 0 157.147919 7.8906 165.083831 7.8906 165.083831 0"></polygon>
                    <polygon id="Shape" fill="#FFCD5B" points="127.310858 29.5491 127.310858 37.4865 135.261059 37.4865 135.261059 29.5491"></polygon>
                    <polygon id="Shape" fill="#FFCD5B" points="140.005301 6.9921 134.424446 12.6351 140.050544 18.2157 145.631402 12.573"></polygon>
                    <polygon id="Shape" fill="#FFCD5B" points="182.226452 6.9921 176.600351 12.573 182.179619 18.2157 187.806512 12.6351"></polygon>
                    <polygon id="Shape" fill="#FFCD5B" points="140.050544 48.834 134.424446 54.4155 140.004509 60.0432 145.631402 54.4776"></polygon>
                    <path d="M67.73357,236.7944 C66.1167605,236.794659 64.6617586,237.775946 64.0554199,239.27503 C63.4490811,240.774115 63.8126507,242.491236 64.9745,243.6158 L76.878368,255.5222 C77.8720405,256.566019 79.3533621,256.989054 80.7482709,256.627365 C82.1431797,256.265676 83.23244,255.176109 83.5939269,253.780909 C83.9554138,252.385708 83.5323129,250.904154 82.48859,249.9104 L70.584722,238.004 C69.8372619,237.231437 68.8084448,236.795177 67.733582,236.795 L67.73357,236.7944 Z" id="Shape" stroke="#F5F7F9" stroke-width="2" fill="#0065C3"></path>
                    <path d="M108.52913,178.362408 L3.5,299 C2.40031972,300.1474 0.644588878,302.826801 1,304.5 C1.35541112,306.173199 4.06922457,306.588676 5.5,307 C6.93077543,307.411324 10.0225243,305.790016 11,304.5 L111.335036,188.211214 L128.384786,208.127152 C129.380867,209.335482 130.856713,209.820569 132.244748,209.39586 C133.632783,208.971151 134.716846,207.702787 135.080034,206.07855 C135.443221,204.454312 135.028973,202.727148 133.996598,201.561281 L114.14015,178.362408 C113.381311,177.473189 112.34691,176.981826 111.27314,177.000514 C110.241999,177.019996 109.257837,177.50845 108.52913,178.362408 Z" id="Shape" stroke="#F5F7F9" stroke-width="3" fill="#0065C3"></path>
                    <path d="M226.221632,231.8412 C225.191777,231.869918 224.213455,232.298096 223.493522,233.0352 L206.458853,250.0413 L189.44006,233.0352 C187.890431,231.485929 185.378669,231.485929 183.82904,233.0352 L166.809455,250.0413 L149.790659,233.0352 C148.24103,231.485931 145.729271,231.485931 144.179642,233.0352 L127.144973,250.0413 L120.015512,242.9103 C119.010445,241.90746 117.546786,241.517147 116.175957,241.886411 C114.805128,242.255674 113.735427,243.328404 113.369855,244.700456 C113.004283,246.072509 113.398389,247.535402 114.403697,248.538 L124.354943,258.4599 C125.902736,259.998617 128.402291,259.998617 129.950084,258.4599 L146.985548,241.4529 L164.004341,258.4599 C165.55397,260.009171 168.065732,260.009171 169.615361,258.4599 L186.634154,241.4529 L203.652947,258.4599 C205.202667,260.009699 207.715039,260.009699 209.264759,258.4599 L229.088666,238.647 C230.253787,237.507113 230.603612,235.77061 229.970755,234.268381 C229.337899,232.766151 227.851055,231.803682 226.221656,231.8415 L226.221632,231.8412 Z" id="Shape" stroke="#F5F7F9" stroke-width="2" fill="#0065C3"></path>
                    <path d="M162.950231,89.5069288 L162.950231,165.66662 L61.610585,280.053737 L47.9557025,280.053737 C46.5238951,280.029522 45.1915609,280.876678 44.4693838,282.270492 C43.7472067,283.664305 43.7472067,285.388575 44.4693838,286.782389 C45.1915609,288.176202 46.5238951,289.023359 47.9557025,288.999143 L107.367095,288.999143 C108.798902,289.023359 110.131237,288.176202 110.853414,286.782389 C111.575591,285.388575 111.575591,283.664305 110.853414,282.270492 C110.131237,280.876678 108.798902,280.029522 107.367095,280.053737 L72.817541,280.053737 L166.809446,173.965244 L260.631488,279.599333 L180.837389,279.599333 C175.470845,279.497904 175.470845,288.630616 180.837389,288.544739 L270.008849,288.544739 C272.052749,288.544739 273.77678,286.833961 273.992681,284.543345 C274.072181,282.971188 273.595811,281.669509 272.860781,280.717424 L170.87105,165.910727 L170.87105,146.063341 L196.228982,134.234633 L208.628945,140.052629 L208.628945,167.640776 C208.627358,170.862853 211.557095,173.029388 214.178051,171.746643 L245.922494,156.092014 C249.123689,154.506333 249.076856,149.370281 245.842994,147.863038 L228.467945,139.703035 L228.467945,116.099377 C228.388445,114.263503 227.443205,112.728536 226.018445,112.06654 L168.482681,85.2299849 C167.998481,84.9933161 167.476211,84.8716007 166.947581,84.8614577 C164.681393,84.8688959 162.870857,86.9695008 162.950231,89.5069288 Z M170.886146,96.0416933 L214.131233,116.221092 L170.886146,136.383248 L170.886146,96.0416933 Z M220.547906,122.895153 L220.547906,135.964682 L206.583464,129.413013 L220.547906,122.895153 Z M216.57995,143.791996 L234.265493,152.09062 L216.57995,160.809162 L216.57995,143.791996 Z" id="Shape" stroke="#F5F7F9" stroke-width="3" fill="#0065C3"></path>
                    <path d="M63.06791,69.5079 C57.356084,68.1429 51.268022,68.3559 45.4903151,70.3149 C33.9372839,74.2329 25.6298966,84.4518 24.1622528,96.561 C23.963071,97.9844506 24.5476206,99.4045821 25.6910707,100.275179 C26.8345207,101.145777 28.3587729,101.33124 29.6775651,100.760236 C30.9963573,100.189232 31.9042809,98.9506968 32.0521277,97.521 C33.1530587,88.4301 39.3554213,80.7903 48.0319025,77.8479 C56.709176,74.9049 66.284978,77.1969 72.693716,83.739 C73.6846756,84.7697857 75.1523881,85.1895535 76.5383868,84.8385811 C77.9243856,84.4876087 79.0155579,83.4198619 79.3967112,82.0416201 C79.7778644,80.6633783 79.3903921,79.1865612 78.381728,78.1731 C74.114528,73.8147 68.778941,70.8714 63.06791,69.507 L63.06791,69.5079 Z" id="Shape" fill="#FFFFFF" fill-rule="nonzero"></path>
                    <path d="M81.698807,47.4003 C69.511571,49.2483 60.173102,59.2002 59.549216,71.2908 C59.4352358,72.7330253 60.1136055,74.1233263 61.3204289,74.9208543 C62.5272523,75.7183822 64.0719846,75.7972158 65.3537009,75.1266876 C66.6354172,74.4561594 67.4517481,73.1421386 67.485128,71.6958 C67.913768,63.4479 74.261372,56.5716 82.891814,55.2627 C91.523051,53.9547 99.828059,58.6761 102.857009,66.4254 C103.330383,67.8087441 104.524771,68.8205411 105.966908,69.0598749 C107.409045,69.2992086 108.866141,68.7274458 109.760833,67.5711428 C110.655526,66.4148398 110.843394,64.8606468 110.249996,63.5244 C105.83357,52.2234 93.886838,45.5541 81.698807,47.4027 L81.698807,47.4003 Z" id="Shape" fill="#FFFFFF" fill-rule="nonzero"></path>
                    <path d="M105.646247,62.7024 C102.474422,63.0024 99.379589,64.1994 96.780059,66.252 C95.6141457,67.1150153 95.0108388,68.5447368 95.2059692,69.9822903 C95.4010995,71.4198439 96.3636793,72.636937 97.7174387,73.1578114 C99.0711981,73.6786858 100.601152,73.4206234 101.709245,72.4845 C104.468315,70.3035 108.228314,69.9495 111.350927,71.5695 C114.472745,73.1895 116.335676,76.4631 116.140415,79.9722 C116.042819,81.3998062 116.719852,82.7697231 117.913128,83.5591258 C119.106404,84.3485284 120.631781,84.4356005 121.907105,83.7871111 C123.182428,83.1386217 124.010897,81.8546423 124.076327,80.4252 C124.449377,73.8117 120.887834,67.5696 115.008527,64.5192 C112.068467,62.9922 108.818072,62.4012 105.646247,62.7042 L105.646247,62.7024 Z" id="Shape" fill="#FFFFFF" fill-rule="nonzero"></path>
                    <path d="M216.946664,3.2313 C214.828934,3.1413 212.700893,3.2313 210.607775,3.5883 C196.407587,5.7993 185.511782,17.0154 183.931427,31.0743 C179.826944,31.2243 176.678138,32.2083 173.515046,32.8893 C161.949314,36.7803 153.616526,46.9371 152.140946,58.9965 C151.370996,64.356 159.490277,65.3451 160.030025,59.9565 C161.134145,50.9385 167.352371,43.3512 176.057426,40.4229 C178.329926,39.6519 180.706421,39.2289 183.094814,39.1659 C189.746438,38.9859 196.152002,41.5719 200.795438,46.281 C204.514952,50.1036 210.229157,44.484 206.469164,40.7001 C202.486127,36.6624 197.295002,33.7476 191.914169,32.2824 C193.124639,21.6891 200.908943,13.1259 211.831739,11.4306 C213.407339,11.1906 214.998008,11.0976 216.59027,11.1606 C226.184324,11.5896 234.609188,17.4153 237.965162,26.199 C238.819232,28.413 241.411625,29.3907 243.514268,28.29 C248.018006,25.92 253.411538,26.592 257.4803,29.871 C261.47207,33.0921 263.109575,38.3055 261.680825,43.1877 C259.984565,48.3846 267.933194,50.7111 269.306381,45.4197 C271.632071,37.4751 268.925381,28.8789 262.4714,23.6694 C257.023895,19.2801 250.261145,17.9505 243.71588,19.6848 C238.498562,10.0248 228.338564,3.7272 216.931583,3.2208 L216.946664,3.2313 Z" id="Shape" fill="#FFFFFF" fill-rule="nonzero"></path>
                    <path d="M145.113875,285.0242 C145.113875,287.2172 143.336675,288.9929 141.145919,288.9929 C138.954389,288.9929 137.177963,287.2169 137.177963,285.0242 C137.177963,282.8312 138.954383,281.0555 141.145919,281.0555 C143.336669,281.0555 145.113875,282.8315 145.113875,285.0242 Z" id="Shape" stroke="#F5F7F9" stroke-width="2" fill="#0065C3" fill-rule="nonzero"></path>
                    <path d="M155.092106,281.0546 C153.660299,281.033113 152.327965,281.784808 151.605788,283.021561 C150.88361,284.258314 150.88361,285.788286 151.605788,287.025039 C152.327965,288.261792 153.660299,289.013487 155.092106,288.992 L166.887233,288.992 C168.31904,289.013487 169.651374,288.261792 170.373551,287.025039 C171.095729,285.788286 171.095729,284.258314 170.373551,283.021561 C169.651374,281.784808 168.31904,281.033113 166.887233,281.0546 L155.092106,281.0546 Z" id="Shape" stroke="#F5F7F9" stroke-width="2" fill="#0065C3"></path>
                    <path d="M121.363289,281.0546 C119.931482,281.033113 118.599148,281.784808 117.876971,283.021561 C117.154793,284.258314 117.154793,285.788286 117.876971,287.025039 C118.599148,288.261792 119.931482,289.013487 121.363289,288.992 L127.206878,288.992 C128.638685,289.013487 129.971019,288.261792 130.693196,287.025039 C131.415374,285.788286 131.415374,284.258314 130.693196,283.021561 C129.971019,281.784808 128.638685,281.033113 127.206878,281.0546 L121.363289,281.0546 Z" id="Shape" stroke="#F5F7F9" stroke-width="2" fill="#0065C3"></path>
                </g>
                <g id="person" transform="translate(115.785714, 368.500000) scale(-1, 1) translate(-115.785714, -368.500000) translate(96.285714, 341.000000)" stroke="#0065C3" fill="#0065C3">
                    <path d="M31.0595935,12.7552577 C29.2275901,12.7552577 27.718554,14.2643342 27.718554,16.0964235 L27.718554,21.1081301 L29.9459134,21.1081301 L29.9459134,16.0964235 C29.9459134,15.4675714 30.4312576,14.9826735 31.0595935,14.9826735 L34.9574727,14.9826735 C35.5858112,14.9826735 36.0711529,15.4684133 36.0711529,16.0964235 C36.0711529,16.6974949 35.579133,17.2134566 34.9661596,17.2100893 L34.9661596,17.2100893 L32.1777278,17.2100893 L32.1777278,19.4375893 L34.9574727,19.4375893 C36.808186,19.4375893 38.3009629,17.915801 38.3029673,16.0964235 C38.3029673,14.2643342 36.7939311,12.7552577 34.9619277,12.7552577 L31.0595935,12.7552577 Z" id="Shape"></path>
                    <path d="M21.8412203,14.4257985 C20.3802952,14.4257985 18.9474343,14.8349311 17.7083542,15.609 L10.6957355,19.9943801 L4.33127722,19.9943801 C2.49927464,19.9943801 0.990237679,21.5035408 0.990237679,23.3355459 L0.990237679,23.892 C0.990237679,25.7240893 2.49927464,27.2331658 4.33127722,27.2331658 L11.8789084,27.2331658 L20.4970083,22.0604158 L19.3485822,20.150625 L11.2612621,25.00575 L4.33127722,25.00575 C3.7029387,25.00575 3.21759793,24.5200102 3.21759793,23.892 L3.21759793,23.3355459 C3.21759793,22.7075357 3.70294207,22.2218801 4.33127722,22.2218801 L11.3352098,22.2218801 L18.887296,17.4972398 C19.7724486,16.9441531 20.7974792,16.6532143 21.8412203,16.6532143 L24.3775145,16.6532143 C26.2358009,16.6532143 27.718554,18.1358571 27.718554,19.9943801 L27.718554,34.8078444 C27.718554,36.9330612 28.1254895,39.0381582 28.9148688,41.0115077 L34.4788136,54.9330459 L36.5495897,54.1021531 L30.9811908,40.1849082 C30.2971647,38.4746327 29.9459134,36.649699 29.9459134,34.8078444 L29.9459134,19.9943801 C29.9459134,16.9321148 27.4396889,14.4257985 24.3775145,14.4257985 L21.8412203,14.4257985 Z" id="Shape"></path>
                    <polygon id="Shape" points="23.1636036 39.5714617 21.1407154 40.5067423 27.8227944 54.9851556 29.8456827 54.049875"></polygon>
                    <path d="M23.0333032,36.4652526 L18.5480687,40.9549362 C17.2639957,42.2389898 16.6880009,44.0695638 17.0036173,45.8579617 L18.2696489,53.0405969 L20.4622615,52.653352 L19.1962308,45.4707168 C19.0069017,44.3957755 19.3521473,43.3014719 20.1228118,42.5298444 L24.6080464,38.0444541 L23.0333032,36.4652526 Z" id="Shape"></path>
                    <path d="M17.1385957,22.2218801 L17.1385957,31.0490434 C17.1385957,31.8925638 16.8207519,32.7060306 16.2467606,33.3241071 L11.8181017,38.0924388 C10.5531839,39.454699 10.0520284,41.3607857 10.4825766,43.1694719 L12.7141687,52.5489643 L14.8807214,52.0312347 L12.648907,42.6559515 C12.3900843,41.5687194 12.6889784,40.4251684 13.449418,39.6063138 L17.8780778,34.8380663 C18.8342831,33.8082474 19.3659535,32.4539847 19.3659535,31.0489592 L19.3659535,22.2217959 L17.1385957,22.2218801 Z" id="Shape"></path>
                    <polygon id="Shape" points="3.21759793 28.9042117 3.21759793 51.1786224 5.44495735 51.1786224 5.44495735 28.9042117"></polygon>
                    <polygon id="Shape" points="3.21759793 16.6532143 3.21759793 18.8807143 5.44495735 18.8807143 5.44495735 16.6532143"></polygon>
                    <path d="M35.344588,17.7320281 L33.4564551,18.9110204 L35.7535312,22.5829439 C35.9629044,22.9171531 36.0711562,23.3069235 36.0711562,23.7009031 L36.0711562,34.4727934 C36.0711562,35.1008036 35.5855932,35.5865434 34.9574761,35.5865434 L28.8322341,35.5865434 L28.8322341,37.8139592 L34.9574727,37.8139592 C36.7894761,37.8139592 38.2985123,36.3048827 38.2985123,34.4727934 L38.2985123,23.7009031 C38.2985123,22.8893724 38.0715447,22.0919847 37.6414419,21.4039515 L35.344588,17.7320281 Z" id="Shape"></path>
                    <path d="M23.5770018,0.504260204 C20.2072287,0.504260204 17.4517624,3.25984439 17.4517624,6.62971684 C17.4517624,9.99942092 20.2072287,12.7552577 23.5770018,12.7552577 C26.9467741,12.7552577 29.7022404,9.99942092 29.7022404,6.62971684 C29.7022404,3.25984439 26.9467741,0.504260204 23.5770018,0.504260204 Z M23.5770018,2.73167602 C25.7428861,2.73167602 27.474881,4.46358673 27.474881,6.62971684 C27.474881,8.79567857 25.7428861,10.5277577 23.5770018,10.5277577 C21.4111167,10.5277577 19.6791218,8.79567857 19.6791218,6.62971684 C19.6791218,4.46358673 21.4111167,2.73167602 23.5770018,2.73167602 Z" id="Shape" fill-rule="nonzero"></path>
                </g>
                <g id="person-copy" transform="translate(62.642857, 370.000000) scale(-1, 1) translate(-62.642857, -370.000000) translate(44.142857, 344.000000)" stroke="#0065C3" fill="#0065C3">
                    <path d="M29.3654339,12.0595163 C27.6333579,12.0595163 26.2066329,13.4862796 26.2066329,15.2184367 L26.2066329,19.9567776 L28.3125,19.9567776 L28.3125,15.2184367 C28.3125,14.6238857 28.7713708,14.1654367 29.3654339,14.1654367 L33.0507015,14.1654367 C33.644767,14.1654367 34.1036354,14.6246816 34.1036354,15.2184367 C34.1036354,15.7867224 33.638453,16.2745408 33.0589146,16.2713571 L33.0589146,16.2713571 L30.422579,16.2713571 L30.422579,18.3773571 L33.0507015,18.3773571 C34.8004667,18.3773571 36.2118194,16.9385755 36.2137145,15.2184367 C36.2137145,13.4862796 34.7869894,12.0595163 33.0549135,12.0595163 L29.3654339,12.0595163 Z" id="Shape"></path>
                    <path d="M20.649881,13.6389367 C19.2686427,13.6389367 17.9139379,14.0257531 16.742444,14.7576 L10.1123318,18.9037776 L4.09502573,18.9037776 C2.36295057,18.9037776 0.936224714,20.3306204 0.936224714,22.062698 L0.936224714,22.5888 C0.936224714,24.3209571 2.36295057,25.7477204 4.09502573,25.7477204 L11.230968,25.7477204 L19.3789896,20.8571204 L18.293205,19.0515 L10.6470114,23.6418 L4.09502573,23.6418 C3.50096022,23.6418 3.04209259,23.1825551 3.04209259,22.5888 L3.04209259,22.062698 C3.04209259,21.4689429 3.50096341,21.0097776 4.09502573,21.0097776 L10.7169257,21.0097776 L17.8570799,16.5428449 C18.6939514,16.0199265 19.6630712,15.7448571 20.649881,15.7448571 L23.0478319,15.7448571 C24.8047572,15.7448571 26.2066329,17.1466286 26.2066329,18.9037776 L26.2066329,32.9092347 C26.2066329,34.9185306 26.5913719,36.9088041 27.3376942,38.7745163 L32.5981511,51.936698 L34.5559757,51.1511265 L29.2913076,37.9930041 C28.6445921,36.3760163 28.3125,34.6506245 28.3125,32.9092347 L28.3125,18.9037776 C28.3125,16.0085449 25.9429786,13.6389367 23.0478319,13.6389367 L20.649881,13.6389367 Z" id="Shape"></path>
                    <polygon id="Shape" points="21.9001343 37.4130184 19.9875854 38.2972837 26.3051875 51.9859653 28.2177363 51.1017"></polygon>
                    <path d="M21.7769412,34.4762388 L17.5363558,38.7210306 C16.3223232,39.9350449 15.7777463,41.6657694 16.0761473,43.3566184 L17.2731226,50.1474735 L19.3461381,49.781351 L18.1491636,42.9904959 C17.9701616,41.9741878 18.2965757,40.9395735 19.0252039,40.2100347 L23.2657893,35.969302 L21.7769412,34.4762388 Z" id="Shape"></path>
                    <path d="M16.2037632,21.0097776 L16.2037632,29.3554592 C16.2037632,30.1529694 15.9032563,30.9220653 15.3605737,31.5064286 L11.173478,36.0146694 C9.97755571,37.3026245 9.50373596,39.1047429 9.91079965,40.8147735 L12.0206686,49.6826571 L14.0690457,49.1931673 L11.9589666,40.3292633 C11.7142615,39.3013347 11.9968523,38.2201592 12.7158134,37.4459694 L16.9029099,32.9378082 C17.8069585,31.9641612 18.3096287,30.6837673 18.3096287,29.3553796 L18.3096287,21.009698 L16.2037632,21.0097776 Z" id="Shape"></path>
                    <polygon id="Shape" points="3.04209259 27.3276184 3.04209259 48.3870612 5.14795967 48.3870612 5.14795967 27.3276184"></polygon>
                    <polygon id="Shape" points="3.04209259 15.7448571 3.04209259 17.8508571 5.14795967 17.8508571 5.14795967 15.7448571"></polygon>
                    <path d="M33.4167014,16.7648265 L31.6315576,17.8795102 L33.8033386,21.3511469 C34.0012915,21.6671265 34.1036386,22.0356367 34.1036386,22.4081265 L34.1036386,32.5924592 C34.1036386,33.1862143 33.6445609,33.6454592 33.0507047,33.6454592 L27.2595668,33.6454592 L27.2595668,35.7513796 L33.0507015,35.7513796 C34.7827774,35.7513796 36.2095025,34.3246163 36.2095025,32.5924592 L36.2095025,22.4081265 C36.2095025,21.6408612 35.994915,20.8869673 35.5882723,20.2364633 L33.4167014,16.7648265 Z" id="Shape"></path>
                    <path d="M22.2909835,0.476755102 C19.1050162,0.476755102 16.4998481,3.08203469 16.4998481,6.26809592 C16.4998481,9.45399796 19.1050162,12.0595163 22.2909835,12.0595163 C25.47695,12.0595163 28.0821182,9.45399796 28.0821182,6.26809592 C28.0821182,3.08203469 25.47695,0.476755102 22.2909835,0.476755102 Z M22.2909835,2.58267551 C24.3387287,2.58267551 25.9762511,4.22011837 25.9762511,6.26809592 C25.9762511,8.31591429 24.3387287,9.95351633 22.2909835,9.95351633 C20.2432376,9.95351633 18.6057151,8.31591429 18.6057151,6.26809592 C18.6057151,4.22011837 20.2432376,2.58267551 22.2909835,2.58267551 Z" id="Shape" fill-rule="nonzero"></path>
                </g>
                <g id="person-copy-2" transform="translate(165.500000, 341.001430) scale(-1, 1) rotate(40.000000) translate(-165.500000, -341.001430) translate(146.000000, 313.501430)" fill="#0065C3">
                    <path d="M31.0595935,12.7552577 C29.2275901,12.7552577 27.718554,14.2643342 27.718554,16.0964235 L27.718554,21.1081301 L29.9459134,21.1081301 L29.9459134,16.0964235 C29.9459134,15.4675714 30.4312576,14.9826735 31.0595935,14.9826735 L34.9574727,14.9826735 C35.5858112,14.9826735 36.0711529,15.4684133 36.0711529,16.0964235 C36.0711529,16.6974949 35.579133,17.2134566 34.9661596,17.2100893 L34.9661596,17.2100893 L32.1777278,17.2100893 L32.1777278,19.4375893 L34.9574727,19.4375893 C36.808186,19.4375893 38.3009629,17.915801 38.3029673,16.0964235 C38.3029673,14.2643342 36.7939311,12.7552577 34.9619277,12.7552577 L31.0595935,12.7552577 Z" id="Shape" stroke="#0065C3"></path>
                    <path d="M21.8412203,14.4257985 C20.3802952,14.4257985 18.9474343,14.8349311 17.7083542,15.609 L10.6957355,19.9943801 L4.33127722,19.9943801 C2.49927464,19.9943801 0.990237679,21.5035408 0.990237679,23.3355459 L0.990237679,23.892 C0.990237679,25.7240893 2.49927464,27.2331658 4.33127722,27.2331658 L11.8789084,27.2331658 L20.4970083,22.0604158 L19.3485822,20.150625 L11.2612621,25.00575 L4.33127722,25.00575 C3.7029387,25.00575 3.21759793,24.5200102 3.21759793,23.892 L3.21759793,23.3355459 C3.21759793,22.7075357 3.70294207,22.2218801 4.33127722,22.2218801 L11.3352098,22.2218801 L18.887296,17.4972398 C19.7724486,16.9441531 20.7974792,16.6532143 21.8412203,16.6532143 L24.3775145,16.6532143 C26.2358009,16.6532143 27.718554,18.1358571 27.718554,19.9943801 L27.718554,34.8078444 C27.718554,36.9330612 28.1254895,39.0381582 28.9148688,41.0115077 L34.4788136,54.9330459 L36.5495897,54.1021531 L30.9811908,40.1849082 C30.2971647,38.4746327 29.9459134,36.649699 29.9459134,34.8078444 L29.9459134,19.9943801 C29.9459134,16.9321148 27.4396889,14.4257985 24.3775145,14.4257985 L21.8412203,14.4257985 Z" id="Shape" stroke="#0065C3"></path>
                    <polygon id="Shape" stroke="#0065C3" points="23.1636036 39.5714617 21.1407154 40.5067423 27.8227944 54.9851556 29.8456827 54.049875"></polygon>
                    <path d="M23.0333032,36.4652526 L18.5480687,40.9549362 C17.2639957,42.2389898 16.6880009,44.0695638 17.0036173,45.8579617 L18.2696489,53.0405969 L20.4622615,52.653352 L19.1962308,45.4707168 C19.0069017,44.3957755 19.3521473,43.3014719 20.1228118,42.5298444 L24.6080464,38.0444541 L23.0333032,36.4652526 Z" id="Shape"></path>
                    <path d="M17.1385957,22.2218801 L17.1385957,31.0490434 C17.1385957,31.8925638 16.8207519,32.7060306 16.2467606,33.3241071 L11.8181017,38.0924388 C10.5531839,39.454699 10.0520284,41.3607857 10.4825766,43.1694719 L12.7141687,52.5489643 L14.8807214,52.0312347 L12.648907,42.6559515 C12.3900843,41.5687194 12.6889784,40.4251684 13.449418,39.6063138 L17.8780778,34.8380663 C18.8342831,33.8082474 19.3659535,32.4539847 19.3659535,31.0489592 L19.3659535,22.2217959 L17.1385957,22.2218801 Z" id="Shape" stroke="#0065C3"></path>
                    <polygon id="Shape" stroke="#0065C3" points="3.21759793 28.9042117 3.21759793 51.1786224 5.44495735 51.1786224 5.44495735 28.9042117"></polygon>
                    <polygon id="Shape" points="3.21759793 16.6532143 3.21759793 18.8807143 5.44495735 18.8807143 5.44495735 16.6532143"></polygon>
                    <path d="M35.344588,17.7320281 L33.4564551,18.9110204 L35.7535312,22.5829439 C35.9629044,22.9171531 36.0711562,23.3069235 36.0711562,23.7009031 L36.0711562,34.4727934 C36.0711562,35.1008036 35.5855932,35.5865434 34.9574761,35.5865434 L28.8322341,35.5865434 L28.8322341,37.8139592 L34.9574727,37.8139592 C36.7894761,37.8139592 38.2985123,36.3048827 38.2985123,34.4727934 L38.2985123,23.7009031 C38.2985123,22.8893724 38.0715447,22.0919847 37.6414419,21.4039515 L35.344588,17.7320281 Z" id="Shape" stroke="#0065C3"></path>
                    <path d="M23.5770018,0.504260204 C20.2072287,0.504260204 17.4517624,3.25984439 17.4517624,6.62971684 C17.4517624,9.99942092 20.2072287,12.7552577 23.5770018,12.7552577 C26.9467741,12.7552577 29.7022404,9.99942092 29.7022404,6.62971684 C29.7022404,3.25984439 26.9467741,0.504260204 23.5770018,0.504260204 Z M23.5770018,2.73167602 C25.7428861,2.73167602 27.474881,4.46358673 27.474881,6.62971684 C27.474881,8.79567857 25.7428861,10.5277577 23.5770018,10.5277577 C21.4111167,10.5277577 19.6791218,8.79567857 19.6791218,6.62971684 C19.6791218,4.46358673 21.4111167,2.73167602 23.5770018,2.73167602 Z" id="Shape" stroke="#0065C3" fill-rule="nonzero"></path>
                </g>
            </g>
        </g>
    </g>
</svg>