<?xml version="1.0" encoding="UTF-8"?>
<svg width="186px" height="43px" viewBox="0 0 186 43" version="1.1" xmlns="http://www.w3.org/2000/svg" xmlns:xlink="http://www.w3.org/1999/xlink">
    <!-- Generator: Sketch 44.1 (41455) - http://www.bohemiancoding.com/sketch -->
    <title>logo - white</title>
    <desc>Created with Sketch.</desc>
    <defs></defs>
    <g id="Page-1" stroke="none" stroke-width="1" fill="none" fill-rule="evenodd">
        <g id="Final-round" transform="translate(-397.000000, -408.000000)">
            <g id="Dark" transform="translate(-10.000000, 275.000000)">
                <g id="logo---white" transform="translate(408.000000, 135.000000)">
                    <path d="M57.84,17.56 C57.2799972,16.9733304 56.6933364,16.5066684 56.08,16.16 C55.4666636,15.8133316 54.8400032,15.64 54.2,15.64 C53.3199956,15.64 52.5333368,15.7999984 51.84,16.12 C51.1466632,16.4400016 50.5533358,16.866664 50.06,17.4 C49.5666642,17.933336 49.1933346,18.5466632 48.94,19.24 C48.6866654,19.9333368 48.56,20.6533296 48.56,21.4 C48.56,22.1466704 48.6866654,22.8666632 48.94,23.56 C49.1933346,24.2533368 49.5666642,24.866664 50.06,25.4 C50.5533358,25.933336 51.1466632,26.3599984 51.84,26.68 C52.5333368,27.0000016 53.3199956,27.16 54.2,27.16 C54.9466704,27.16 55.6399968,27.0066682 56.28,26.7 C56.9200032,26.3933318 57.4666644,25.9466696 57.92,25.36 L61.12,28.8 C60.6399976,29.2800024 60.0866698,29.6933316 59.46,30.04 C58.8333302,30.3866684 58.2000032,30.6666656 57.56,30.88 C56.9199968,31.0933344 56.3066696,31.2466662 55.72,31.34 C55.1333304,31.4333338 54.6266688,31.48 54.2,31.48 C52.7599928,31.48 51.4000064,31.2400024 50.12,30.76 C48.8399936,30.2799976 47.733338,29.6000044 46.8,28.72 C45.866662,27.8399956 45.1266694,26.7800062 44.58,25.54 C44.0333306,24.2999938 43.76,22.9200076 43.76,21.4 C43.76,19.8799924 44.0333306,18.5000062 44.58,17.26 C45.1266694,16.0199938 45.866662,14.9600044 46.8,14.08 C47.733338,13.1999956 48.8399936,12.5200024 50.12,12.04 C51.4000064,11.5599976 52.7599928,11.32 54.2,11.32 C55.4266728,11.32 56.6599938,11.553331 57.9,12.02 C59.1400062,12.486669 60.226662,13.2266616 61.16,14.24 L57.84,17.56 Z M61.4,11.8 L66.68,11.8 L72.04,25.12 L72.12,25.12 L76.92,11.8 L81.92,11.8 L72.84,35.12 C72.4933316,36.0266712 72.1133354,36.8199966 71.7,37.5 C71.2866646,38.1800034 70.8000028,38.753331 70.24,39.22 C69.6799972,39.686669 69.0200038,40.0333322 68.26,40.26 C67.4999962,40.4866678 66.586672,40.6 65.52,40.6 C64.2666604,40.6 63.040006,40.4400016 61.84,40.12 L62.44,35.8 C62.8133352,35.933334 63.2066646,36.0466662 63.62,36.14 C64.0333354,36.2333338 64.4533312,36.28 64.88,36.28 C65.4666696,36.28 65.959998,36.2266672 66.36,36.12 C66.760002,36.0133328 67.0999986,35.8466678 67.38,35.62 C67.6600014,35.3933322 67.8933324,35.1000018 68.08,34.74 C68.2666676,34.3799982 68.4666656,33.9466692 68.68,33.44 L69.6,31.16 L61.4,11.8 Z M84.84,0.76 L89.64,0.76 L89.64,31 L84.84,31 L84.84,0.76 Z M95.28,11.8 L100.08,11.8 L100.08,31 L95.28,31 L95.28,11.8 Z M94.6,5.28 C94.6,4.5066628 94.8866638,3.8333362 95.46,3.26 C96.0333362,2.6866638 96.7599956,2.4 97.64,2.4 C98.5200044,2.4 99.259997,2.6733306 99.86,3.22 C100.460003,3.7666694 100.76,4.4533292 100.76,5.28 C100.76,6.1066708 100.460003,6.7933306 99.86,7.34 C99.259997,7.8866694 98.5200044,8.16 97.64,8.16 C96.7599956,8.16 96.0333362,7.8733362 95.46,7.3 C94.8866638,6.7266638 94.6,6.0533372 94.6,5.28 Z M104.6,11.8 L109.16,11.8 L109.16,14.88 L109.24,14.88 C109.693336,13.9199952 110.386662,13.0866702 111.32,12.38 C112.253338,11.6733298 113.519992,11.32 115.12,11.32 C116.400006,11.32 117.486662,11.5333312 118.38,11.96 C119.273338,12.3866688 119.999997,12.9466632 120.56,13.64 C121.120003,14.3333368 121.519999,15.1333288 121.76,16.04 C122.000001,16.9466712 122.12,17.8933284 122.12,18.88 L122.12,31 L117.32,31 L117.32,21.28 C117.32,20.746664 117.293334,20.1533366 117.24,19.5 C117.186666,18.8466634 117.046668,18.2333362 116.82,17.66 C116.593332,17.0866638 116.240002,16.6066686 115.76,16.22 C115.279998,15.8333314 114.626671,15.64 113.8,15.64 C112.999996,15.64 112.326669,15.773332 111.78,16.04 C111.233331,16.306668 110.780002,16.6666644 110.42,17.12 C110.059998,17.5733356 109.800001,18.0933304 109.64,18.68 C109.479999,19.2666696 109.4,19.8799968 109.4,20.52 L109.4,31 L104.6,31 L104.6,11.8 Z M141.76,28.12 L141.68,28.12 C140.986663,29.2933392 140.053339,30.146664 138.88,30.68 C137.706661,31.213336 136.440007,31.48 135.08,31.48 C133.586659,31.48 132.260006,31.2200026 131.1,30.7 C129.939994,30.1799974 128.946671,29.4666712 128.12,28.56 C127.293329,27.6533288 126.666669,26.5866728 126.24,25.36 C125.813331,24.1333272 125.6,22.8133404 125.6,21.4 C125.6,19.9866596 125.826664,18.6666728 126.28,17.44 C126.733336,16.2133272 127.366663,15.1466712 128.18,14.24 C128.993337,13.3333288 129.973328,12.6200026 131.12,12.1 C132.266672,11.5799974 133.519993,11.32 134.88,11.32 C135.786671,11.32 136.586663,11.4133324 137.28,11.6 C137.973337,11.7866676 138.586664,12.0266652 139.12,12.32 C139.653336,12.6133348 140.106665,12.926665 140.48,13.26 C140.853335,13.593335 141.159999,13.9199984 141.4,14.24 L141.52,14.24 L141.52,0.76 L146.32,0.76 L146.32,31 L141.76,31 L141.76,28.12 Z M130.4,21.4 C130.4,22.1466704 130.526665,22.8666632 130.78,23.56 C131.033335,24.2533368 131.406664,24.866664 131.9,25.4 C132.393336,25.933336 132.986663,26.3599984 133.68,26.68 C134.373337,27.0000016 135.159996,27.16 136.04,27.16 C136.920004,27.16 137.706663,27.0000016 138.4,26.68 C139.093337,26.3599984 139.686664,25.933336 140.18,25.4 C140.673336,24.866664 141.046665,24.2533368 141.3,23.56 C141.553335,22.8666632 141.68,22.1466704 141.68,21.4 C141.68,20.6533296 141.553335,19.9333368 141.3,19.24 C141.046665,18.5466632 140.673336,17.933336 140.18,17.4 C139.686664,16.866664 139.093337,16.4400016 138.4,16.12 C137.706663,15.7999984 136.920004,15.64 136.04,15.64 C135.159996,15.64 134.373337,15.7999984 133.68,16.12 C132.986663,16.4400016 132.393336,16.866664 131.9,17.4 C131.406664,17.933336 131.033335,18.5466632 130.78,19.24 C130.526665,19.9333368 130.4,20.6533296 130.4,21.4 Z M154.6,23.08 C154.760001,24.5200072 155.319995,25.639996 156.28,26.44 C157.240005,27.240004 158.399993,27.64 159.76,27.64 C160.960006,27.64 161.966663,27.3933358 162.78,26.9 C163.593337,26.4066642 164.306664,25.7866704 164.92,25.04 L168.36,27.64 C167.239994,29.0266736 165.986674,30.0133304 164.6,30.6 C163.213326,31.1866696 161.760008,31.48 160.24,31.48 C158.799993,31.48 157.440006,31.2400024 156.16,30.76 C154.879994,30.2799976 153.773338,29.6000044 152.84,28.72 C151.906662,27.8399956 151.166669,26.7800062 150.62,25.54 C150.073331,24.2999938 149.8,22.9200076 149.8,21.4 C149.8,19.8799924 150.073331,18.5000062 150.62,17.26 C151.166669,16.0199938 151.906662,14.9600044 152.84,14.08 C153.773338,13.1999956 154.879994,12.5200024 156.16,12.04 C157.440006,11.5599976 158.799993,11.32 160.24,11.32 C161.57334,11.32 162.793328,11.553331 163.9,12.02 C165.006672,12.486669 165.953329,13.1599956 166.74,14.04 C167.526671,14.9200044 168.139998,16.0066602 168.58,17.3 C169.020002,18.5933398 169.24,20.0799916 169.24,21.76 L169.24,23.08 L154.6,23.08 Z M164.44,19.48 C164.413333,18.0666596 163.973338,16.9533374 163.12,16.14 C162.266662,15.3266626 161.080008,14.92 159.56,14.92 C158.119993,14.92 156.980004,15.3333292 156.14,16.16 C155.299996,16.9866708 154.786668,18.0933264 154.6,19.48 L164.44,19.48 Z M172.72,11.8 L177.52,11.8 L177.52,14.84 L177.6,14.84 C178.133336,13.7199944 178.893328,12.8533364 179.88,12.24 C180.866672,11.6266636 181.999994,11.32 183.28,11.32 C183.573335,11.32 183.859999,11.3466664 184.14,11.4 C184.420001,11.4533336 184.706665,11.5199996 185,11.6 L185,16.24 C184.599998,16.1333328 184.206669,16.046667 183.82,15.98 C183.433331,15.913333 183.053335,15.88 182.68,15.88 C181.559994,15.88 180.660003,16.0866646 179.98,16.5 C179.299997,16.9133354 178.780002,17.386664 178.42,17.92 C178.059998,18.453336 177.820001,18.986664 177.7,19.52 C177.579999,20.053336 177.52,20.453332 177.52,20.72 L177.52,31 L172.72,31 L172.72,11.8 Z" id="cylinder" fill="#FFFFFF"></path>
                    <g id="form" stroke="#FFFFFF" stroke-width="4" stroke-linecap="round" stroke-linejoin="round">
                        <path d="M30.4,7.99505087 L30.4,30.0066248 L30.4,7.99505087 Z M1.54,7.99505087 L1.54,30.0066248 L1.54,7.99505087 Z M15.9704392,15.525266 C8.00102622,15.525266 1.54054054,12.1093534 1.54054054,7.8956117 C1.54054054,3.68187001 8.00102622,0.265957447 15.9704392,0.265957447 C23.9398522,0.265957447 30.4003378,3.68187001 30.4003378,7.8956117 C30.4003378,12.1093534 23.9398522,15.525266 15.9704392,15.525266 Z" id="oval"></path>
                        <path d="M3.50805664,26.4407331 C2.2573833,27.5705289 1.54054054,28.8856161 1.54054054,30.2892287 C1.54054054,34.5029704 8.00102622,37.918883 15.9704392,37.918883 C23.9398522,37.918883 30.4003378,34.5029704 30.4003378,30.2892287 C30.4003378,28.9268845 29.725028,27.6479368 28.541748,26.5408646 L28.541748,14.1999969 C24.56486,16.399999 20.3925781,17.5 16.0249023,17.5 C11.6572266,17.5 7.48494466,16.399999 3.50805664,14.1999969 L3.50805664,26.4407331 Z" id="Path" fill="#FFFFFF"></path>
                    </g>
                </g>
            </g>
        </g>
    </g>
</svg>