<?xml version="1.0" standalone="no"?>
<!DOCTYPE svg PUBLIC "-//W3C//DTD SVG 1.1//EN" "http://www.w3.org/Graphics/SVG/1.1/DTD/svg11.dtd" >
<svg>
<metadata>
Created by FontForge 20120731 at Fri Aug  5 22:35:45 2016
 By www
Copyright (c) 2012 by Fontfabric LLC. All rights reserved.
</metadata>
<defs>
<font id="IntroW01-Regular" horiz-adv-x="591" >
  <font-face 
    font-family="IntroW01-Regular"
    font-weight="400"
    font-stretch="normal"
    units-per-em="1000"
    panose-1="2 0 0 0 0 0 0 0 0 0"
    ascent="750"
    descent="-250"
    x-height="482"
    cap-height="700"
    bbox="-41 -271.067 1233 930"
    underline-thickness="50"
    underline-position="-100"
    unicode-range="U+0002-2122"
  />
<missing-glyph horiz-adv-x="251" 
 />
    <glyph glyph-name=".notdef" horiz-adv-x="251" 
 />
    <glyph glyph-name=".null" horiz-adv-x="0" 
 />
    <glyph glyph-name="uni000D" unicode="&#xd;" horiz-adv-x="251" 
 />
    <glyph glyph-name="uni0002" horiz-adv-x="0" 
 />
    <glyph glyph-name="uni0009" unicode="&#x9;" horiz-adv-x="251" 
 />
    <glyph glyph-name="uni000A" unicode="&#xa;" horiz-adv-x="0" 
 />
    <glyph glyph-name="space" unicode=" " horiz-adv-x="251" 
 />
    <glyph glyph-name="exclam" unicode="!" horiz-adv-x="273" 
d="M135 -14q-28 0 -47 17t-19 44q0 29 19 45t47 16q27 0 46.5 -16t19.5 -45q0 -27 -19.5 -44t-46.5 -17zM76 701h119l-6 -540h-104z" />
    <glyph glyph-name="quotedbl" unicode="&#x22;" horiz-adv-x="372" 
d="M158 700l-13 -217h-75v217h88zM308 700l-13 -217h-75v217h88z" />
    <glyph glyph-name="numbersign" unicode="#" horiz-adv-x="698" 
d="M43 267h118l22 143h-109v79h121l31 210h97l-30 -210h170l32 210h97l-30 -210h92v-79h-104l-21 -143h93v-78h-104l-27 -189h-101l28 189h-168l-27 -189h-102l28 189h-106v78zM257 265h175l22 148h-175z" />
    <glyph glyph-name="dollar" unicode="$" horiz-adv-x="643" 
d="M155 199q1 -26 14 -45t32.5 -32t43.5 -20.5t48 -9.5v220q-45 5 -88 16.5t-76.5 33t-53.5 55t-20 84.5t20.5 89t53.5 64t76 40.5t88 17.5v68h59v-70q43 -4 83.5 -18.5t72.5 -39.5t51.5 -61.5t20.5 -84.5h-109q-2 26 -12 44t-26.5 30t-37.5 18t-43 9v-206q50 -6 95.5 -17
t80 -33t55 -58.5t20.5 -93.5q0 -50 -22 -87.5t-57.5 -64t-80.5 -41t-91 -18.5v-68h-59v67q-47 4 -91.5 18.5t-79.5 40.5t-56.5 64t-22.5 89h112zM352 93q24 3 48 9t43 18.5t31 31.5t12 47q0 30 -11 48.5t-29.5 29.5t-43 17t-50.5 11v-212zM293 607q-21 -2 -43 -8.5t-40 -19
t-29 -31.5t-11 -44q0 -26 11 -42.5t28 -27t39 -16.5t45 -10v199z" />
    <glyph glyph-name="percent" unicode="%" horiz-adv-x="878" 
d="M555 699h104l-344 -699h-103zM843 157q0 -58 -25.5 -96.5t-64 -57.5t-83 -19t-83 19t-64 57.5t-25.5 96.5q0 57 25.5 95.5t64 57.5t83 19.5t83 -19t64 -58t25.5 -95.5zM586 157q0 -32 12.5 -53t31.5 -31.5t40.5 -10.5t40.5 10.5t31.5 31.5t12.5 53q0 31 -12.5 52.5
t-31.5 31.5t-40.5 10.5t-40.5 -10.5t-31.5 -32t-12.5 -52zM380 540q0 -58 -25.5 -96t-64 -57.5t-83 -19.5t-83 19.5t-64 57.5t-25.5 96t25.5 96.5t64 57.5t83 19t83 -19t64 -57.5t25.5 -96.5zM124 540q0 -31 12.5 -52.5t31 -32t40.5 -10.5t40.5 11t31 31.5t12.5 52.5
t-12.5 53t-31 31.5t-40.5 10.5t-40.5 -10.5t-31 -31.5t-12.5 -53z" />
    <glyph glyph-name="ampersand" unicode="&#x26;" horiz-adv-x="645" 
d="M425 535q-11 98 -112 98q-58 -1 -86.5 -28t-28.5 -69q0 -51 37 -75.5t100 -24.5v-94h-35q-60 0 -98 -33.5t-38 -93.5q0 -28 11 -51.5t30 -40.5t45 -26.5t57 -9.5q67 0 101.5 37.5t34.5 100.5v210h168v-90h-69v-120q0 -111 -61.5 -173.5t-173.5 -62.5q-62 0 -110 18
t-80.5 48.5t-49.5 70.5t-17 85q0 67 33.5 114.5t93.5 70.5q-40 20 -62 57t-21 83q0 38 15 71.5t43 58.5t68.5 39.5t91.5 14.5q103 -1 154 -46.5t56 -138.5h-97z" />
    <glyph glyph-name="quotesingle" unicode="'" horiz-adv-x="223" 
d="M159 700l-14 -220h-74v220h88z" />
    <glyph glyph-name="parenleft" unicode="(" horiz-adv-x="330" 
d="M306 714q-54 -36 -88.5 -104t-51 -152.5t-15.5 -177t19 -176.5t52.5 -151.5t83.5 -101.5l-37 -67q-56 31 -98.5 84t-71 119t-43 142t-15 153.5t13.5 153.5t42.5 142t71 118.5t100.5 83.5z" />
    <glyph glyph-name="parenright" unicode=")" horiz-adv-x="330" 
d="M61 780q57 -30 100 -82.5t71.5 -118t42.5 -141.5t13.5 -154t-15 -154t-43 -142.5t-71 -119.5t-98.5 -84l-37 67q51 36 85.5 104t52 152t18 176t-16.5 176t-51.5 151.5t-87.5 103.5z" />
    <glyph glyph-name="asterisk" unicode="*" horiz-adv-x="419" 
d="M265 543l73 -87l-65 -47l-63 89l-63 -90l-64 49l73 84l-105 30l22 73l102 -38l-6 104h81l-7 -104l99 40l24 -74z" />
    <glyph glyph-name="plus" unicode="+" horiz-adv-x="478" 
d="M56 410h138v137h91v-137h137v-88h-137v-137h-91v137h-138v88z" />
    <glyph glyph-name="comma" unicode="," horiz-adv-x="258" 
d="M129 108q19 0 33.5 -8t23 -20.5t9 -29t-6.5 -34.5l-36 -111h-62l20 83q-20 5 -33.5 20.5t-13.5 38.5q0 28 19 44.5t47 16.5z" />
    <glyph glyph-name="hyphen" unicode="-" horiz-adv-x="465" 
d="M64 380h337v-94h-337v94z" />
    <glyph glyph-name="period" unicode="." horiz-adv-x="260" 
d="M130 -12q-28 0 -47.5 17t-19.5 45q0 29 19.5 46t47.5 17t47.5 -17t19.5 -46q0 -28 -19.5 -45t-47.5 -17z" />
    <glyph glyph-name="slash" unicode="/" horiz-adv-x="508" 
d="M367 700h112l-339 -699h-111z" />
    <glyph glyph-name="zero" unicode="0" horiz-adv-x="656" 
d="M329 711q54 0 101 -16.5t82 -47.5t55.5 -76t20.5 -101v-242q0 -57 -20.5 -101.5t-55.5 -75.5t-82 -47.5t-101 -16.5t-102 16.5t-83 47.5t-55.5 75.5t-20.5 101.5v242q0 56 20.5 101t55.5 76t83 47.5t102 16.5zM329 90q54 0 93 25.5t50 76.5q3 15 5 31.5t2 34.5v181
q0 18 -2 34.5t-5 31.5q-11 51 -50 77.5t-93 26.5t-93.5 -26.5t-50.5 -77.5q-3 -15 -5 -31.5t-2 -34.5v-181q0 -18 2 -34.5t5 -31.5q11 -51 50.5 -76.5t93.5 -25.5z" />
    <glyph glyph-name="one" unicode="1" horiz-adv-x="445" 
d="M63 608v92h224v-610h130v-90h-370v90h128v518h-112z" />
    <glyph glyph-name="two" unicode="2" horiz-adv-x="537" 
d="M263 619q-51 0 -80.5 -30.5t-32.5 -84.5h-94q5 202 211 204q77 0 126 -34t67 -88t3.5 -120.5t-63.5 -130.5q-14 -16 -30 -36.5t-38 -48.5t-50.5 -66t-67.5 -88h270v-96h-441v25l275 359q28 34 42 75t9 76.5t-30.5 59.5t-75.5 24z" />
    <glyph glyph-name="three" unicode="3" horiz-adv-x="576" 
d="M149 197q5 -54 40 -81t89 -27q61 0 98 35t37 98q0 44 -20 73t-51.5 44t-69.5 17.5t-74 -6.5v20l158 235h-282v94h443v-18l-177 -252q43 -2 77.5 -20t57.5 -46.5t35.5 -64.5t12.5 -75q0 -49 -16.5 -91.5t-47.5 -74.5t-76 -50.5t-103 -18.5q-48 0 -89.5 14t-72.5 41
t-50 65.5t-22 88.5h103z" />
    <glyph glyph-name="four" unicode="4" horiz-adv-x="594" 
d="M477 0h-106v147h-344v52l331 501h119v-458h68v-95h-68v-147zM382 564l-218 -326h214v155l6 171h-2z" />
    <glyph glyph-name="five" unicode="5" horiz-adv-x="580" 
d="M174 447q44 10 94 10q55 -1 103.5 -13.5t84.5 -40t57 -71.5t21 -108q0 -47 -16 -90t-47.5 -75.5t-78 -51.5t-107.5 -19q-47 0 -87.5 13.5t-71 40t-49.5 64.5t-23 87h107q5 -55 40 -81.5t87 -26.5q26 0 50.5 8t43.5 24.5t31 42t13 61.5q1 41 -12 68.5t-36 45t-53 25.5
t-64 10q-48 2 -96 -4.5t-86 -15.5v350h413v-98h-318v-155z" />
    <glyph glyph-name="six" unicode="6" horiz-adv-x="598" 
d="M430 704l-171 -272q29 16 63 16q52 1 96 -13.5t76 -43.5t50.5 -71.5t18.5 -96.5q0 -59 -20 -102.5t-55.5 -72.5t-83 -43.5t-101.5 -14.5t-101 14.5t-82.5 43.5t-55.5 72.5t-20 102.5q0 38 12.5 76t32.5 69l212 336h129zM303 89q64 0 104.5 34t40.5 100t-41 100.5
t-104 34.5q-64 0 -104.5 -34.5t-40.5 -100.5t41 -100t104 -34z" />
    <glyph glyph-name="seven" unicode="7" horiz-adv-x="529" 
d="M519 683l-311 -683h-118l271 597h-326v103h484v-17z" />
    <glyph glyph-name="eight" unicode="8" horiz-adv-x="619" 
d="M444 394q57 -26 90.5 -73t34.5 -110q0 -47 -18.5 -87.5t-52 -70.5t-81.5 -47t-107 -17t-107 17t-82 47t-52.5 70t-18.5 86q0 64 33.5 111.5t90.5 73.5q-35 21 -57 54.5t-22 78.5q-1 38 14 71.5t43 58.5t68 39.5t90 14.5q49 0 88.5 -14t68 -38.5t44 -58t15.5 -71.5
q0 -45 -23 -79t-59 -56zM309 429q48 0 80.5 25t32.5 70t-33 70t-79 25q-48 0 -80.5 -25.5t-32.5 -70.5q0 -43 33 -68.5t79 -25.5zM310 87q30 0 56.5 9t46.5 25.5t31.5 40t11.5 52.5q0 30 -11.5 53.5t-31.5 40.5t-47 26t-57 9t-56.5 -9.5t-46 -26.5t-31 -41t-11.5 -54
q0 -29 11.5 -52t31.5 -39t46.5 -25t56.5 -9z" />
    <glyph glyph-name="nine" unicode="9" horiz-adv-x="595" 
d="M169 0l176 275q-29 -17 -66 -17q-53 -1 -97.5 13.5t-77 43.5t-51 71.5t-18.5 96.5q0 58 20 102t55.5 73t83 43.5t101.5 14.5t101 -14.5t82.5 -43.5t55.5 -73t20 -102q0 -42 -12 -77.5t-35 -70.5l-211 -335h-127zM295 617q-64 0 -104.5 -34t-40.5 -100t41 -100.5
t104 -34.5t103.5 34.5t40.5 100.5t-40.5 100t-103.5 34z" />
    <glyph glyph-name="colon" unicode=":" horiz-adv-x="262" 
d="M131 -12q-28 0 -47.5 17t-19.5 45q0 29 19.5 46t47.5 17t47.5 -17t19.5 -46q0 -28 -19.5 -45t-47.5 -17zM131 310q-28 0 -47.5 17t-19.5 45q0 29 19.5 46t47.5 17t47.5 -17t19.5 -46q0 -28 -19.5 -45t-47.5 -17z" />
    <glyph glyph-name="semicolon" unicode=";" horiz-adv-x="263" 
d="M131 311q-27 0 -46.5 17t-19.5 44q0 28 19.5 44.5t46.5 16.5t46.5 -16.5t19.5 -44.5q0 -27 -19.5 -44t-46.5 -17zM197 44q-1 -8 -2.5 -14l-3.5 -14q-9 -26 -17.5 -52.5t-17.5 -53.5h-66l23 78q-20 5 -33.5 20.5t-13.5 38.5q0 28 19 44.5t47 16.5q22 0 39 -11t23 -31
q3 -11 3 -22z" />
    <glyph glyph-name="less" unicode="&#x3c;" horiz-adv-x="542" 
d="M46 386l413 178v-97l-286 -122l286 -125v-96l-413 181v81z" />
    <glyph glyph-name="equal" unicode="=" horiz-adv-x="541" 
d="M71 467h399v-90h-399v90zM71 280h399v-92h-399v92z" />
    <glyph glyph-name="greater" unicode="&#x3e;" horiz-adv-x="542" 
d="M496 305l-413 -181v96l286 126l-286 121v97l413 -178v-81z" />
    <glyph glyph-name="question" unicode="?" horiz-adv-x="503" 
d="M192 162q-2 47 7 81.5t24 60t34.5 45.5t37.5 39t33 39.5t22 48.5q4 31 -3 54.5t-22.5 39.5t-37 24t-45.5 8q-19 0 -37 -6.5t-33 -18.5t-25.5 -30t-13.5 -40h-97q2 50 18 87t43 61.5t63.5 36.5t80.5 12q41 1 78.5 -9.5t67 -31t49 -49.5t25.5 -64q6 -38 2 -66
q-4 -33 -17.5 -58t-31 -47t-37.5 -43t-36 -45.5t-26 -55.5t-9 -73h-114zM249 -13q-28 0 -47.5 17t-19.5 44q0 28 19.5 44.5t47.5 16.5t46.5 -16.5t18.5 -44.5q0 -27 -18.5 -44t-46.5 -17z" />
    <glyph glyph-name="at" unicode="@" horiz-adv-x="908" 
d="M581 92q-25 -48 -70 -75t-97 -28q-54 0 -93.5 20t-64.5 54t-35 79.5t-5 95.5q6 62 31 109.5t63.5 79t88 47.5t104.5 15q24 0 51 -5.5t53 -15.5t49.5 -23.5t41.5 -29.5l-25 -287q-3 -31 1 -48.5t23 -18.5q22 0 40.5 17.5t32 44t21.5 58.5t10 61q7 78 -10.5 140.5
t-57.5 106t-100 67t-138 23.5q-76 0 -142 -25t-115.5 -70t-81 -107.5t-38.5 -138.5q-9 -100 20 -173.5t86 -115t136.5 -47t171.5 30.5l-6 -64q-104 -37 -195 -27t-156.5 60t-99.5 135.5t-23 200.5q8 90 45.5 165t97 129t138 84t168.5 30q91 0 163.5 -28.5t120.5 -81.5
t70 -127.5t13 -166.5q-5 -54 -23.5 -101.5t-46.5 -82.5t-64.5 -55t-76.5 -20q-45 0 -63 26t-14 68zM589 364q-23 18 -50.5 26t-56.5 9q-29 -1 -56 -12t-48.5 -31.5t-35.5 -50t-17 -67.5q-3 -30 2 -58t18.5 -49t36.5 -33.5t56 -12.5q32 0 56.5 13t42 34t27.5 48t13 56z" />
    <glyph glyph-name="A" unicode="A" horiz-adv-x="703" 
d="M191 145l-68 -145h-122v15l324 690h54l322 -690v-15h-121l-69 145h-320zM229 243h245l-122 280z" />
    <glyph glyph-name="B" unicode="B" horiz-adv-x="669" 
d="M591 503q0 -45 -20 -80t-62 -55q55 -19 84 -60.5t29 -101.5q0 -47 -15.5 -85t-44.5 -65t-70 -41.5t-92 -14.5h-313v700h284q48 0 88 -12t69.5 -37t46 -62t16.5 -86zM203 599v-193h160q51 0 82 21.5t32 72.5q0 52 -31.5 75.5t-82.5 23.5h-160zM203 311v-209h190
q49 0 80.5 26.5t33.5 77.5q0 53 -36 83q-20 15 -43.5 18.5t-47.5 3.5h-177z" />
    <glyph glyph-name="C" unicode="C" horiz-adv-x="760" 
d="M46 349q0 85 29 151.5t77.5 112.5t113 70.5t136.5 24.5q51 0 102 -14.5t93.5 -43.5t74.5 -73t46 -103h-112q-26 66 -81 96.5t-124 31.5q-54 0 -97.5 -18.5t-75 -52t-48.5 -80t-17 -102.5q0 -52 17 -97.5t48.5 -79.5t75 -53.5t97.5 -19.5q72 0 128.5 35t79.5 105h113
q-13 -64 -45 -110.5t-75.5 -76.5t-95.5 -44.5t-105 -14.5q-71 0 -135.5 24t-113.5 69.5t-77.5 112t-28.5 150.5z" />
    <glyph glyph-name="D" unicode="D" horiz-adv-x="730" 
d="M341 699q82 0 145.5 -28.5t107 -76.5t66.5 -111t23 -132t-22.5 -132.5t-66 -112t-107.5 -77.5t-146 -29h-253v699h253zM339 106q54 0 96.5 19.5t72 53t44.5 77.5t15 94q0 49 -15.5 93.5t-44.5 78t-71 53t-96 19.5h-136v-488h135z" />
    <glyph glyph-name="E" unicode="E" horiz-adv-x="577" 
d="M513 598h-309v-185h292v-103h-292v-204h315v-106h-432v700h426v-102z" />
    <glyph glyph-name="F" unicode="F" horiz-adv-x="548" 
d="M481 272h-278v-272h-116v700h422v-102h-306v-223h278v-103z" />
    <glyph glyph-name="G" unicode="G" horiz-adv-x="774" 
d="M46 351q0 84 29 150.5t77.5 112.5t112.5 70.5t135 24.5q52 0 101.5 -12.5t91.5 -39t73.5 -68t47.5 -99.5h-115q-29 61 -79.5 87.5t-120.5 26.5q-55 0 -98.5 -20t-74 -54t-46.5 -80.5t-16 -98.5q0 -56 16.5 -102.5t47 -80t74 -52.5t97.5 -19q45 0 83.5 9.5t67.5 31
t48.5 56.5t26.5 85h-218v99h328q2 -51 -3 -97.5t-22 -92.5q-20 -50 -51.5 -87t-72 -61.5t-88 -36.5t-99.5 -12q-72 0 -136 24.5t-112 71t-76.5 113.5t-28.5 151z" />
    <glyph glyph-name="H" unicode="H" horiz-adv-x="727" 
d="M523 0v312h-320v-312h-116v700h116v-281h320v281h117v-700h-117z" />
    <glyph glyph-name="I" unicode="I" horiz-adv-x="418" 
d="M378 94v-94h-338v94h111v513h-102v93h320v-93h-102v-513h111z" />
    <glyph glyph-name="J" unicode="J" horiz-adv-x="635" 
d="M555 233q0 -57 -20.5 -102.5t-56.5 -76.5t-84.5 -47.5t-103.5 -16.5t-102.5 16.5t-82 47.5t-54.5 76.5t-20 102.5v79h109v-77q0 -69 42 -105t108 -36t107.5 36t41.5 105v364h-148v101h264v-467z" />
    <glyph glyph-name="K" unicode="K" horiz-adv-x="685" 
d="M204 390q40 0 77 2.5t60 14.5q15 8 27 25t21.5 39t17 48.5t14.5 53.5q9 34 25 61.5t42 45.5t64 23.5t92 -4.5v-80q-26 2 -44.5 0t-32 -11t-22.5 -25.5t-17 -43.5q-16 -57 -36 -106t-55 -81l230 -335v-17h-132l-200 306q-11 -4 -28 -6.5t-36 -3.5t-36.5 -1h-30.5v-295
h-117v700h117v-310z" />
    <glyph glyph-name="L" unicode="L" horiz-adv-x="521" 
d="M204 105h301v-105h-418v700h117v-595z" />
    <glyph glyph-name="M" unicode="M" horiz-adv-x="829" 
d="M699 702h43v-702h-117v438l-202 -259h-16l-203 259v-438h-117v702h43l285 -362z" />
    <glyph glyph-name="N" unicode="N" horiz-adv-x="749" 
d="M194 476l8 -222v-254h-115v702h42l425 -471l-8 214v255h116v-701h-40z" />
    <glyph glyph-name="O" unicode="O" horiz-adv-x="805" 
d="M759 350q0 -80 -26.5 -146.5t-73.5 -114.5t-113 -74.5t-145 -26.5q-72 0 -136.5 24.5t-113 71t-77 113.5t-28.5 153q0 85 29 152.5t78 114t114 71t136 24.5q72 0 136.5 -24.5t113 -71t77.5 -114t29 -152.5zM164 350q0 -61 19 -108t51 -79t75.5 -48.5t93.5 -16.5
q49 0 92.5 16.5t76.5 48.5t52 79t19 108q0 60 -19 107t-51.5 79.5t-76 49.5t-92.5 17q-50 0 -93.5 -17t-76 -49t-51.5 -79t-19 -108z" />
    <glyph glyph-name="P" unicode="P" horiz-adv-x="652" 
d="M87 0v700h290q58 0 104 -20t78 -53.5t48.5 -78.5t16.5 -95q0 -49 -17 -93t-49 -77.5t-77.5 -53t-103.5 -19.5h-173v-210h-117zM377 312q30 0 54.5 11t42.5 30.5t28 46t10 56.5t-9.5 56.5t-27.5 45.5t-43 30t-55 11h-175v-287h175z" />
    <glyph glyph-name="Q" unicode="Q" horiz-adv-x="804" 
d="M758 -7h-106l-41 63q-46 -32 -99.5 -49t-113.5 -16q-72 0 -136 25.5t-112 72.5t-76 113.5t-28 148.5q0 81 26 147.5t73.5 114t113 74t144.5 26.5q71 0 135.5 -24.5t113.5 -71t78 -114t29 -152.5q0 -137 -72 -227l71 -113v-18zM164 351q0 -61 19 -108t51.5 -79t76 -48.5
t92.5 -16.5t92.5 15.5t76 47t51.5 79t19 110.5q0 61 -19 108.5t-51.5 79.5t-76.5 48.5t-93 16.5t-92 -17t-75.5 -49.5t-51.5 -79.5t-19 -107z" />
    <glyph glyph-name="R" unicode="R" horiz-adv-x="682" 
d="M650 17v-17h-118l-174 244h-154v-244h-117v700h289q57 0 102 -18t76.5 -49t48 -72.5t16.5 -88.5q0 -73 -40 -129.5t-107 -80.5zM375 340q28 0 52.5 10t41.5 27t27 41t10 53q0 27 -9.5 50.5t-27 41t-41.5 27t-53 9.5h-173v-259h173z" />
    <glyph glyph-name="S" unicode="S" horiz-adv-x="647" 
d="M159 199q2 -30 17.5 -50.5t39.5 -33t52.5 -18.5t57.5 -6q28 0 56.5 5t52 17t38.5 33t15 54q0 34 -16 54.5t-41.5 31.5t-57 15.5t-61.5 7.5q-48 4 -94 15t-81.5 32.5t-57.5 56.5t-22 88q0 54 22 94t58.5 66t84 39t98.5 13q50 0 96.5 -11.5t83 -36.5t59 -63t23.5 -92h-110
q-2 28 -16.5 47t-36 30.5t-48 16.5t-52.5 5q-24 0 -50 -5.5t-47.5 -17.5t-35.5 -32t-14 -50t13.5 -47.5t36 -28t51.5 -15.5t59 -9q53 -6 102.5 -16t87 -32t60 -59.5t22.5 -97.5q0 -58 -24.5 -98t-64 -65.5t-89 -37t-98.5 -11.5q-51 -1 -101.5 11t-90.5 38.5t-65 67t-26 95.5
h114z" />
    <glyph glyph-name="T" unicode="T" horiz-adv-x="558" 
d="M19 597v103h520v-103h-203v-597h-114v597h-203z" />
    <glyph glyph-name="U" unicode="U" horiz-adv-x="705" 
d="M354 -9q-57 0 -106.5 16t-87 47.5t-59 76.5t-21.5 104v465h116v-462q0 -35 12 -61.5t33.5 -44.5t50.5 -27.5t62 -9.5t61.5 9.5t49.5 27.5t33 44.5t12 61.5v462h115v-465q0 -59 -21.5 -104t-58 -76.5t-86 -47.5t-105.5 -16z" />
    <glyph glyph-name="V" unicode="V" horiz-adv-x="669" 
d="M337 199l92 254l101 247h123v-17l-294 -689h-48l-297 689v17h124l100 -242l96 -259h3z" />
    <glyph glyph-name="W" unicode="W" horiz-adv-x="976" 
d="M516 688l168 -475h2l70 251l74 236h123v-17l-233 -688h-60l-169 449h-2l-169 -449h-64l-232 688v17h121l76 -236l73 -252h2l168 476h52z" />
    <glyph glyph-name="X" unicode="X" horiz-adv-x="648" 
d="M325 441l81 134l81 125h124v-17l-217 -313l242 -354v-16h-124l-98 152l-88 143h-4l-86 -140l-101 -155h-124v16l243 354l-218 313v17h125l82 -128l79 -131h3z" />
    <glyph glyph-name="Y" unicode="Y" horiz-adv-x="630" 
d="M317 383l87 166l91 151h124v-17l-246 -399v-284h-116v284l-247 399v17h125l94 -156l84 -161h4z" />
    <glyph glyph-name="Z" unicode="Z" horiz-adv-x="598" 
d="M560 682l-272 -434l-103 -145h377v-103h-541v16l235 374l140 208h-345v102l509 -1v-17z" />
    <glyph glyph-name="bracketleft" unicode="[" horiz-adv-x="315" 
d="M276 674h-96v-759h96v-98h-198v946h198v-89z" />
    <glyph glyph-name="backslash" unicode="\" horiz-adv-x="509" 
d="M480 1h-112l-339 699h113z" />
    <glyph glyph-name="bracketright" unicode="]" horiz-adv-x="315" 
d="M39 763h198v-946h-198v98h96v759h-96v89z" />
    <glyph glyph-name="asciicircum" unicode="^" horiz-adv-x="539" 
d="M308 704l180 -295h-97l-123 200l-120 -200h-97l178 295h79z" />
    <glyph glyph-name="underscore" unicode="_" horiz-adv-x="616" 
d="M64 -9h488v-93h-488v93z" />
    <glyph glyph-name="grave" unicode="`" horiz-adv-x="336" 
d="M256 564h-91l-88 110v10l100 38l79 -147v-11z" />
    <glyph glyph-name="a" unicode="a" horiz-adv-x="549" 
d="M384 81q-12 -24 -31.5 -41t-43.5 -28t-50.5 -16t-51.5 -5q-33 0 -64 10t-55.5 29.5t-39 47.5t-14.5 63q-1 43 13 75t39.5 53t60 31.5t74.5 10.5q35 0 73 -9t70 -27v48q0 32 -16.5 50.5t-42 27t-57.5 9t-62.5 -4t-57 -12.5t-41.5 -15l-16 78q37 19 83.5 28.5t94.5 9.5
q44 0 84 -8.5t70.5 -28.5t48.5 -53.5t18 -83.5v-190q0 -17 0.5 -30.5t5 -22.5t14.5 -13.5t30 -2.5l2 -62q-29 -5 -53.5 -6t-43 6.5t-29.5 26.5t-12 55zM364 205q-27 16 -60 25t-65 8q-40 -1 -69 -23.5t-29 -67.5q0 -36 27.5 -53t60.5 -17q21 0 43.5 5t41.5 16t32.5 27.5
t17.5 39.5v40z" />
    <glyph glyph-name="b" unicode="b" horiz-adv-x="587" 
d="M68 731h109v-278q35 18 71 27t68 9q47 0 89 -18t73.5 -51t49.5 -79.5t18 -104.5q0 -70 -22.5 -118t-61 -77.5t-88 -42.5t-103.5 -13q-50 1 -103 11.5t-100 28.5v706zM175 90q26 -8 54.5 -12t52.5 -4q32 0 60.5 9t49.5 28.5t33 50t12 74.5q0 38 -11 66.5t-30 48t-44 30
t-53 11.5q-29 1 -61.5 -7t-62.5 -26v-269z" />
    <glyph glyph-name="c" unicode="c" horiz-adv-x="565" 
d="M427 322q-16 39 -51 58t-77 19q-28 0 -55 -10t-48 -29.5t-34 -49t-13 -67.5q0 -39 13 -68.5t34 -49t47.5 -29.5t53.5 -10q41 0 77 21.5t53 66.5h104q-9 -46 -32.5 -80t-55.5 -56.5t-70 -34t-78 -11.5q-47 0 -92.5 15.5t-81.5 47t-58 78.5t-22 110q0 62 22 109.5t57.5 79
t81 48t92.5 16.5q39 0 77 -10.5t69.5 -32t54.5 -54.5t33 -77h-101z" />
    <glyph glyph-name="d" unicode="d" horiz-adv-x="602" 
d="M423 88q-24 -54 -65 -76t-95 -22q-54 -1 -95.5 19t-69.5 55t-42.5 81t-14.5 97q0 56 18 101.5t49.5 78t72.5 50t88 17.5q32 0 66.5 -8.5t67.5 -28.5v280h109v-582v-35.5t4.5 -23.5t14.5 -13t31 -4l2 -75q-28 -5 -53.5 -5t-45 7.5t-31 25t-11.5 47.5v14zM405 356
q-29 20 -59.5 29.5t-59.5 8.5q-28 0 -53 -10t-43.5 -29.5t-29.5 -47.5t-11 -65q0 -31 8 -59t24 -49.5t41 -34t58 -12.5q28 0 51 10.5t39.5 29t25.5 43t9 51.5v135z" />
    <glyph glyph-name="e" unicode="e" horiz-adv-x="551" 
d="M291 493q63 0 109 -20t73 -56t35 -86t-4 -110h-356q0 -33 12 -59t33.5 -44t50 -27.5t61.5 -9.5q45 -2 88.5 4.5t86.5 25.5l14 -81q-42 -19 -89 -30t-93 -11q-60 -1 -110.5 17t-86.5 52t-56 83t-18 110q1 60 22 105.5t55 76t79 45.5t94 15zM290 409q-54 0 -91.5 -27
t-48.5 -84h266q1 27 -9 48t-27 35t-40.5 21t-49.5 7z" />
    <glyph glyph-name="f" unicode="f" horiz-adv-x="394" 
d="M112 398h-89v82h91v65q0 71 25 113.5t66.5 61t95 16t110.5 -21.5l-12 -76q-32 13 -64 16.5t-58 -6t-42 -35t-16 -70.5v-63h163v-82h-163v-398h-107v398z" />
    <glyph glyph-name="g" unicode="g" horiz-adv-x="579" 
d="M406 23q-38 -21 -74.5 -30.5t-71.5 -9.5q-46 0 -86 17.5t-69 50t-46 79.5t-17 107q0 66 21.5 113.5t58 78.5t85.5 45.5t105 13.5q52 -1 101.5 -13t97.5 -32v-473q0 -63 -18.5 -108t-50 -74.5t-74 -44t-89.5 -14.5q-50 -1 -102 13t-101 41l16 88q47 -23 94.5 -37t89.5 -13
q28 0 52 8t41 26t27 46.5t10 70.5v51zM404 379q-51 18 -102 18q-69 0 -109.5 -39.5t-41.5 -120.5q0 -39 10.5 -69t28.5 -50t42.5 -30.5t52.5 -10.5q58 -2 119 38v264z" />
    <glyph glyph-name="h" unicode="h" 
d="M416 0v285q1 60 -30 90t-82 31q-54 0 -89 -33.5t-35 -93.5v-279h-109v731h109v-308q31 42 69 56t86 14q50 0 86 -15t59.5 -42.5t34.5 -66t11 -84.5v-285h-110z" />
    <glyph glyph-name="i" unicode="i" horiz-adv-x="253" 
d="M61 631q0 32 20.5 48t45.5 16t45 -16t20 -48t-20 -48t-44 -17q-25 -1 -46 15.5t-21 49.5zM181 0h-109v477h109v-477z" />
    <glyph glyph-name="j" unicode="j" horiz-adv-x="252" 
d="M180 480v-537q0 -123 -55 -168.5t-166 -25.5l4 82q35 -5 56.5 0t33 19.5t15.5 38t4 55.5v536h108zM60 631q0 32 20 47.5t44 16.5q25 1 46 -15.5t21 -48.5q0 -31 -20 -46.5t-44 -16.5q-25 -1 -46 15t-21 48z" />
    <glyph glyph-name="k" unicode="k" horiz-adv-x="546" 
d="M229 294q45 0 76.5 13.5t51 38t28 59.5t8.5 78h103q1 -39 -4.5 -74.5t-20 -65.5t-39.5 -54.5t-62 -41.5l150 -236v-11h-109l-133 212q-11 -3 -24.5 -4t-26.5 -1h-48v-207h-108v731h108v-437h50z" />
    <glyph glyph-name="l" unicode="l" horiz-adv-x="288" 
d="M174 732v-559q0 -30 4.5 -50t16.5 -31t32 -13.5t51 2.5l4 -84q-56 -9 -96.5 -5.5t-67 23.5t-39.5 58.5t-13 98.5v560h108z" />
    <glyph glyph-name="m" unicode="m" horiz-adv-x="899" 
d="M724 0v282q1 54 -22 88.5t-71 33.5q-51 -1 -81.5 -34.5t-31.5 -90.5v-279h-107v279q0 57 -24 91t-75 33t-84 -34.5t-33 -90.5v-278h-109v345q0 21 -1 35t-6.5 22.5t-15.5 11.5t-28 2l-1 67q24 6 51 8.5t49.5 -4.5t37 -26.5t13.5 -57.5q10 22 27.5 38.5t39.5 28t47 17
t50 5.5q63 0 97.5 -23t48.5 -68q10 24 28.5 41t42 28.5t50.5 16.5t55 5q49 0 81.5 -16.5t51 -45t25 -67t5.5 -81.5v-282h-110z" />
    <glyph glyph-name="n" unicode="n" horiz-adv-x="606" 
d="M432 0v283q1 57 -31.5 89t-81.5 33q-26 0 -48 -9.5t-38.5 -27t-26 -41.5t-9.5 -53v-274h-110v342q0 21 -1 35t-6 22.5t-15.5 11t-28.5 1.5v71q26 5 53 7t48.5 -5t35.5 -25t14 -52q10 23 28 39t40.5 26t47 14.5t48.5 4.5q49 0 85 -16t59.5 -44t35 -66t11.5 -83v-283h-110z
" />
    <glyph glyph-name="o" unicode="o" 
d="M550 243q0 -63 -22 -110.5t-58 -79t-81.5 -47t-93.5 -15.5t-93.5 15.5t-81 47t-57.5 79t-22 110.5q0 62 21.5 109t56.5 78t80 47t92 17q48 1 94.5 -14.5t83 -47t59 -79t22.5 -110.5zM149 243q0 -39 12.5 -68.5t33.5 -49t47.5 -29t54.5 -9.5q27 0 53 10t46 29.5t32.5 48.5
t12.5 68t-13 68.5t-34 49t-48 29t-55 8.5q-27 -1 -52.5 -11t-45.5 -29t-32 -48t-12 -67z" />
    <glyph glyph-name="p" unicode="p" horiz-adv-x="600" 
d="M176 404q21 50 67 70.5t98 20.5q53 0 94 -20.5t68.5 -55.5t41.5 -80.5t14 -94.5q0 -58 -19.5 -105t-52.5 -80t-77 -49.5t-92 -14.5q-30 2 -61 11t-61 27v-281h-109v576v36.5t-4.5 26t-15 15.5t-31.5 5l-1 75q30 6 56 6t44.5 -9t29.5 -28t11 -51zM194 129q30 -21 62 -31
t61 -8q27 1 51 11.5t42 30t28.5 47.5t10.5 65q0 30 -8 58t-24.5 49t-40.5 34t-57 13q-28 0 -51 -11t-39.5 -29t-25.5 -42.5t-9 -51.5v-135z" />
    <glyph glyph-name="q" unicode="q" horiz-adv-x="584" 
d="M516 -251h-109v279q-35 -20 -70.5 -28.5t-68.5 -7.5q-46 1 -86.5 19t-70.5 50.5t-47.5 79t-17.5 103.5q0 68 21 116t56.5 78t82.5 44t99 15q53 1 107 -10.5t104 -31.5v-706zM409 387q-24 8 -48 12.5t-47 4.5q-33 0 -61.5 -8t-50 -27t-34 -50t-12.5 -75q0 -39 10.5 -68
t29 -48.5t43 -30t52.5 -10.5q59 -2 118 39v261z" />
    <glyph glyph-name="r" unicode="r" horiz-adv-x="452" 
d="M189 412q7 21 22 37t34 27t41.5 16.5t44.5 5.5q30 1 59 -8t52 -26l-27 -94q-44 29 -96 29q-24 0 -46.5 -8t-39.5 -23t-27 -37.5t-10 -51.5v-279h-108v350q0 16 -1 28t-5.5 20t-15.5 11.5t-30 2.5l-1 74q27 6 53.5 6t48 -8t36 -25.5t16.5 -46.5z" />
    <glyph glyph-name="s" unicode="s" horiz-adv-x="508" 
d="M144 142q1 -19 11 -32.5t25.5 -22.5t34.5 -13.5t39 -4.5t40 3.5t36.5 11.5t27 22.5t11.5 36.5q0 33 -30 46t-78 19q-37 5 -74.5 11t-68 19.5t-50 37.5t-20.5 65q0 39 17.5 67t46 47t65.5 28t76 9q42 0 79.5 -9t66 -27.5t44.5 -45.5t15 -63h-96q0 18 -10 30t-25.5 19.5
t-35 10.5t-38.5 3t-37 -4.5t-32.5 -13t-22.5 -21t-7 -28.5q1 -30 29.5 -40.5t85.5 -17.5q38 -5 74 -12t63.5 -22t44.5 -41t17 -69q0 -40 -18 -69t-47 -47.5t-67 -27.5t-78 -9t-78.5 7t-69 25t-50.5 47.5t-23 74.5h107z" />
    <glyph glyph-name="t" unicode="t" horiz-adv-x="432" 
d="M226 481h167v-78h-167v-217q0 -46 13.5 -72t37.5 -35.5t56 -5.5t69 17l11 -82q-62 -19 -115.5 -20.5t-93.5 18.5t-62.5 63.5t-22.5 114.5v219l-98 7v71h98l11 149h96v-149z" />
    <glyph glyph-name="u" unicode="u" horiz-adv-x="597" 
d="M510 482v-344q0 -22 1.5 -36t6.5 -22t15.5 -10.5t27.5 -0.5l1 -71q-23 -4 -49.5 -6.5t-49 3.5t-37 25t-14.5 58q-25 -49 -70.5 -67.5t-96.5 -18.5q-50 0 -84.5 16.5t-55.5 45t-30.5 67t-9.5 82.5v279h110v-279q-1 -58 27.5 -91t76.5 -33q52 0 87 34.5t35 92.5v276h109z
" />
    <glyph glyph-name="v" unicode="v" horiz-adv-x="540" 
d="M249 -5l-235 475v12h118l62 -141l74 -180h2l76 179l63 142h116v-12l-233 -475h-43z" />
    <glyph glyph-name="w" unicode="w" horiz-adv-x="774" 
d="M209 -5l-190 475v12h117l61 -166l45 -132h2l115 287h54l115 -288h3l46 133q14 42 29.5 83t30.5 83h118v-12l-191 -475h-49l-129 291l-128 -291h-49z" />
    <glyph glyph-name="x" unicode="x" horiz-adv-x="509" 
d="M255 188l-59 -92l-72 -96h-110v12l179 244l-152 214v12h104l55 -76l53 -82h3l52 80l57 78h110v-12l-158 -221l173 -237v-12h-105l-71 98l-56 90h-3z" />
    <glyph glyph-name="y" unicode="y" horiz-adv-x="551" 
d="M319 -41q-21 -53 -44.5 -98.5t-55.5 -73.5t-76 -33.5t-107 21.5l13 79q32 -14 56.5 -14t43.5 12t32.5 34t24.5 52l23 59l-217 473v12h117l71 -168l79 -212h3l73 211l64 169h109v-12z" />
    <glyph glyph-name="z" unicode="z" horiz-adv-x="469" 
d="M30 22l140 219l105 152h-230v89h387v-14l-149 -231l-98 -143h246v-94h-401v22z" />
    <glyph glyph-name="braceleft" unicode="{" horiz-adv-x="314" 
d="M271 694q-38 0 -58 -13t-20 -54v-197q0 -19 -3 -38.5t-10.5 -36t-19.5 -30t-31 -20.5q20 -8 32.5 -21t19.5 -30t9.5 -37t2.5 -40v-208q0 -41 20.5 -53t57.5 -9v-89q-42 0 -75 4t-56.5 18.5t-36 44t-12.5 80.5v203q0 15 -2 31t-8 30.5t-16.5 24t-28.5 11.5v81q18 2 29 11
t17 22t7.5 29t1.5 32v191q0 49 13 77.5t37 42.5t57 18t73 4v-79z" />
    <glyph glyph-name="bar" unicode="|" horiz-adv-x="261" 
d="M180 705v-788h-99v788h99z" />
    <glyph glyph-name="braceright" unicode="}" horiz-adv-x="314" 
d="M43 773q40 0 73 -4t57 -18t37 -42.5t13 -77.5v-191q0 -16 1.5 -32t7.5 -29t17 -22t29 -11v-81q-18 -2 -28.5 -11.5t-16.5 -24t-8 -30.5t-2 -31v-203q0 -51 -12.5 -80.5t-36 -44t-56.5 -18.5t-75 -4v89q37 -3 57.5 9t20.5 53v208q0 20 3 40t11 37t21 30t33 21
q-19 7 -32 20.5t-21 30t-11.5 36t-3.5 38.5v197q0 41 -20 54t-58 13v79z" />
    <glyph glyph-name="asciitilde" unicode="~" horiz-adv-x="618" 
d="M55 312q15 45 43 72.5t63 38t75.5 4t79.5 -28.5q24 -15 49.5 -27t49.5 -13.5t45 10.5t36 47q20 -10 36 -17.5t36 -17.5q-18 -51 -44.5 -78t-59.5 -35.5t-72 0.5t-82 31q-26 14 -52.5 25t-51 11.5t-46.5 -12t-38 -45.5z" />
    <glyph glyph-name="uni00A0" unicode="&#xa0;" horiz-adv-x="251" 
 />
    <glyph glyph-name="exclamdown" unicode="&#xa1;" horiz-adv-x="260" 
d="M130 489q28 0 47 -17t19 -44q0 -29 -19 -45t-47 -16q-27 0 -46.5 16t-19.5 45q0 27 19.5 44t46.5 17zM194 -226h-126l6 540h111z" />
    <glyph glyph-name="cent" unicode="&#xa2;" horiz-adv-x="599" 
d="M443 317q-19 45 -62 64l-100 -292q25 -6 50.5 -3t48 14t40.5 30.5t27 47.5l103 -2q-11 -56 -41.5 -94.5t-72 -61t-90.5 -28.5t-96 5l-26 -76h-51l30 90q-30 13 -56.5 34t-46 50t-31 66t-11.5 81q0 72 29 124t74 83t100 41.5t108 -0.5l26 74h49l-30 -88q48 -20 83 -58.5
t47 -97.5zM337 396q-30 4 -60.5 -4t-55 -27.5t-40 -50t-15.5 -72.5q0 -48 20.5 -81t51.5 -52z" />
    <glyph glyph-name="sterling" unicode="&#xa3;" horiz-adv-x="665" 
d="M48 328h-1v61h84q-17 80 -4 139.5t48 99.5t88 60t118 20q53 1 106 -13t101 -41l-37 -87q-33 23 -79 35t-91 9q-55 -3 -88 -20.5t-48.5 -46.5t-16 -68t9.5 -87h226v-75h-217q5 -28 7.5 -57.5t-2.5 -58.5q-4 -24 -12 -48.5t-23 -45.5q29 14 59.5 13t61.5 -8t61 -15t58 -8
q34 0 52.5 20t15.5 79h92q10 -90 -22.5 -142t-115.5 -52q-33 0 -74 10t-82 17.5t-78.5 6t-62.5 -25.5h-133v11q47 44 68 88t23 103q1 27 -0.5 54.5t-6.5 58.5h-85v14z" />
    <glyph glyph-name="currency" unicode="&#xa4;" horiz-adv-x="524" 
d="M165 491q44 26 97 26t97 -26l45 45l58 -56l-47 -47q11 -19 17.5 -42t6.5 -51t-6.5 -51t-17.5 -43l47 -46l-58 -56l-45 45q-44 -26 -97 -26t-97 26l-45 -45l-58 56l47 47q-23 38 -23 93q0 53 23 93l-47 47l58 56zM173 340q0 -31 13.5 -51.5t33 -31t43 -10.5t43 10.5t33 31
t13.5 51.5t-13.5 52t-33 31.5t-43 10.5t-43 -10.5t-33 -31.5t-13.5 -52z" />
    <glyph glyph-name="yen" unicode="&#xa5;" 
d="M240 0v126h-135v74h135v53h-135v73h110l-181 358v16h125l72 -163l63 -160l66 163l72 160h125v-16l-182 -358h110v-73h-133v-53h133v-74h-133v-126h-112z" />
    <glyph glyph-name="brokenbar" unicode="&#xa6;" horiz-adv-x="263" 
d="M181 705v-314h-99v314h99zM181 301v-318h-99v318h99z" />
    <glyph glyph-name="section" unicode="&#xa7;" horiz-adv-x="645" 
d="M409 192q30 12 52 35.5t23 56.5q0 25 -13 41.5t-36 27.5t-55.5 17t-72.5 9q-14 2 -27.5 3t-26.5 4q-17 -6 -32 -14.5t-26 -20t-17 -25.5t-5 -31q2 -45 37 -64t92 -25q27 -3 54 -5.5t53 -8.5zM157 417q-40 17 -65.5 45.5t-25.5 76.5q0 46 20.5 80t54.5 56t79 33t93 11
q47 0 92 -10t80.5 -31t57.5 -54t23 -79q-29 0 -53 -0.5t-53 -0.5q-1 24 -15 41t-35 27t-46.5 14t-48.5 4q-21 0 -45 -4.5t-45 -15t-34.5 -27.5t-13.5 -42q0 -23 11.5 -37t32 -22t47.5 -12.5t58 -7.5q51 -5 99 -13t84.5 -26.5t58 -50.5t21.5 -84q-1 -45 -24 -77.5t-58 -52.5
q37 -18 60 -48.5t22 -82.5q0 -46 -21.5 -80t-57.5 -56.5t-84 -33.5t-101 -11q-50 0 -98 10.5t-86.5 32.5t-62.5 57t-25 83h107q1 -26 17 -44t40 -29t52.5 -15.5t54.5 -3.5q24 0 51 5.5t50 16t38 27.5t15 41q0 34 -21 52.5t-51 27.5t-64 12t-60 5q-41 3 -79 12.5t-68 28
t-49 47.5t-20 72q-2 47 23.5 80t67.5 53z" />
    <glyph glyph-name="dieresis" unicode="&#xa8;" horiz-adv-x="509" 
d="M375 593q-27 0 -45.5 16t-18.5 42q0 27 18.5 43t45.5 16t45.5 -16t18.5 -43q0 -26 -18.5 -42t-45.5 -16zM131 593q-27 0 -45.5 16t-18.5 42q0 27 18.5 43t45.5 16q26 0 45 -16t19 -43q0 -26 -19 -42t-45 -16z" />
    <glyph glyph-name="copyright" unicode="&#xa9;" horiz-adv-x="791" 
d="M737 347q0 -86 -29.5 -150.5t-77.5 -107.5t-109 -64.5t-125.5 -21.5t-125.5 21.5t-109 64.5t-77.5 107.5t-29.5 150.5t29.5 150.5t77.5 107.5t109 64t125.5 21t125.5 -21t109 -64t77.5 -107.5t29.5 -150.5zM485 393q-11 33 -39.5 46t-59.5 7t-54.5 -31t-23.5 -69
q0 -50 29 -75.5t69 -25.5q26 0 48.5 15t32.5 45l66 -1q-9 -44 -35.5 -72t-61.5 -40.5t-73.5 -9t-71 23t-53.5 54.5t-21 86q0 50 21 85.5t53 55.5t70 24t73 -7t61 -38.5t35 -70.5zM135 347q0 -91 38.5 -152t96.5 -91t125.5 -30t125.5 30.5t96.5 91t38.5 151.5t-38.5 152
t-96.5 91.5t-125.5 30.5t-125.5 -30.5t-96.5 -91.5t-38.5 -152z" />
    <glyph glyph-name="ordfeminine" unicode="&#xaa;" horiz-adv-x="504" 
d="M325 403q-8 -16 -22.5 -27.5t-31.5 -18.5t-36 -10.5t-37 -3.5q-25 0 -47.5 6t-40 19t-28.5 33.5t-13 49.5q-2 31 9 54.5t31 39t46 23.5t55 8q25 -1 52 -7t49 -19v24q0 20 -8.5 33.5t-22.5 21t-31 11t-34 3.5q-27 0 -52.5 -5t-47.5 -18l-13 57q26 14 59 21.5t66 7.5
q34 0 64.5 -7t53.5 -23t36.5 -41.5t13.5 -62.5v-146q0 -17 6 -26t29 -7l1 -47q-17 -3 -35 -4t-33.5 3t-25.5 14t-11 29v7.5t-1 7.5zM92 274h327v-71h-327v71zM310 497q-40 23 -87 23q-30 -2 -51 -18t-20 -43q0 -27 18 -40t44 -13q15 0 30.5 3.5t29 11t23.5 19t13 26.5v31z
" />
    <glyph glyph-name="guillemotleft" unicode="&#xab;" horiz-adv-x="507" 
d="M155 346l101 -206l-65 -26l-143 232l143 234l65 -26zM347 346l101 -206l-65 -26l-143 232l143 234l65 -26z" />
    <glyph glyph-name="logicalnot" unicode="&#xac;" horiz-adv-x="570" 
d="M71 386h422v-256h-88v162h-334v94z" />
    <glyph glyph-name="uni00AD" unicode="&#xad;" horiz-adv-x="465" 
d="M64 380h337v-94h-337v94z" />
    <glyph glyph-name="registered" unicode="&#xae;" horiz-adv-x="788" 
d="M735 350q0 -86 -29.5 -150.5t-77 -107.5t-109 -64.5t-125 -21.5t-125 21.5t-109 64.5t-77 107.5t-29.5 150.5t29.5 150.5t77 107.5t109 64t125 21t125 -21t109 -64t77 -107.5t29.5 -150.5zM547 199v-11h-69l-74 110h-57v-110h-66v326h139q51 0 84.5 -28.5t33.5 -82.5
q0 -34 -17.5 -60.5t-51.5 -35.5zM347 353h67q25 0 41.5 14t16.5 37q0 22 -16 36.5t-42 14.5h-67v-102zM134 350q0 -91 38.5 -152t96.5 -91t125.5 -30t125.5 30.5t96.5 91t38.5 151.5t-38.5 152t-96.5 91.5t-125.5 30.5t-125.5 -30.5t-96.5 -91.5t-38.5 -152z" />
    <glyph glyph-name="macron" unicode="&#xaf;" horiz-adv-x="499" 
d="M90 698h309v-88h-309v88z" />
    <glyph glyph-name="degree" unicode="&#xb0;" horiz-adv-x="439" 
d="M391 549q0 -54 -25.5 -89.5t-63.5 -53.5t-82.5 -18t-82.5 18t-63.5 53.5t-25.5 89.5q0 53 25.5 89t63.5 53.5t82.5 18t82.5 -17.5t63.5 -54t25.5 -89zM128 549q0 -30 13.5 -49.5t33.5 -29.5t43 -10t43 10t33.5 29.5t13.5 49.5t-13.5 49.5t-33.5 29.5t-43 10t-43 -10
t-33.5 -29.5t-13.5 -49.5z" />
    <glyph glyph-name="plusminus" unicode="&#xb1;" horiz-adv-x="522" 
d="M79 410h139v137h87v-137h140v-90h-140v-119h-87v119h-139v90zM72 122h377v-94h-377v94z" />
    <glyph glyph-name="uni00B2" unicode="&#xb2;" horiz-adv-x="414" 
d="M351 340h-289v18l167 211q18 21 24.5 42t3 38.5t-18 28.5t-39.5 11q-56 0 -61 -55h-71q0 60 36.5 94t101.5 34q50 0 81 -21t43 -52.5t4.5 -69.5t-34.5 -72l-105 -134h157v-73z" />
    <glyph glyph-name="uni00B3" unicode="&#xb3;" horiz-adv-x="397" 
d="M49 461h74q2 -26 22.5 -41t50.5 -15q33 0 53 19.5t20 48.5q0 25 -12 40t-30.5 22.5t-41 8t-43.5 -2.5v12l90 134h-166v68h279v-12l-101 -146q27 -3 46.5 -14.5t33 -28.5t20.5 -37.5t7 -42.5q0 -28 -10.5 -53.5t-30 -45t-48 -31t-65.5 -11.5q-31 0 -57.5 8.5t-46 25
t-31.5 40.5t-13 54z" />
    <glyph glyph-name="acute" unicode="&#xb4;" horiz-adv-x="303" 
d="M62 569l79 147l100 -38v-10l-88 -110h-91v11z" />
    <glyph glyph-name="mu" unicode="&#xb5;" horiz-adv-x="578" 
d="M417 0v81q-11 -39 -42.5 -63t-76.5 -24t-72.5 17.5t-44.5 51.5v-313h-105v733h105v-285q0 -58 30.5 -89.5t83.5 -31.5q52 -1 87 33.5t35 92.5v280h105v-483h-105z" />
    <glyph glyph-name="paragraph" unicode="&#xb6;" horiz-adv-x="762" 
d="M563 -207v807h-183v-807h-108v385q-76 2 -129 41.5t-80 97.5t-28 124.5t26 124t82 95.5t140 38h389v-906h-109z" />
    <glyph glyph-name="periodcentered" unicode="&#xb7;" horiz-adv-x="263" 
d="M131 296q-28 0 -47.5 17.5t-19.5 44.5q0 29 19.5 46t47.5 17q29 0 48.5 -17t19.5 -46q0 -27 -19.5 -44.5t-48.5 -17.5z" />
    <glyph glyph-name="cedilla" unicode="&#xb8;" horiz-adv-x="392" 
d="M168 13h82l-15 -61q25 -2 42 -12t26.5 -26t11 -35.5t-4.5 -40.5q-10 -32 -36.5 -48.5t-59.5 -20t-67 5t-59 25.5l5 60q12 -10 31.5 -17.5t39.5 -9t36.5 4.5t21.5 22t-1.5 28t-19.5 20.5t-28.5 12.5t-27.5 3z" />
    <glyph glyph-name="uni00B9" unicode="&#xb9;" horiz-adv-x="346" 
d="M58 407h77v282h-67v67h150v-349h78v-67h-238v67z" />
    <glyph glyph-name="ordmasculine" unicode="&#xba;" horiz-adv-x="535" 
d="M471 533q0 -64 -30.5 -107.5t-76 -65t-99 -21.5t-99 22t-76 64.5t-30.5 107.5q0 64 30.5 107t76 64.5t99 21.5t99 -21t76 -64.5t30.5 -107.5zM152 533q0 -39 17 -64.5t42 -38.5t55 -13t55 13t42 38.5t17 64.5q0 38 -17 64t-42 38.5t-55 12.5t-55 -12.5t-42 -38.5t-17 -64
zM69 268h400v-90h-400v90z" />
    <glyph glyph-name="guillemotright" unicode="&#xbb;" horiz-adv-x="507" 
d="M251 554l65 26l143 -234l-143 -232l-65 26l101 206zM59 554l65 26l143 -234l-143 -232l-65 26l101 206z" />
    <glyph glyph-name="onequarter" unicode="&#xbc;" horiz-adv-x="924" 
d="M772 231q2 22 3 43.5t2 43.5h-1l-121 -168h117v81zM845 0h-78v83h-209v38l198 295h89v-263h42v-70h-42v-83zM587 700h98l-339 -699h-97zM48 359h76v281h-67v67h150v-348h78v-67h-237v67z" />
    <glyph glyph-name="onehalf" unicode="&#xbd;" horiz-adv-x="940" 
d="M586 700h98l-352 -700h-98zM48 359h76v281h-67v67h150v-348h78v-67h-237v67zM900 0h-289v18l167 211q18 21 24.5 42t3 38.5t-18 28.5t-39.5 11q-56 0 -61 -55h-71q0 60 36.5 94t101.5 34q50 0 81 -21t43 -52.5t4.5 -69.5t-34.5 -72l-105 -134h157v-73z" />
    <glyph glyph-name="threequarters" unicode="&#xbe;" horiz-adv-x="947" 
d="M795 231q2 22 3 43.5t2 43.5h-1l-121 -168h117v81zM868 0h-78v83h-209v38l198 295h89v-263h42v-70h-42v-83zM610 700h98l-339 -699h-97zM40 410h74q2 -26 22.5 -41t50.5 -15q33 0 53 19.5t20 48.5q0 25 -12 40t-30.5 22.5t-41 8t-43.5 -2.5v12l90 134h-166v68h279v-12
l-101 -146q27 -3 46.5 -14.5t33 -28.5t20.5 -37.5t7 -42.5q0 -28 -10.5 -53.5t-30 -45t-48 -31t-65.5 -11.5q-31 0 -57.5 8.5t-46 25t-31.5 40.5t-13 54z" />
    <glyph glyph-name="questiondown" unicode="&#xbf;" horiz-adv-x="495" 
d="M307 331q2 -48 -7 -82t-24.5 -59.5t-34.5 -45.5t-37.5 -39t-33.5 -39.5t-21 -48.5q-4 -31 3 -54.5t22.5 -39.5t37 -24t45.5 -8q19 0 37 6.5t33 18.5t25.5 29.5t13.5 40.5h97q-2 -50 -18 -87t-43 -61.5t-64 -36.5t-80 -12q-42 -1 -79 10t-66.5 31t-49 49t-25.5 64
q-6 36 -2 66q4 33 17.5 58.5t31 47t37.5 42.5t36 45.5t26 55.5t9 73h114zM250 506q28 0 47.5 -17t19.5 -44q0 -28 -19.5 -44.5t-47.5 -16.5t-46.5 16.5t-18.5 44.5q0 27 18.5 44t46.5 17z" />
    <glyph glyph-name="Agrave" unicode="&#xc0;" horiz-adv-x="703" 
d="M191 145l-68 -145h-122v15l324 690h54l322 -690v-15h-121l-69 145h-320zM229 243h245l-122 280zM396 763h-91l-88 110v10l100 38l79 -147v-11z" />
    <glyph glyph-name="Aacute" unicode="&#xc1;" horiz-adv-x="703" 
d="M191 145l-68 -145h-122v15l324 690h54l322 -690v-15h-121l-69 145h-320zM229 243h245l-122 280zM305 780l79 147l100 -38v-10l-88 -110h-91v11z" />
    <glyph glyph-name="Acircumflex" unicode="&#xc2;" horiz-adv-x="703" 
d="M191 145l-68 -145h-122v15l324 690h54l322 -690v-15h-121l-69 145h-320zM229 243h245l-122 280zM439 746l-87 85l-87 -85h-109v11l141 140h110l140 -141v-10h-108z" />
    <glyph glyph-name="Atilde" unicode="&#xc3;" horiz-adv-x="703" 
d="M191 145l-68 -145h-122v15l324 690h54l322 -690v-15h-121l-69 145h-320zM229 243h245l-122 280zM242 758l-29 14.5l-29 14.5q28 63 74 85t109 -12q15 -9 29 -15.5t27.5 -6.5t25.5 7.5t21 27.5q15 -7 28.5 -13.5t29.5 -14.5q-23 -63 -68 -85t-104 10q-15 9 -31 15.5t-31 7
t-28.5 -7t-23.5 -27.5z" />
    <glyph glyph-name="Adieresis" unicode="&#xc4;" horiz-adv-x="703" 
d="M191 145l-68 -145h-122v15l324 690h54l322 -690v-15h-121l-69 145h-320zM229 243h245l-122 280zM473 738q-27 0 -45.5 16t-18.5 42q0 27 18.5 43t45.5 16t45.5 -16t18.5 -43q0 -26 -18.5 -42t-45.5 -16zM229 738q-27 0 -45.5 16t-18.5 42q0 27 18.5 43t45.5 16
q26 0 45 -16t19 -43q0 -26 -19 -42t-45 -16z" />
    <glyph glyph-name="Aring" unicode="&#xc5;" horiz-adv-x="703" 
d="M288 804q0 -28 19 -42t42 -14t42 14t19 42t-19 42t-42 14t-42 -14t-19 -42zM229 243h245l-122 269zM191 145l-68 -145h-122v15l318 676q-39 8 -67.5 36t-28.5 77q0 39 18.5 65t46.5 39t61 13t61 -13t46.5 -39t18.5 -65q0 -48 -27 -75.5t-64 -35.5l317 -678v-15h-121
l-69 145h-320z" />
    <glyph glyph-name="AE" unicode="&#xc6;" horiz-adv-x="824" 
d="M115 0h-113v17l341 681h415v-100h-261v-190h248v-94h-248v-217h272v-97h-372v185h-193zM241 280h156l4 325h-1z" />
    <glyph glyph-name="Ccedilla" unicode="&#xc7;" horiz-adv-x="761" 
d="M46 349q0 85 29 151.5t77.5 113t113 70.5t136.5 24q52 0 102.5 -14.5t93.5 -43.5t75 -72.5t46 -103.5h-114q-26 65 -80.5 96t-123.5 32q-54 0 -97.5 -18.5t-75 -52t-48.5 -80t-17 -102.5q0 -52 17 -97.5t48.5 -79.5t75 -53.5t97.5 -19.5q72 0 128.5 35t79.5 105h113
q-12 -56 -38.5 -98.5t-62.5 -72.5t-80 -47.5t-91 -23.5l-14 -56q49 -4 69.5 -35t7.5 -74q-10 -32 -36.5 -48t-59.5 -19.5t-67 4.5t-59 25l6 63q12 -10 31 -16.5t38.5 -6.5t35 7t20.5 23t-1 26.5t-18 17t-27.5 9t-27.5 1.5l19 77q-66 5 -124.5 31.5t-102 72t-69 108.5
t-25.5 142z" />
    <glyph glyph-name="Egrave" unicode="&#xc8;" horiz-adv-x="577" 
d="M513 598h-309v-185h292v-103h-292v-204h315v-106h-432v700h426v-102zM366 759h-91l-88 110v10l100 38l79 -147v-11z" />
    <glyph glyph-name="Eacute" unicode="&#xc9;" horiz-adv-x="577" 
d="M513 598h-309v-185h292v-103h-292v-204h315v-106h-432v700h426v-102zM251 771l79 147l100 -38v-10l-88 -110h-91v11z" />
    <glyph glyph-name="Ecircumflex" unicode="&#xca;" horiz-adv-x="577" 
d="M513 598h-309v-185h292v-103h-292v-204h315v-106h-432v700h426v-102zM391 758l-83 84l-83 -84h-104v11l135 138h105l134 -139v-10h-104z" />
    <glyph glyph-name="Edieresis" unicode="&#xcb;" horiz-adv-x="577" 
d="M513 598h-309v-185h292v-103h-292v-204h315v-106h-432v700h426v-102zM424 765q-27 0 -45.5 16t-18.5 42q0 27 18.5 43t45.5 16t45.5 -16t18.5 -43q0 -26 -18.5 -42t-45.5 -16zM180 765q-27 0 -45.5 16t-18.5 42q0 27 18.5 43t45.5 16q26 0 45 -16t19 -43q0 -26 -19 -42
t-45 -16z" />
    <glyph glyph-name="Igrave" unicode="&#xcc;" horiz-adv-x="418" 
d="M378 94v-94h-338v94h111v513h-102v93h320v-93h-102v-513h111zM252 757h-91l-88 110v10l100 38l79 -147v-11z" />
    <glyph glyph-name="Iacute" unicode="&#xcd;" horiz-adv-x="418" 
d="M378 94v-94h-338v94h111v513h-102v93h320v-93h-102v-513h111zM155 776l79 147l100 -38v-10l-88 -110h-91v11z" />
    <glyph glyph-name="Icircumflex" unicode="&#xce;" horiz-adv-x="418" 
d="M378 94v-94h-338v94h111v513h-102v93h320v-93h-102v-513h111zM295 761l-83 83l-83 -83h-105v11l135 136h106l133 -137v-10h-103z" />
    <glyph glyph-name="Idieresis" unicode="&#xcf;" horiz-adv-x="418" 
d="M317 761q-27 0 -45.5 16t-18.5 42q0 27 18.5 43t45.5 16t45.5 -16t18.5 -43q0 -26 -18.5 -42t-45.5 -16zM104 761q-27 0 -45.5 16t-18.5 42q0 27 18.5 43t45.5 16q26 0 45 -16t19 -43q0 -26 -19 -42t-45 -16zM378 94v-94h-338v94h111v513h-102v93h320v-93h-102v-513h111z
" />
    <glyph glyph-name="Eth" unicode="&#xd0;" horiz-adv-x="738" 
d="M17 390h79v309h253q82 0 145.5 -28.5t107 -76.5t66.5 -111t23 -132t-22.5 -132.5t-66 -112t-107.5 -77.5t-146 -29h-253v298h-79v92zM347 106q54 0 96.5 19.5t72 53t44.5 77.5t15 94q0 49 -15.5 93.5t-44.5 78t-71 53t-96 19.5h-136v-204h119v-92h-119v-192h135z" />
    <glyph glyph-name="Ntilde" unicode="&#xd1;" horiz-adv-x="749" 
d="M194 476l8 -222v-254h-115v702h42l425 -471l-8 214v255h116v-701h-40zM242 750l-29 14.5l-29 14.5q28 63 74 85t109 -12q15 -9 29 -15.5t27.5 -6.5t25.5 7.5t21 27.5q15 -7 28.5 -13.5t29.5 -14.5q-23 -63 -68 -85t-104 10q-15 9 -31 15.5t-31 7t-28.5 -7t-23.5 -27.5z
" />
    <glyph glyph-name="Ograve" unicode="&#xd2;" horiz-adv-x="805" 
d="M759 350q0 -80 -26.5 -146.5t-73.5 -114.5t-113 -74.5t-145 -26.5q-72 0 -136.5 24.5t-113 71t-77 113.5t-28.5 153t29 153t78 113.5t114 71t136 24.5q72 0 136.5 -24.5t113 -71t77.5 -113.5t29 -153zM164 350q0 -61 19 -108t51 -79t75.5 -48.5t93.5 -16.5
q49 0 92.5 16.5t76.5 48.5t52 79t19 108q0 60 -19 107t-51.5 79.5t-76 49.5t-92.5 17q-50 0 -93.5 -17t-76 -49t-51.5 -79t-19 -108zM449 771h-91l-88 110v10l100 38l79 -147v-11z" />
    <glyph glyph-name="Oacute" unicode="&#xd3;" horiz-adv-x="805" 
d="M759 350q0 -80 -26.5 -146.5t-73.5 -114.5t-113 -74.5t-145 -26.5q-72 0 -136.5 24.5t-113 71t-77 113.5t-28.5 153t29 153t78 113.5t114 71t136 24.5q72 0 136.5 -24.5t113 -71t77.5 -113.5t29 -153zM164 350q0 -61 19 -108t51 -79t75.5 -48.5t93.5 -16.5
q49 0 92.5 16.5t76.5 48.5t52 79t19 108q0 60 -19 107t-51.5 79.5t-76 49.5t-92.5 17q-50 0 -93.5 -17t-76 -49t-51.5 -79t-19 -108zM360 783l79 147l100 -38v-10l-88 -110h-91v11z" />
    <glyph glyph-name="Ocircumflex" unicode="&#xd4;" horiz-adv-x="805" 
d="M759 350q0 -80 -26.5 -146.5t-73.5 -114.5t-113 -74.5t-145 -26.5q-72 0 -136.5 24.5t-113 71t-77 113.5t-28.5 153t29 153t78 113.5t114 71t136 24.5q72 0 136.5 -24.5t113 -71t77.5 -113.5t29 -153zM164 350q0 -61 19 -108t51 -79t75.5 -48.5t93.5 -16.5
q49 0 92.5 16.5t76.5 48.5t52 79t19 108q0 60 -19 107t-51.5 79.5t-76 49.5t-92.5 17q-50 0 -93.5 -17t-76 -49t-51.5 -79t-19 -108zM496 766l-87 85l-87 -85h-109v11l141 140h110l140 -141v-10h-108z" />
    <glyph glyph-name="Otilde" unicode="&#xd5;" horiz-adv-x="805" 
d="M759 350q0 -80 -26.5 -146.5t-73.5 -114.5t-113 -74.5t-145 -26.5q-72 0 -136.5 24.5t-113 71t-77 113.5t-28.5 153t29 153t78 113.5t114 71t136 24.5q72 0 136.5 -24.5t113 -71t77.5 -113.5t29 -153zM164 350q0 -61 19 -108t51 -79t75.5 -48.5t93.5 -16.5
q49 0 92.5 16.5t76.5 48.5t52 79t19 108q0 60 -19 107t-51.5 79.5t-76 49.5t-92.5 17q-50 0 -93.5 -17t-76 -49t-51.5 -79t-19 -108zM297 771l-29 14.5l-29 14.5q28 63 74 85t109 -12q15 -9 29 -15.5t27.5 -6.5t25.5 7.5t21 27.5q15 -7 28.5 -13.5t29.5 -14.5
q-23 -63 -68 -85t-104 10q-15 9 -31 15.5t-31 7t-28.5 -7t-23.5 -27.5z" />
    <glyph glyph-name="Odieresis" unicode="&#xd6;" horiz-adv-x="805" 
d="M759 350q0 -80 -26.5 -146.5t-73.5 -114.5t-113 -74.5t-145 -26.5q-72 0 -136.5 24.5t-113 71t-77 113.5t-28.5 153t29 153t78 113.5t114 71t136 24.5q72 0 136.5 -24.5t113 -71t77.5 -113.5t29 -153zM164 350q0 -61 19 -108t51 -79t75.5 -48.5t93.5 -16.5
q49 0 92.5 16.5t76.5 48.5t52 79t19 108q0 60 -19 107t-51.5 79.5t-76 49.5t-92.5 17q-50 0 -93.5 -17t-76 -49t-51.5 -79t-19 -108zM517 762q-27 0 -45.5 16t-18.5 42q0 27 18.5 43t45.5 16t45.5 -16t18.5 -43q0 -26 -18.5 -42t-45.5 -16zM273 762q-27 0 -45.5 16t-18.5 42
q0 27 18.5 43t45.5 16q26 0 45 -16t19 -43q0 -26 -19 -42t-45 -16z" />
    <glyph glyph-name="multiply" unicode="&#xd7;" horiz-adv-x="461" 
d="M127 517l104 -104l103 103l66 -66l-103 -103l102 -103l-66 -66l-102 103l-102 -102l-67 66l103 102l-104 104z" />
    <glyph glyph-name="Oslash" unicode="&#xd8;" horiz-adv-x="802" 
d="M631 630q56 -45 90.5 -114.5t34.5 -166.5q0 -86 -29 -152.5t-77.5 -113t-113 -70.5t-136.5 -24q-34 0 -68.5 6.5t-66.5 20.5l-43 -72q-27 0 -55 -0.5t-55 0.5v12l66 109q-59 44 -95.5 115t-36.5 169q0 86 29 153t78 113.5t113.5 70.5t135.5 24q37 0 73 -7t71 -22l41 71
h110v-10zM320 117q19 -8 39.5 -13t42.5 -5q49 0 92 17.5t75.5 50t51.5 78.5t19 104q0 62 -21.5 106.5t-54.5 73.5zM491 581q-42 18 -89 18q-49 0 -92.5 -17t-76 -49.5t-51.5 -79t-19 -104.5q0 -63 22.5 -109t57.5 -76z" />
    <glyph glyph-name="Ugrave" unicode="&#xd9;" horiz-adv-x="705" 
d="M354 -9q-57 0 -106.5 16t-87 47.5t-59 76.5t-21.5 104v465h116v-462q0 -35 12 -61.5t33.5 -44.5t50.5 -27.5t62 -9.5t61.5 9.5t49.5 27.5t33 44.5t12 61.5v462h115v-465q0 -59 -21.5 -104t-58 -76.5t-86 -47.5t-105.5 -16zM414 758h-91l-88 110v10l100 38l79 -147v-11z
" />
    <glyph glyph-name="Uacute" unicode="&#xda;" horiz-adv-x="705" 
d="M354 -9q-57 0 -106.5 16t-87 47.5t-59 76.5t-21.5 104v465h116v-462q0 -35 12 -61.5t33.5 -44.5t50.5 -27.5t62 -9.5t61.5 9.5t49.5 27.5t33 44.5t12 61.5v462h115v-465q0 -59 -21.5 -104t-58 -76.5t-86 -47.5t-105.5 -16zM289 775l79 147l100 -38v-10l-88 -110h-91v11z
" />
    <glyph glyph-name="Ucircumflex" unicode="&#xdb;" horiz-adv-x="705" 
d="M354 -9q-57 0 -106.5 16t-87 47.5t-59 76.5t-21.5 104v465h116v-462q0 -35 12 -61.5t33.5 -44.5t50.5 -27.5t62 -9.5t61.5 9.5t49.5 27.5t33 44.5t12 61.5v462h115v-465q0 -59 -21.5 -104t-58 -76.5t-86 -47.5t-105.5 -16zM439 761l-87 85l-87 -85h-109v11l141 140h110
l140 -141v-10h-108z" />
    <glyph glyph-name="Udieresis" unicode="&#xdc;" horiz-adv-x="705" 
d="M354 -9q-57 0 -106.5 16t-87 47.5t-59 76.5t-21.5 104v465h116v-462q0 -35 12 -61.5t33.5 -44.5t50.5 -27.5t62 -9.5t61.5 9.5t49.5 27.5t33 44.5t12 61.5v462h115v-465q0 -59 -21.5 -104t-58 -76.5t-86 -47.5t-105.5 -16zM471 759q-27 0 -45.5 16t-18.5 42q0 27 18.5 43
t45.5 16t45.5 -16t18.5 -43q0 -26 -18.5 -42t-45.5 -16zM227 759q-27 0 -45.5 16t-18.5 42q0 27 18.5 43t45.5 16q26 0 45 -16t19 -43q0 -26 -19 -42t-45 -16z" />
    <glyph glyph-name="Yacute" unicode="&#xdd;" horiz-adv-x="630" 
d="M317 383l87 166l91 151h124v-17l-246 -399v-284h-116v284l-247 399v17h125l94 -156l84 -161h4zM254 776l79 147l100 -38v-10l-88 -110h-91v11z" />
    <glyph glyph-name="Thorn" unicode="&#xde;" horiz-adv-x="654" 
d="M377 212q29 0 53.5 11t42.5 30.5t28 46t10 56.5t-9.5 56.5t-27 45.5t-42.5 30t-55 11h-175v-287h175zM87 700h116v-101h174q58 0 104 -19.5t77.5 -53.5t48.5 -78.5t17 -94.5q-1 -49 -18 -93t-48.5 -77.5t-77 -53t-103.5 -19.5h-174v-110h-116v700z" />
    <glyph glyph-name="germandbls" unicode="&#xdf;" horiz-adv-x="600" 
d="M71 497q0 72 25.5 115t66 65t91 26.5t101 -0.5t96 -16t75.5 -20v-22l-134 -235q36 0 66.5 -15t53 -41t35 -60.5t12.5 -73.5q0 -68 -22 -116.5t-60.5 -76.5t-92 -34t-116.5 13v88q41 -11 73.5 -6.5t55 21t35 44t12.5 63.5t-14.5 63t-38.5 43t-55 20.5t-65 -2.5v26l123 237
q-45 14 -84.5 15t-68.5 -12.5t-45.5 -43.5t-16.5 -79v-483h-108v497z" />
    <glyph glyph-name="agrave" unicode="&#xe0;" horiz-adv-x="549" 
d="M384 81q-12 -24 -31.5 -41t-43.5 -28t-50.5 -16t-51.5 -5q-33 0 -64 10.5t-55.5 29.5t-39 46.5t-14.5 63.5q-1 43 13 75t39.5 53t60.5 31.5t74 10.5q35 0 73 -9t70 -27v48q0 23 -9.5 39.5t-25.5 26.5t-37.5 15t-44.5 6t-46.5 -2t-45 -7.5t-39 -10.5t-29.5 -12l-16 78
q37 19 83.5 28.5t94.5 9.5q44 0 84 -8.5t70.5 -28.5t48.5 -53.5t18 -83.5v-190q0 -17 0.5 -30.5t5 -22.5t14.5 -13.5t30 -2.5l2 -62q-29 -5 -53.5 -6t-43 6.5t-29.5 27t-12 54.5zM364 205q-27 16 -60 25t-65 8q-40 -1 -69 -24t-29 -67q0 -36 27.5 -53t60.5 -17q21 0 43.5 5
t41.5 16t32.5 27.5t17.5 39.5v40zM318 580h-84l-80 101v9l91 35l73 -135v-10z" />
    <glyph glyph-name="aacute" unicode="&#xe1;" horiz-adv-x="549" 
d="M384 81q-12 -24 -31.5 -41t-43.5 -28t-50.5 -16t-51.5 -5q-33 0 -64 10.5t-55.5 29.5t-39 46.5t-14.5 63.5q-1 43 13 75t39.5 53t60.5 31.5t74 10.5q35 0 73 -9t70 -27v48q0 23 -9.5 39.5t-25.5 26.5t-37.5 15t-44.5 6t-46.5 -2t-45 -7.5t-39 -10.5t-29.5 -12l-16 78
q37 19 83.5 28.5t94.5 9.5q44 0 84 -8.5t70.5 -28.5t48.5 -53.5t18 -83.5v-190q0 -17 0.5 -30.5t5 -22.5t14.5 -13.5t30 -2.5l2 -62q-29 -5 -53.5 -6t-43 6.5t-29.5 27t-12 54.5zM364 205q-27 16 -60 25t-65 8q-40 -1 -69 -24t-29 -67q0 -36 27.5 -53t60.5 -17q21 0 43.5 5
t41.5 16t32.5 27.5t17.5 39.5v40zM209 594l71 133l90 -35v-9l-79 -98h-82v9z" />
    <glyph glyph-name="acircumflex" unicode="&#xe2;" horiz-adv-x="549" 
d="M384 81q-12 -24 -31.5 -41t-43.5 -28t-50.5 -16t-51.5 -5q-33 0 -64 10.5t-55.5 29.5t-39 46.5t-14.5 63.5q-1 43 13 75t39.5 53t60.5 31.5t74 10.5q35 0 73 -9t70 -27v48q0 23 -9.5 39.5t-25.5 26.5t-37.5 15t-44.5 6t-46.5 -2t-45 -7.5t-39 -10.5t-29.5 -12l-16 78
q37 19 83.5 28.5t94.5 9.5q44 0 84 -8.5t70.5 -28.5t48.5 -53.5t18 -83.5v-190q0 -17 0.5 -30.5t5 -22.5t14.5 -13.5t30 -2.5l2 -62q-29 -5 -53.5 -6t-43 6.5t-29.5 27t-12 54.5zM364 205q-27 16 -60 25t-65 8q-40 -1 -69 -24t-29 -67q0 -36 27.5 -53t60.5 -17q21 0 43.5 5
t41.5 16t32.5 27.5t17.5 39.5v40zM339 576l-77 81l-77 -81h-96v10l125 134h97l123 -135v-9h-95z" />
    <glyph glyph-name="atilde" unicode="&#xe3;" horiz-adv-x="549" 
d="M384 81q-12 -24 -31.5 -41t-43.5 -28t-50.5 -16t-51.5 -5q-33 0 -64 10.5t-55.5 29.5t-39 46.5t-14.5 63.5q-1 43 13 75t39.5 53t60.5 31.5t74 10.5q35 0 73 -9t70 -27v48q0 23 -9.5 39.5t-25.5 26.5t-37.5 15t-44.5 6t-46.5 -2t-45 -7.5t-39 -10.5t-29.5 -12l-16 78
q37 19 83.5 28.5t94.5 9.5q44 0 84 -8.5t70.5 -28.5t48.5 -53.5t18 -83.5v-190q0 -17 0.5 -30.5t5 -22.5t14.5 -13.5t30 -2.5l2 -62q-29 -5 -53.5 -6t-43 6.5t-29.5 27t-12 54.5zM364 205q-27 16 -60 25t-65 8q-40 -1 -69 -24t-29 -67q0 -36 27.5 -53t60.5 -17q21 0 43.5 5
t41.5 16t32.5 27.5t17.5 39.5v40zM150 601q-13 7 -27 14t-27 13q27 59 69.5 79.5t101.5 -11.5q14 -8 27 -14t25.5 -6t24 7t19.5 26q14 -7 26.5 -13t27.5 -13q-21 -59 -63 -79.5t-97 9.5q-14 8 -29 14t-29 6.5t-26.5 -6.5t-22.5 -26z" />
    <glyph glyph-name="adieresis" unicode="&#xe4;" horiz-adv-x="549" 
d="M366 589q-27 0 -45.5 16t-18.5 42q0 27 18.5 43t45.5 16t45.5 -16t18.5 -43q0 -26 -18.5 -42t-45.5 -16zM157 589q-27 0 -45.5 16t-18.5 42q0 27 18.5 43t45.5 16q26 0 45 -16t19 -43q0 -26 -19 -42t-45 -16zM384 81q-12 -24 -31.5 -41t-43.5 -28t-50.5 -16t-51.5 -5
q-33 0 -64 10.5t-55.5 29.5t-39 46.5t-14.5 63.5q-1 43 13 75t39.5 53t60.5 31.5t74 10.5q35 0 73 -9t70 -27v48q0 23 -9.5 39.5t-25.5 26.5t-37.5 15t-44.5 6t-46.5 -2t-45 -7.5t-39 -10.5t-29.5 -12l-16 78q37 19 83.5 28.5t94.5 9.5q44 0 84 -8.5t70.5 -28.5t48.5 -53.5
t18 -83.5v-190q0 -17 0.5 -30.5t5 -22.5t14.5 -13.5t30 -2.5l2 -62q-29 -5 -53.5 -6t-43 6.5t-29.5 27t-12 54.5zM364 205q-27 16 -60 25t-65 8q-40 -1 -69 -24t-29 -67q0 -36 27.5 -53t60.5 -17q21 0 43.5 5t41.5 16t32.5 27.5t17.5 39.5v40z" />
    <glyph glyph-name="aring" unicode="&#xe5;" horiz-adv-x="549" 
d="M384 81q-12 -24 -31.5 -41t-43.5 -28t-50.5 -16t-51.5 -5q-33 0 -64 10.5t-55.5 29.5t-39 46.5t-14.5 63.5q-1 43 13 75t39.5 53t60.5 31.5t74 10.5q35 0 73 -9t70 -27v48q0 23 -9.5 39.5t-25.5 26.5t-37.5 15t-44.5 6t-46.5 -2t-45 -7.5t-39 -10.5t-29.5 -12l-16 78
q37 19 83.5 28.5t94.5 9.5q44 0 84 -8.5t70.5 -28.5t48.5 -53.5t18 -83.5v-190q0 -17 0.5 -30.5t5 -22.5t14.5 -13.5t30 -2.5l2 -62q-29 -5 -53.5 -6t-43 6.5t-29.5 27t-12 54.5zM364 205q-27 16 -60 25t-65 8q-40 -1 -69 -24t-29 -67q0 -36 27.5 -53t60.5 -17q21 0 43.5 5
t41.5 16t32.5 27.5t17.5 39.5v40zM386 651q0 -33 -17 -54.5t-43 -33t-56 -11.5t-56 11.5t-43 33t-17 54.5q0 32 17 54t43 33t56 11t56 -11t43 -33t17 -54zM213 651q0 -24 18 -35.5t39 -11.5t39 11.5t18 35.5q0 23 -18 34.5t-39 11.5t-39 -11.5t-18 -34.5z" />
    <glyph glyph-name="ae" unicode="&#xe6;" horiz-adv-x="820" 
d="M203 -10q-33 0 -63 10t-53 29t-37.5 46.5t-15.5 62.5q-2 39 9.5 70t32.5 52.5t49 34.5t61 16q14 2 28.5 2.5t29.5 -1.5q29 -2 58.5 -10.5t55.5 -23.5v38q0 27 -11.5 45.5t-30.5 29.5t-43.5 16t-50.5 4q-39 -2 -76.5 -13t-58.5 -22l-15 76q33 17 77 28.5t93 11.5
q30 0 58 -5t51 -16.5t39.5 -31t23.5 -48.5q22 51 66.5 76t100.5 25q61 0 103 -22t65.5 -59t29 -86t-5.5 -104h-324q1 -69 36 -105.5t102 -37.5q41 -2 84 7.5t75 25.5l17 -82q-40 -17 -84.5 -29t-89.5 -12q-61 1 -109 25.5t-77 75.5q-35 -48 -85.5 -73.5t-114.5 -25.5z
M357 203q-26 16 -58.5 26t-62.5 8q-40 -1 -70 -25t-30 -66q0 -19 8 -32.5t20.5 -22t28.5 -13t33 -4.5q21 0 43 6t40.5 17t33 27t20.5 37q-5 19 -6 42zM575 407q-50 1 -82.5 -28t-41.5 -80h236q2 49 -30 78.5t-82 29.5z" />
    <glyph glyph-name="ccedilla" unicode="&#xe7;" horiz-adv-x="566" 
d="M263 -6q-43 4 -83 22t-71 49t-49.5 75.5t-18.5 102.5q0 76 32 129.5t81.5 84t108.5 37.5t113.5 -10t96 -57.5t55.5 -104.5h-104q-13 32 -38 50.5t-56 24t-63 -1t-58 -26t-43 -51t-17 -75.5q0 -45 17 -77t43.5 -51.5t59 -26t63.5 1t56 28.5t38 56h105q-8 -38 -25.5 -68.5
t-42 -52.5t-54.5 -36t-63 -20l-10 -43q25 -2 42 -12t26.5 -26t11 -35.5t-4.5 -40.5q-10 -32 -36.5 -48.5t-59.5 -20t-67 5t-59 25.5l5 60q12 -10 31.5 -17.5t39.5 -9t36.5 4.5t21.5 22t-1.5 28t-19.5 20.5t-28.5 12.5t-27.5 3z" />
    <glyph glyph-name="egrave" unicode="&#xe8;" horiz-adv-x="551" 
d="M291 493q63 0 109 -20t73 -56t35 -86t-4 -110h-356q0 -33 12 -59t33.5 -44t50 -27.5t61.5 -9.5q45 -2 88.5 4.5t86.5 25.5l14 -81q-42 -19 -89 -30t-93 -11q-60 -1 -110.5 17t-86.5 52t-56 82.5t-18 110.5q1 60 22 105.5t55 76t79 45.5t94 15zM290 409q-54 0 -91.5 -27
t-48.5 -84h266q1 27 -9 48t-27 35t-40.5 21t-49.5 7zM338 583h-85l-83 103v9l94 36l74 -138v-10z" />
    <glyph glyph-name="eacute" unicode="&#xe9;" horiz-adv-x="551" 
d="M291 493q63 0 109 -20t73 -56t35 -86t-4 -110h-356q0 -33 12 -59t33.5 -44t50 -27.5t61.5 -9.5q45 -2 88.5 4.5t86.5 25.5l14 -81q-42 -19 -89 -30t-93 -11q-60 -1 -110.5 17t-86.5 52t-56 82.5t-18 110.5q1 60 22 105.5t55 76t79 45.5t94 15zM290 409q-54 0 -91.5 -27
t-48.5 -84h266q1 27 -9 48t-27 35t-40.5 21t-49.5 7zM235 599l73 136l93 -35v-9l-82 -103h-84v11z" />
    <glyph glyph-name="ecircumflex" unicode="&#xea;" horiz-adv-x="551" 
d="M291 493q63 0 109 -20t73 -56t35 -86t-4 -110h-356q0 -33 12 -59t33.5 -44t50 -27.5t61.5 -9.5q45 -2 88.5 4.5t86.5 25.5l14 -81q-42 -19 -89 -30t-93 -11q-60 -1 -110.5 17t-86.5 52t-56 82.5t-18 110.5q1 60 22 105.5t55 76t79 45.5t94 15zM290 409q-54 0 -91.5 -27
t-48.5 -84h266q1 27 -9 48t-27 35t-40.5 21t-49.5 7zM369 571l-81 79l-80 -79h-101v11l130 129h102l130 -130v-10h-100z" />
    <glyph glyph-name="edieresis" unicode="&#xeb;" horiz-adv-x="551" 
d="M291 493q63 0 109 -20t73 -56t35 -86t-4 -110h-356q0 -33 12 -59t33.5 -44t50 -27.5t61.5 -9.5q45 -2 88.5 4.5t86.5 25.5l14 -81q-42 -19 -89 -30t-93 -11q-60 -1 -110.5 17t-86.5 52t-56 82.5t-18 110.5q1 60 22 105.5t55 76t79 45.5t94 15zM290 409q-54 0 -91.5 -27
t-48.5 -84h266q1 27 -9 48t-27 35t-40.5 21t-49.5 7zM395 592q-25 0 -42 14.5t-17 38.5q0 25 17 40t42 15t42 -15t17 -40q0 -24 -17 -38.5t-42 -14.5zM169 592q-25 0 -42 14.5t-17 38.5q0 25 17 40t42 15q24 0 42 -15t18 -40q0 -24 -18 -38.5t-42 -14.5z" />
    <glyph glyph-name="igrave" unicode="&#xec;" horiz-adv-x="252" 
d="M180 0h-108v481h108v-481zM170 570h-88l-85 106v10l97 36l76 -141v-11z" />
    <glyph glyph-name="iacute" unicode="&#xed;" horiz-adv-x="252" 
d="M180 0h-108v481h108v-481zM71 584l76 141l96 -37v-9l-84 -106h-88v11z" />
    <glyph glyph-name="icircumflex" unicode="&#xee;" horiz-adv-x="252" 
d="M180 0h-108v481h108v-481zM194 563l-70 88l-71 -88h-88v12l114 144h90l113 -145v-11h-88z" />
    <glyph glyph-name="idieresis" unicode="&#xef;" horiz-adv-x="252" 
d="M223 588q-27 0 -45.5 16t-18.5 42q0 27 18.5 43t45.5 16t45.5 -16t18.5 -43q0 -26 -18.5 -42t-45.5 -16zM29 588q-27 0 -45.5 16t-18.5 42q0 27 18.5 43t45.5 16q26 0 45 -16t19 -43q0 -26 -19 -42t-45 -16zM180 0h-108v481h108v-481z" />
    <glyph glyph-name="eth" unicode="&#xf0;" horiz-adv-x="592" 
d="M42 237q0 52 18.5 95.5t50 75t73 48.5t87.5 17q70 0 126 -41q-14 33 -37 64.5t-46 58.5l-58 -41l-30 42l57 40q-47 55 -99 96v5h91q36 -24 70 -58l60 41l29 -41l-52 -37q35 -38 65.5 -81.5t53 -90t35.5 -95.5t13 -98q0 -80 -37.5 -135t-94 -83t-122 -29.5t-122 25.5
t-94 82t-37.5 140zM439 237q0 49 -21.5 81.5t-53.5 48.5t-69 16t-69 -16t-53.5 -48.5t-21.5 -81.5q0 -51 21.5 -84.5t53.5 -50.5t69 -17t69 17t53.5 50.5t21.5 84.5z" />
    <glyph glyph-name="ntilde" unicode="&#xf1;" horiz-adv-x="606" 
d="M432 0v283q1 56 -31.5 88.5t-81.5 33.5q-25 0 -47.5 -9.5t-39 -26.5t-26 -41.5t-9.5 -53.5v-274h-110v342q0 21 -1 35t-6 22.5t-15.5 11t-28.5 1.5v71q26 5 53 7t48.5 -5t35.5 -25t14 -52q10 23 28 39t40.5 26t47 14.5t48.5 4.5q49 0 85 -16t59.5 -44t35 -66t11.5 -83
v-283h-110zM182 590q-13 7 -27.5 14t-27.5 13q27 60 70 81t103 -12q14 -8 27.5 -14t26 -6t24 7t19.5 26q14 -7 27 -13t28 -14q-22 -59 -64.5 -80t-97.5 9q-15 9 -30 15t-29 6.5t-27 -6.5t-22 -26z" />
    <glyph glyph-name="ograve" unicode="&#xf2;" 
d="M550 243q0 -84 -37.5 -140t-94.5 -84t-122.5 -28t-122.5 28t-94.5 84t-37.5 140t37.5 139.5t94.5 83.5t122.5 28t122.5 -28t94.5 -83.5t37.5 -139.5zM149 243q0 -52 21.5 -86.5t54 -52t70.5 -17.5t70.5 17.5t54 52t21.5 86.5t-21.5 86.5t-54 51.5t-70.5 17t-70.5 -17
t-54 -51.5t-21.5 -86.5zM340 583h-84l-82 102v9l93 35l73 -136v-10z" />
    <glyph glyph-name="oacute" unicode="&#xf3;" 
d="M550 243q0 -84 -37.5 -140t-94.5 -84t-122.5 -28t-122.5 28t-94.5 84t-37.5 140t37.5 139.5t94.5 83.5t122.5 28t122.5 -28t94.5 -83.5t37.5 -139.5zM149 243q0 -52 21.5 -86.5t54 -52t70.5 -17.5t70.5 17.5t54 52t21.5 86.5t-21.5 86.5t-54 51.5t-70.5 17t-70.5 -17
t-54 -51.5t-21.5 -86.5zM241 587l73 136l93 -35v-9l-82 -103h-84v11z" />
    <glyph glyph-name="ocircumflex" unicode="&#xf4;" 
d="M550 243q0 -84 -37.5 -140t-94.5 -84t-122.5 -28t-122.5 28t-94.5 84t-37.5 140t37.5 139.5t94.5 83.5t122.5 28t122.5 -28t94.5 -83.5t37.5 -139.5zM149 243q0 -52 21.5 -86.5t54 -52t70.5 -17.5t70.5 17.5t54 52t21.5 86.5t-21.5 86.5t-54 51.5t-70.5 17t-70.5 -17
t-54 -51.5t-21.5 -86.5zM373 568l-80 81l-79 -81h-100v10l129 134h101l128 -135v-9h-99z" />
    <glyph glyph-name="otilde" unicode="&#xf5;" 
d="M550 243q0 -84 -37.5 -140t-94.5 -84t-122.5 -28t-122.5 28t-94.5 84t-37.5 140t37.5 139.5t94.5 83.5t122.5 28t122.5 -28t94.5 -83.5t37.5 -139.5zM149 243q0 -52 21.5 -86.5t54 -52t70.5 -17.5t70.5 17.5t54 52t21.5 86.5t-21.5 86.5t-54 51.5t-70.5 17t-70.5 -17
t-54 -51.5t-21.5 -86.5zM186 602q-13 7 -27.5 14t-27.5 13q27 60 70 81t103 -12q14 -8 27.5 -14t26 -6t24 7t19.5 26q14 -7 27 -13t28 -14q-22 -59 -64.5 -80t-97.5 9q-15 9 -30 15t-29 6.5t-27 -6.5t-22 -26z" />
    <glyph glyph-name="odieresis" unicode="&#xf6;" 
d="M550 243q0 -84 -37.5 -140t-94.5 -84t-122.5 -28t-122.5 28t-94.5 84t-37.5 140t37.5 139.5t94.5 83.5t122.5 28t122.5 -28t94.5 -83.5t37.5 -139.5zM149 243q0 -52 21.5 -86.5t54 -52t70.5 -17.5t70.5 17.5t54 52t21.5 86.5t-21.5 86.5t-54 51.5t-70.5 17t-70.5 -17
t-54 -51.5t-21.5 -86.5zM401 591q-25 0 -42 14.5t-17 38.5q0 25 17 40t42 15t42 -15t17 -40q0 -24 -17 -38.5t-42 -14.5zM175 591q-25 0 -42 14.5t-17 38.5q0 25 17 40t42 15q24 0 42 -15t18 -40q0 -24 -18 -38.5t-42 -14.5z" />
    <glyph glyph-name="divide" unicode="&#xf7;" horiz-adv-x="538" 
d="M269 120q-27 0 -46.5 17t-19.5 44q0 29 19.5 45.5t46.5 16.5q28 0 47 -16.5t19 -45.5q0 -27 -19 -44t-47 -17zM269 474q-27 0 -46.5 17t-19.5 44q0 29 19.5 45.5t46.5 16.5q28 0 47 -16.5t19 -45.5q0 -27 -19 -44t-47 -17zM62 403h414v-92h-414v92z" />
    <glyph glyph-name="oslash" unicode="&#xf8;" 
d="M550 243q0 -75 -31 -128t-79 -83t-106.5 -37.5t-113.5 7.5l-29 -58h-86l45 89q-48 30 -78.5 82.5t-30.5 127.5q0 76 32 129.5t81.5 83t108.5 36t114 -10.5l32 63h87l-48 -96q45 -30 73.5 -81.5t28.5 -123.5zM146 243q0 -42 15.5 -70.5t40.5 -45.5l135 267
q-32 9 -65.5 4.5t-61.5 -23.5t-46 -52t-18 -80zM446 243q0 39 -14.5 67t-36.5 45l-136 -265q31 -8 64.5 -2.5t60.5 25t44.5 52t17.5 78.5z" />
    <glyph glyph-name="ugrave" unicode="&#xf9;" horiz-adv-x="597" 
d="M510 482v-344q0 -22 1.5 -36t6.5 -22t15.5 -10.5t27.5 -0.5l1 -71q-23 -4 -49.5 -6.5t-49 3.5t-37 25t-14.5 58q-25 -49 -70.5 -67.5t-96.5 -18.5q-50 0 -84.5 16.5t-55.5 45t-30.5 66.5t-9.5 83v279h110v-279q-1 -58 27.5 -91t76.5 -33q52 0 87 34.5t35 92.5v276h109z
M344 578h-86l-84 105v9l95 36l75 -139v-11z" />
    <glyph glyph-name="uacute" unicode="&#xfa;" horiz-adv-x="597" 
d="M510 482v-344q0 -22 1.5 -36t6.5 -22t15.5 -10.5t27.5 -0.5l1 -71q-23 -4 -49.5 -6.5t-49 3.5t-37 25t-14.5 58q-25 -49 -70.5 -67.5t-96.5 -18.5q-50 0 -84.5 16.5t-55.5 45t-30.5 66.5t-9.5 83v279h110v-279q-1 -58 27.5 -91t76.5 -33q52 0 87 34.5t35 92.5v276h109z
M235 588l75 138l94 -35v-10l-83 -103h-86v10z" />
    <glyph glyph-name="ucircumflex" unicode="&#xfb;" horiz-adv-x="597" 
d="M510 482v-344q0 -22 1.5 -36t6.5 -22t15.5 -10.5t27.5 -0.5l1 -71q-23 -4 -49.5 -6.5t-49 3.5t-37 25t-14.5 58q-25 -49 -70.5 -67.5t-96.5 -18.5q-50 0 -84.5 16.5t-55.5 45t-30.5 66.5t-9.5 83v279h110v-279q-1 -58 27.5 -91t76.5 -33q52 0 87 34.5t35 92.5v276h109z
M366 574l-83 81l-83 -81h-104v11l135 133h105l134 -134v-10h-104z" />
    <glyph glyph-name="udieresis" unicode="&#xfc;" horiz-adv-x="597" 
d="M510 482v-344q0 -22 1.5 -36t6.5 -22t15.5 -10.5t27.5 -0.5l1 -71q-23 -4 -49.5 -6.5t-49 3.5t-37 25t-14.5 58q-25 -49 -70.5 -67.5t-96.5 -18.5q-50 0 -84.5 16.5t-55.5 45t-30.5 66.5t-9.5 83v279h110v-279q-1 -58 27.5 -91t76.5 -33q52 0 87 34.5t35 92.5v276h109z
M403 589q-26 0 -44 15.5t-18 41.5t18 41.5t44 15.5t44 -15.5t18 -41.5t-18 -41.5t-44 -15.5zM165 589q-26 0 -44.5 15.5t-18.5 41.5t18.5 41.5t44.5 15.5q25 0 43.5 -15.5t18.5 -41.5t-18.5 -41.5t-43.5 -15.5z" />
    <glyph glyph-name="yacute" unicode="&#xfd;" horiz-adv-x="551" 
d="M319 -41q-21 -53 -44.5 -98.5t-55.5 -73.5t-76 -33.5t-107 21.5l13 79q32 -14 56.5 -14t43.5 12t32.5 34t24.5 52l23 59l-217 473v12h117l71 -168l79 -212h3l73 211l64 169h109v-12zM211 580l78 146l99 -37v-10l-87 -110h-90v11z" />
    <glyph glyph-name="thorn" unicode="&#xfe;" horiz-adv-x="585" 
d="M543 245q0 -75 -31 -131.5t-81.5 -86.5t-116 -30t-134.5 37v-281h-109v966h109v-263q69 37 134.5 37.5t116 -29.5t81.5 -86.5t31 -132.5zM432 245q0 56 -23.5 92.5t-60.5 51.5t-82.5 8.5t-88.5 -36.5v-232q43 -30 88.5 -36.5t82.5 8.5t60.5 51.5t23.5 92.5z" />
    <glyph glyph-name="ydieresis" unicode="&#xff;" horiz-adv-x="551" 
d="M319 -41q-21 -53 -44.5 -98.5t-55.5 -73.5t-76 -33.5t-107 21.5l13 79q32 -14 56.5 -14t43.5 12t32.5 34t24.5 52l23 59l-217 473v12h117l71 -168l79 -212h3l73 211l64 169h109v-12zM396 586q-27 0 -45.5 16t-18.5 42q0 27 18.5 43t45.5 16t45.5 -16t18.5 -43
q0 -26 -18.5 -42t-45.5 -16zM152 586q-27 0 -45.5 16t-18.5 42q0 27 18.5 43t45.5 16q26 0 45 -16t19 -43q0 -26 -19 -42t-45 -16z" />
    <glyph glyph-name="OE" unicode="&#x152;" horiz-adv-x="927" 
d="M503 0q-56 -12 -106 -12q-75 0 -139 24t-111 70t-73.5 113t-26.5 153q0 88 27.5 155.5t75.5 113.5t113.5 69.5t140.5 23.5q50 0 103 -12h357v-97h-280v-193h262v-92h-262v-219h286v-97h-367zM156 348q0 -65 18 -115t51 -83.5t79 -50.5t102 -17q20 0 41 2.5t41 8.5v510
q-42 11 -81 11q-56 0 -102.5 -18t-79.5 -52t-51 -83.5t-18 -112.5z" />
    <glyph glyph-name="oe" unicode="&#x153;" horiz-adv-x="892" 
d="M41 241q0 68 25 118t65 82t88.5 44.5t96 5t88 -35t63.5 -75.5q29 58 77.5 85t111.5 27q60 0 100.5 -22t64 -59.5t29 -86.5t-5.5 -103h-318q2 -69 38 -103.5t101 -37.5q38 -2 79.5 8.5t73.5 24.5l17 -84q-42 -19 -85.5 -29t-85.5 -9q-33 0 -64 7.5t-57.5 22t-46.5 37
t-31 54.5q-21 -51 -60.5 -80.5t-86.5 -38.5t-96.5 2t-89.5 42.5t-65.5 82.5t-25.5 121zM150 241q0 -52 20 -86.5t49.5 -51.5t64.5 -17t64.5 17t49.5 51.5t20 86.5t-20 86.5t-49.5 51.5t-64.5 17t-64.5 -17t-49.5 -51.5t-20 -86.5zM651 406q-48 0 -80.5 -28.5t-42.5 -78.5
h228q2 49 -27 78t-78 29z" />
    <glyph glyph-name="Scaron" unicode="&#x160;" horiz-adv-x="647" 
d="M159 199q2 -29 17.5 -50t39.5 -34t52.5 -18.5t57.5 -5.5q28 0 56.5 5t52 17t38.5 33t15 54q0 34 -16 54.5t-41.5 31.5t-57 15.5t-61.5 7.5q-48 4 -94 15t-81.5 32.5t-57.5 56.5t-22 88q0 54 22 94t58.5 66t84 39t98.5 13q50 0 97 -11.5t83 -36.5t58.5 -63t23.5 -92h-110
q-2 28 -16.5 47t-36 31t-48.5 16.5t-52 4.5q-24 0 -50 -5.5t-47.5 -17.5t-35.5 -32t-14 -50t13.5 -47.5t36 -28t51.5 -15.5t59 -9q53 -6 102.5 -16t87 -32t60 -59.5t22.5 -97.5q0 -58 -25 -98t-64 -65.5t-88.5 -37t-98.5 -11.5q-51 -1 -101.5 11.5t-90.5 38.5t-65 66t-26 96
h114zM237 924l87 -84l87 84h109v-10l-141 -140h-110l-140 140v10h108z" />
    <glyph glyph-name="scaron" unicode="&#x161;" horiz-adv-x="508" 
d="M144 142q1 -19 11 -32.5t25.5 -22.5t34.5 -13.5t39 -4.5t40 3.5t36.5 11.5t27 22t11.5 37q0 17 -8 28t-22.5 18t-34 11.5t-43.5 7.5q-37 5 -74.5 11t-68 19.5t-50 37.5t-20.5 65q0 39 17 67t46 47t66 28t76 9q41 0 79 -9t66.5 -27.5t44.5 -45.5t15 -63h-96q0 18 -10 30
t-25.5 19.5t-35 10.5t-38.5 3t-37 -4.5t-32 -13t-22.5 -21t-7.5 -28.5q1 -30 30 -40.5t85 -17.5q38 -5 74 -12t63.5 -22t44.5 -41.5t17 -68.5q0 -40 -18 -69t-47 -47.5t-67 -27.5t-78 -9t-78.5 7t-69 25t-50.5 47.5t-23 74.5h107zM176 698l78 -76l79 76h99v-9l-128 -126h-99
l-127 126v9h98z" />
    <glyph glyph-name="Ydieresis" unicode="&#x178;" horiz-adv-x="630" 
d="M317 383l87 166l91 151h124v-17l-246 -399v-284h-116v284l-247 399v17h125l94 -156l84 -161h4zM437 760q-27 0 -45.5 16t-18.5 42q0 27 18.5 43t45.5 16t45.5 -16t18.5 -43q0 -26 -18.5 -42t-45.5 -16zM193 760q-27 0 -45.5 16t-18.5 42q0 27 18.5 43t45.5 16
q26 0 45 -16t19 -43q0 -26 -19 -42t-45 -16z" />
    <glyph glyph-name="Zcaron" unicode="&#x17d;" horiz-adv-x="598" 
d="M560 682l-272 -434l-103 -145h377v-103h-541v16l235 374l140 208h-345v102l509 -1v-17zM218 918l87 -84l87 84h109v-10l-141 -140h-110l-140 140v10h108z" />
    <glyph glyph-name="zcaron" unicode="&#x17e;" horiz-adv-x="469" 
d="M30 22l140 219l105 152h-230v89h387v-14l-149 -231l-98 -143h246v-94h-401v22zM164 699l73 -76l73 76h91v-9l-118 -128h-93l-117 128v9h91z" />
    <glyph glyph-name="florin" unicode="&#x192;" horiz-adv-x="551" 
d="M326 -35q0 -71 -24.5 -113t-65 -60t-93 -14.5t-107.5 22.5l11 82q31 -13 61.5 -17t55 4t39.5 31.5t15 66.5v334h-152v78h152v153q0 72 27 113.5t70 59t96 13.5t105 -22l-11 -82q-32 13 -63.5 17.5t-57 -3.5t-41.5 -31t-16 -66v-152h160v-78h-160q0 -85 -0.5 -168
t-0.5 -168z" />
    <glyph glyph-name="circumflex" unicode="&#x2c6;" horiz-adv-x="494" 
d="M341 551l-87 85l-87 -85h-109v11l141 140h110l140 -141v-10h-108z" />
    <glyph glyph-name="tilde" unicode="&#x2dc;" horiz-adv-x="442" 
d="M111 593l-29 14.5l-29 14.5q28 63 74 85t109 -12q15 -9 29 -15.5t27.5 -6.5t25.5 7.5t21 27.5q15 -7 28.5 -13.5t29.5 -14.5q-23 -63 -68 -85t-104 10q-15 9 -31 15.5t-31 7t-28.5 -7t-23.5 -27.5z" />
    <glyph glyph-name="endash" unicode="&#x2013;" horiz-adv-x="543" 
d="M64 380h415v-94h-415v94z" />
    <glyph glyph-name="emdash" unicode="&#x2014;" horiz-adv-x="631" 
d="M64 380h503v-94h-503v94z" />
    <glyph glyph-name="quoteleft" unicode="&#x2018;" horiz-adv-x="239" 
d="M54 568q1 14 7 28l34 106h66l-22 -77q20 -6 33 -21.5t13 -38.5q0 -28 -18.5 -44.5t-46.5 -16.5q-23 0 -40 11.5t-23 31.5q-3 10 -3 21z" />
    <glyph glyph-name="quoteright" unicode="&#x2019;" horiz-adv-x="241" 
d="M187 641q-1 -8 -2 -14t-4 -14l-34 -106h-66l22 78q-20 5 -33.5 20.5t-13.5 38.5q0 28 19 44.5t47 16.5q22 0 39 -11.5t24 -31.5q1 -5 2 -10.5t0 -10.5z" />
    <glyph glyph-name="quotesinglbase" unicode="&#x201a;" horiz-adv-x="257" 
d="M194 44q-1 -8 -2.5 -14l-3.5 -14q-10 -27 -18.5 -54t-16.5 -54h-66l23 80q-20 5 -33.5 20.5t-13.5 38.5q0 28 19 44.5t47 16.5q22 0 39 -11t23 -31q3 -11 3 -22z" />
    <glyph glyph-name="quotedblleft" unicode="&#x201c;" horiz-adv-x="430" 
d="M55 567q0 14 6 28l34 107h66l-22 -78q20 -6 33.5 -21t13.5 -38q0 -29 -19 -45.5t-47 -16.5q-23 0 -40 11.5t-23 31.5q-3 12 -2 21zM245 567q1 8 2 14.5t4 13.5l34 107h67l-23 -78q20 -6 33.5 -21t13.5 -38q0 -29 -19 -45.5t-47 -16.5q-23 0 -40 11.5t-22 31.5
q-3 10 -3 21z" />
    <glyph glyph-name="quotedblright" unicode="&#x201d;" horiz-adv-x="434" 
d="M187 641q-1 -8 -2 -14t-4 -14l-34 -106h-66l22 78q-20 5 -33.5 20.5t-13.5 38.5q0 28 19 44.5t47 16.5q22 0 39 -11.5t24 -31.5q1 -5 2 -10.5t0 -10.5zM380 641q-1 -8 -2 -14t-4 -14l-34 -106h-67l23 78q-20 5 -33.5 20.5t-13.5 38.5q0 28 19 44.5t47 16.5q22 0 39 -11.5
t23 -31.5q3 -11 3 -21z" />
    <glyph glyph-name="quotedblbase" unicode="&#x201e;" horiz-adv-x="446" 
d="M194 44q0 -8 -2 -14t-4 -14q-9 -26 -17.5 -53t-17.5 -54h-66l23 79q-20 5 -33.5 20.5t-13.5 38.5q0 28 19 44.5t47 16.5q23 0 39.5 -11t23.5 -31q3 -12 2 -22zM383 44q-1 -14 -7 -28q-9 -26 -17.5 -53t-17.5 -54h-66l23 79q-20 5 -33 20.5t-13 38.5q0 28 18.5 44.5
t46.5 16.5q23 0 40 -11t23 -31q3 -11 3 -22z" />
    <glyph glyph-name="dagger" unicode="&#x2020;" horiz-adv-x="467" 
d="M35 466h149v239h99v-239h149v-92h-149v-457h-99v457h-149v92z" />
    <glyph glyph-name="daggerdbl" unicode="&#x2021;" horiz-adv-x="521" 
d="M54 228h155v177h-155v91h155v209h99v-209h158v-91h-158v-177h158v-90h-158v-221h-99v221h-155v90z" />
    <glyph glyph-name="bullet" unicode="&#x2022;" horiz-adv-x="415" 
d="M208 240q-26 0 -49.5 8.5t-41 24.5t-27.5 37.5t-10 47.5q0 27 10 49t27.5 37.5t41 24t49.5 8.5t49 -8.5t40.5 -24t27.5 -37.5t10 -49q0 -26 -10 -47.5t-27.5 -37.5t-40.5 -24.5t-49 -8.5z" />
    <glyph glyph-name="ellipsis" unicode="&#x2026;" horiz-adv-x="732" 
d="M130 -12q-28 0 -47.5 17t-19.5 45q0 29 19.5 46t47.5 17t47.5 -17t19.5 -46q0 -28 -19.5 -45t-47.5 -17zM364 -12q-28 0 -47.5 17t-19.5 45q0 29 19.5 46t47.5 17t47.5 -17t19.5 -46q0 -28 -19.5 -45t-47.5 -17zM601 -12q-27 0 -47 17t-20 45q0 29 20 46t47 17
q29 0 48.5 -17t19.5 -46q0 -28 -19.5 -45t-48.5 -17z" />
    <glyph glyph-name="perthousand" unicode="&#x2030;" horiz-adv-x="1268" 
d="M557 699h107l-344 -699h-107zM841 157q0 -58 -25.5 -96.5t-63.5 -57.5t-83 -19t-83 19t-63.5 57.5t-25.5 96.5q0 57 25.5 95.5t63.5 57.5t83 19.5t83 -19t63.5 -58t25.5 -95.5zM584 157q0 -32 12.5 -53t31.5 -31.5t40.5 -10.5t40.5 10.5t31.5 31.5t12.5 53
q0 31 -12.5 52.5t-31.5 31.5t-40.5 10.5t-40.5 -10.5t-31.5 -32t-12.5 -52zM381 540q0 -58 -25.5 -96t-64 -57.5t-83 -19.5t-83 19.5t-64 57.5t-25.5 96t25.5 96.5t64 57.5t83 19t83 -19t64 -57.5t25.5 -96.5zM124 540q0 -31 12.5 -52.5t31.5 -32t40.5 -10.5t40.5 11
t31.5 31.5t12.5 52.5t-12.5 53t-31.5 31.5t-40.5 10.5t-40.5 -10.5t-31.5 -31.5t-12.5 -53zM1233 157q0 -58 -25.5 -96.5t-63.5 -57.5t-83 -19t-83 19t-63.5 57.5t-25.5 96.5q0 57 25.5 95.5t63.5 57.5t83 19.5t83 -19t63.5 -58t25.5 -95.5zM976 157q0 -32 12.5 -53
t31.5 -31.5t40.5 -10.5t40.5 10.5t31.5 31.5t12.5 53q0 31 -12.5 52.5t-31.5 31.5t-40.5 10.5t-40.5 -10.5t-31.5 -32t-12.5 -52z" />
    <glyph glyph-name="guilsinglleft" unicode="&#x2039;" horiz-adv-x="320" 
d="M160 346l101 -206l-70 -26l-143 232l143 234l70 -26z" />
    <glyph glyph-name="guilsinglright" unicode="&#x203a;" horiz-adv-x="320" 
d="M59 554l70 26l143 -234l-143 -232l-70 26l101 206z" />
    <glyph glyph-name="Euro" unicode="&#x20ac;" horiz-adv-x="653" 
d="M44 455h82q16 60 48.5 107t77 79.5t99 49t113.5 16.5q33 0 65.5 -5.5t64.5 -17.5l-35 -92q-42 17 -91 17q-80 1 -138 -42t-82 -112h236l-23 -69h-232q-2 -17 -2.5 -33.5t1.5 -33.5h211l-23 -69h-173q22 -70 79.5 -113.5t143.5 -43.5q63 0 112 26l38 -95
q-35 -17 -74 -24.5t-79 -7.5q-66 0 -122 17t-99.5 50.5t-74 81.5t-43.5 109h-80v69h70q-1 17 -0.5 33.5t2.5 33.5h-72v69z" />
    <glyph glyph-name="trademark" unicode="&#x2122;" horiz-adv-x="760" 
d="M69 635v66h254v-66h-89v-213h-74v213h-91zM525 570l117 131h38v-279h-74v150l-79 -92h-5l-79 92v-150h-74v279h38z" />
    <glyph glyph-name="glyph223" horiz-adv-x="219" 
 />
    </font>
</defs>
</svg>
