<?xml version="1.0" encoding="UTF-8"?>
<svg width="24px" height="20px" viewBox="0 0 24 20" version="1.1" xmlns="http://www.w3.org/2000/svg" xmlns:xlink="http://www.w3.org/1999/xlink">
    <!-- Generator: Sketch 44.1 (41455) - http://www.bohemiancoding.com/sketch -->
    <title>Group</title>
    <desc>Created with Sketch.</desc>
    <defs></defs>
    <g id="Page-1" stroke="none" stroke-width="1" fill="none" fill-rule="evenodd">
        <g id="Twitter_Logo_White_On_Blue" transform="translate(-144.000000, -93.000000)">
            <g id="Group" transform="translate(144.000000, 93.000000)">
                <path d="M16.3296629,0.0798751944 C15.9714607,-0.0992259292 15.678427,0.0818976663 15.678427,0.482347105 L15.678427,16.4124595 L22.2152809,19.6809988 C22.9346067,20.0405494 23.5177528,19.788864 23.5177528,19.1187516 L23.5177528,3.77852688 C23.5177528,3.71448194 23.4813483,3.65560553 23.4240449,3.62684149 L16.3296629,0.0798751944" id="Fill-1" fill="#CCCDC9"></path>
                <path d="M7.83932584,12.4929089 L15.2968539,0.374257217 C15.5067416,0.0331336214 15.9714607,-0.0992259292 16.3296629,0.0798751944 L23.4321348,3.63088643 C23.4782022,3.6540325 23.4946067,3.71156059 23.4676404,3.75538081 L15.678427,16.4124595 L7.83932584,12.4929089" id="Fill-2" fill="#9EA1A0"></path>
                <path d="M1.08539326,0.296953846 C0.488314607,-0.00169783927 0.286067416,0.219201037 0.635955056,0.787740363 L7.83932584,12.4929089 L15.678427,16.4124595 L7.85617978,3.70122351 C7.84516854,3.68324598 7.82921348,3.66886396 7.81033708,3.65942576 L1.08539326,0.296953846" id="Fill-3" fill="#797B79"></path>
                <path d="M7.83932584,19.1187516 C7.83932584,19.7861673 7.35078652,20.0879651 6.75393258,19.7895381 L0.651235955,16.7380774 C0.293033708,16.5589763 0,16.084819 0,15.6843696 L0,0.725043734 C0,0.191111149 0.390786517,-0.0504618842 0.868314607,0.18841452 L7.79707865,3.65268418 C7.82292135,3.66571789 7.83932584,3.69201003 7.83932584,3.72077407 L7.83932584,19.1187516" id="Fill-4" fill="#FFFFFF"></path>
            </g>
        </g>
    </g>
</svg>