<?xml version="1.0" encoding="UTF-8"?>
<svg width="25px" height="20px" viewBox="0 0 25 20" version="1.1" xmlns="http://www.w3.org/2000/svg" xmlns:xlink="http://www.w3.org/1999/xlink">
    <!-- Generator: Sketch 44.1 (41455) - http://www.bohemiancoding.com/sketch -->
    <title>Shape</title>
    <desc>Created with Sketch.</desc>
    <defs></defs>
    <g id="Page-1" stroke="none" stroke-width="1" fill="none" fill-rule="evenodd">
        <g id="Twitter_Logo_White_On_Blue" transform="translate(-73.000000, -93.000000)" fill-rule="nonzero" fill="#FFFFFF">
            <path d="M95.1089241,98.6315622 C95.1089241,98.4129934 95.1089241,98.1954092 95.094156,97.9788094 C96.0824723,97.2639426 96.9356036,96.3788064 97.6136045,95.3648446 C96.6919521,95.7732353 95.7142507,96.0410578 94.7131374,96.1593718 C95.7673321,95.5282613 96.5563257,94.5356339 96.9332845,93.3662199 C95.9420036,93.9544411 94.8575169,94.36899 93.7266241,94.5919775 C92.1612803,92.9275014 89.6739639,92.5201151 87.6594191,93.5982572 C85.6448742,94.6763994 84.6041085,96.9719414 85.1207234,99.1976751 C81.0603606,98.9941202 77.2773283,97.0763007 74.7131069,93.9215029 C73.3727708,96.2289246 74.0573885,99.1807995 76.276563,100.662677 C75.4729202,100.638858 74.6867992,100.422067 73.9845442,100.0306 C73.9845442,100.051275 73.9845442,100.072935 73.9845442,100.094595 C73.985202,102.498451 75.6796846,104.568891 78.0359435,105.044883 C77.2924842,105.24764 76.5124407,105.277279 75.7557392,105.131523 C76.4173016,107.188652 78.3131661,108.59789 80.4736749,108.638469 C78.6854818,110.043839 76.4764841,110.806758 74.2021284,110.804466 C73.8003395,110.803695 73.3989413,110.779368 73,110.73161 C75.3093822,112.213621 77.9964765,112.999721 80.7404863,112.996062 C90.0286762,113 95.1089241,105.304803 95.1089241,98.6315622 Z" id="Shape"></path>
        </g>
    </g>
</svg>