<?xml version="1.0" encoding="UTF-8"?>
<svg width="21px" height="20px" viewBox="0 0 21 20" version="1.1" xmlns="http://www.w3.org/2000/svg" xmlns:xlink="http://www.w3.org/1999/xlink">
    <!-- Generator: Sketch 44.1 (41455) - http://www.bohemiancoding.com/sketch -->
    <title>Fill 50</title>
    <desc>Created with Sketch.</desc>
    <defs></defs>
    <g id="Page-1" stroke="none" stroke-width="1" fill="none" fill-rule="evenodd">
        <g id="Twitter_Logo_White_On_Blue" transform="translate(-105.000000, -93.000000)" fill="#FFFFFF">
            <path d="M115.252128,93 C109.59105,93 105,97.5904205 105,103.253387 C105,107.783382 107.937542,111.626042 112.011831,112.98183 C112.524815,113.076245 112.711755,112.759642 112.711755,112.487729 C112.711755,112.24414 112.702943,111.599606 112.697908,110.744213 C109.845968,111.36357 109.244235,109.369541 109.244235,109.369541 C108.777829,108.184957 108.105599,107.869614 108.105599,107.869614 C107.174675,107.233891 108.176095,107.24648 108.176095,107.24648 C109.20521,107.318864 109.746519,108.30329 109.746519,108.30329 C110.661078,109.869937 112.146529,109.417378 112.730638,109.154906 C112.823794,108.492748 113.088783,108.040818 113.381467,107.784641 C111.104825,107.525946 108.711109,106.646005 108.711109,102.717114 C108.711109,101.59799 109.110796,100.682172 109.76666,99.9658829 C109.660916,99.7065584 109.309066,98.6635957 109.867369,97.2524175 C109.867369,97.2524175 110.727797,96.9767279 112.686578,98.3035628 C113.504206,98.0757097 114.381629,97.9624126 115.253387,97.9580066 C116.124516,97.9624126 117.001309,98.0757097 117.820195,98.3035628 C119.777717,96.9767279 120.636887,97.2524175 120.636887,97.2524175 C121.196449,98.6635957 120.844598,99.7065584 120.739484,99.9658829 C121.396607,100.682172 121.793147,101.59799 121.793147,102.717114 C121.793147,106.656076 119.395654,107.522799 117.112089,107.776458 C117.479675,108.093061 117.807607,108.718713 117.807607,109.674814 C117.807607,111.045709 117.795018,112.151615 117.795018,112.487729 C117.795018,112.76216 117.98007,113.08128 118.499978,112.981201 C122.57112,111.622265 125.506144,107.782123 125.506144,103.253387 C125.506144,97.5904205 120.915094,93 115.252128,93" id="Fill-50"></path>
        </g>
    </g>
</svg>