<?xml version="1.0" encoding="UTF-8"?>
<svg width="62px" height="80px" viewBox="0 0 62 80" version="1.1" xmlns="http://www.w3.org/2000/svg" xmlns:xlink="http://www.w3.org/1999/xlink">
    <!-- Generator: Sketch 44.1 (41455) - http://www.bohemiancoding.com/sketch -->
    <title>design</title>
    <desc>Created with Sketch.</desc>
    <defs>
        <path d="M39.36,15.92 C39.52,15.92 39.68,15.92 39.84,15.84 C40.88,15.44 41.6,14.64 41.92,13.68 C42.64,11.28 40.8,8.32 40.56,8 C40.24,7.44 39.44,7.28 38.88,7.68 C38.32,8 38.16,8.8 38.56,9.36 C39.04,10.08 39.92,12 39.6,13.04 C39.52,13.28 39.36,13.52 38.88,13.68 C38.24,13.92 38,14.64 38.24,15.28 C38.4,15.68 38.88,15.92 39.36,15.92 Z" id="path-1"></path>
    </defs>
    <g id="Page-1" stroke="none" stroke-width="1" fill="none" fill-rule="evenodd">
        <g id="design" transform="translate(1.000000, 0.000000)">
            <rect id="Rectangle-2" fill="#FFCE5B" x="19.4285714" y="13.7142857" width="6.85714286" height="25.1428571"></rect>
            <path d="M22.6514286,50.0571429 C23.9629932,50.0571429 25.0122449,49.2702041 25.4494331,48.0460771 L28.16,40.5264399 L28.16,10.6227664 C28.16,7.56244898 25.711746,5.11419501 22.6514286,5.11419501 C19.5911111,5.11419501 17.1428571,7.56244898 17.1428571,10.6227664 L17.1428571,40.5264399 L19.853424,48.0460771 C20.2906122,49.2702041 21.4273016,50.0571429 22.6514286,50.0571429 Z M19.7659864,14.0328345 L21.3398639,14.0328345 L21.3398639,37.2912472 L19.7659864,38.0781859 L19.7659864,14.0328345 Z M25.5368707,14.0328345 L25.5368707,38.1656236 L23.9629932,37.3786848 L23.9629932,14.0328345 L25.5368707,14.0328345 Z M23.7881179,45.1606349 C23.525805,44.898322 23.0886168,44.7234467 22.7388662,44.7234467 C22.3891156,44.7234467 21.9519274,44.898322 21.6896145,45.1606349 L20.115737,40.9636281 L22.7388662,39.5646259 L25.3619955,40.9636281 L23.7881179,45.1606349 Z M22.6514286,7.73732426 C24.2253061,7.73732426 25.5368707,9.04888889 25.5368707,10.6227664 L25.5368707,11.4097052 L19.7659864,11.4097052 L19.7659864,10.6227664 C19.7659864,9.04888889 21.077551,7.73732426 22.6514286,7.73732426 Z" id="Shape" fill="#0065C3" fill-rule="nonzero"></path>
            <rect id="Rectangle" fill="#FFCE5B" x="34.2857143" y="18.2857143" width="6.85714286" height="5.71428571"></rect>
            <path d="M33.2,18.32 C33.2,18.4 33.2,18.48 33.2,18.56 L33.2,23.04 C33.2,23.52 33.36,24 33.68,24.4 C33.04,27.28 31.6,37.2 35.84,49.68 C36.16,50.48 36.96,51.04 37.92,51.12 C37.92,51.12 37.92,51.12 38,51.12 C39.04,51.12 39.84,50.56 40.16,49.76 C44.8,37.68 43.04,27.36 42.32,24.4 C42.64,24.08 42.8,23.6 42.8,23.12 L42.8,18.64 C42.8,18.48 42.8,18.32 42.72,18.16 C44.4,16.88 46.24,14.24 45.12,10.32 C43.84,5.2 39.76,1.28 36.88,0.8 C36.16,0.64 35.44,1.04 35.12,1.6 C34.72,2.24 34.8,2.96 35.28,3.52 C35.6,3.92 35.92,4.72 35.76,5.44 C35.68,6.08 35.28,6.64 34.72,7.04 L34.64,7.2 C32,9.28 30.64,11.76 30.8,14.24 C30.96,15.84 31.76,17.28 33.2,18.32 Z M40.48,18.96 L40.48,22.64 L35.52,22.64 L35.52,18.96 L40.48,18.96 L40.48,18.96 Z M38,48.72 C34.16,37.28 35.44,27.92 36,25.12 L40.08,25.12 C40.64,27.92 42.16,37.6 38,48.72 Z M36.08,9.12 C37.28,8.32 38,7.2 38.16,5.92 C38.24,5.28 38.24,4.56 38.08,3.92 C39.92,5.12 42.08,7.76 42.96,10.96 C44,14.64 41.44,16.32 40.8,16.64 L35.2,16.64 C35.12,16.64 35.04,16.64 34.96,16.64 C33.92,16 33.28,15.12 33.2,14 C33.04,12.4 34.08,10.64 36.08,9.12 Z" id="Shape" stroke="#0065C3" stroke-width="0.5" fill="#0065C3" fill-rule="nonzero"></path>
            <g id="Shape" fill-rule="nonzero">
                <use fill="#0065C3" fill-rule="evenodd" xlink:href="#path-1"></use>
                <path stroke="#FFFFFF" stroke-width="0.5" d="M39.36,15.67 C39.4696649,15.67 39.5160258,15.6685512 39.5689913,15.6619305 C39.6303138,15.6542652 39.6809167,15.6400332 39.7502552,15.6066636 C40.6912044,15.2447601 41.3763074,14.5205083 41.6805434,13.608163 C41.9802083,12.6092801 41.8359732,11.4169367 41.3655628,10.1468286 C41.055841,9.31057967 40.6018972,8.4725296 40.3429392,8.12403473 C40.0961826,7.69221057 39.4642538,7.56990178 39.0040347,7.89706079 C38.5722106,8.14381745 38.4499018,8.77574623 38.7680126,9.22132495 C39.5145558,10.3411398 40.1350929,12.1510398 39.8371708,13.1190569 C39.7122871,13.4937082 39.4537082,13.7522871 38.9677809,13.9140823 C38.4835303,14.0956763 38.2720026,14.6533401 38.4721192,15.1871523 C38.5841747,15.4672912 38.9527361,15.67 39.36,15.67 Z"></path>
            </g>
            <path d="M55.84,19.6 L47.52,19.6 C46.88,19.6 46.32,20.16 46.32,20.8 C46.32,21.44 46.88,22 47.52,22 L55.84,22 C57.12,22 58.16,23.04 58.16,24.32 L58.16,25.84 L47.44,25.84 C46.8,25.84 46.24,26.4 46.24,27.04 C46.24,27.68 46.8,28.24 47.44,28.24 L58.08,28.24 L58.08,55.84 L2.64,55.84 L2.64,28.24 L13.12,28.24 C13.76,28.24 14.32,27.68 14.32,27.04 C14.32,26.4 13.76,25.84 13.12,25.84 L2.64,25.84 L2.64,24.32 C2.64,23.04 3.68,22 4.96,22 L13.2,22 C13.84,22 14.4,21.44 14.4,20.8 C14.4,20.16 13.84,19.6 13.2,19.6 L4.96,19.6 C2.4,19.6 0.24,21.68 0.24,24.32 L0.24,59.36 C0.24,61.92 2.32,64.08 4.96,64.08 L22.32,64.08 L22.32,66.96 C22.32,70.48 20.48,73.68 17.44,75.44 C16.64,75.92 16.24,76.88 16.48,77.76 C16.72,78.64 17.6,79.28 18.48,79.28 L42.4,79.28 C43.28,79.28 44.16,78.72 44.4,77.76 C44.64,76.88 44.24,75.92 43.44,75.44 C40.32,73.68 38.4,70.4 38.4,66.96 L38.4,64 L55.84,64 C58.4,64 60.56,61.92 60.56,59.28 L60.56,24.32 C60.56,21.76 58.48,19.6 55.84,19.6 Z M41.04,76.72 L19.92,76.72 C22.96,74.4 24.8,70.72 24.8,66.8 L24.8,64 L36.08,64 L36.08,66.8 C36.08,70.72 37.92,74.4 41.04,76.72 Z M55.84,61.6 L4.96,61.6 C3.68,61.6 2.64,60.56 2.64,59.28 L2.64,58.16 L58.16,58.16 L58.16,59.28 C58.16,60.56 57.12,61.6 55.84,61.6 Z" id="Shape" stroke="#0065C3" stroke-width="0.5" fill="#0065C3" fill-rule="nonzero"></path>
        </g>
    </g>
</svg>