<?xml version="1.0" encoding="UTF-8"?>
<svg width="48px" height="52px" viewBox="0 0 48 52" version="1.1" xmlns="http://www.w3.org/2000/svg" xmlns:xlink="http://www.w3.org/1999/xlink">
    <!-- Generator: Sketch 41.2 (35397) - http://www.bohemiancoding.com/sketch -->
    <title>Group Copy 2</title>
    <desc>Created with Sketch.</desc>
    <defs></defs>
    <g id="Page-1" stroke="none" stroke-width="1" fill="none" fill-rule="evenodd">
        <g id="Cylinder-landing" transform="translate(-153.000000, -912.000000)" fill="#2A98FE">
            <g id="services" transform="translate(153.000000, 778.000000)">
                <g id="digital-product" transform="translate(0.000000, 134.000000)">
                    <g id="Group-Copy-2">
                        <path d="M39.4501883,0.061420147 L8.50335778,0.061420147 C3.87789159,0.061420147 0.0561648467,4.21931042 0.0561648467,9.30703248 L0.0561648467,32.2167473 C0.0561648467,37.2830072 3.85832004,41.4623597 8.50335778,41.4623597 L39.4501883,41.4623597 C44.0756545,41.4623597 47.8973812,37.3044694 47.8973812,32.2167473 L47.8973812,9.30703248 C47.8342848,4.19409813 44.0552117,0.061420147 39.4501883,0.061420147 Z M39.4501883,2.09204542 C43.0452325,2.09204542 46.005941,5.32978508 46.0552597,9.32086091 L46.0551743,32.2167473 C46.0551743,36.1770004 43.063584,39.4317344 39.4501883,39.4317344 L8.50335778,39.4317344 C4.87459356,39.4317344 1.89837182,36.1602531 1.89837182,32.2167473 L1.89837182,9.30703248 C1.89837182,5.34677945 4.88996209,2.09204542 8.50335778,2.09204542 L39.4501883,2.09204542 Z" id="Shape"></path>
                        <polygon id="Shape" points="1.5389168 32.433598 46.0214754 32.433598 46.0214754 30.4029728 1.5389168 30.4029728"></polygon>
                        <path d="M27.7117353,44.5910267 L20.2418107,44.5910267 C19.6255967,44.5910267 19.1409797,44.0610645 19.1409797,43.3952141 L19.1409797,42.535332 C19.1409797,41.8694816 19.6255967,41.3395194 20.2418107,41.3395194 L27.7117353,41.3395194 C28.3279493,41.3395194 28.8125663,41.8694816 28.8125663,42.535332 L28.8125663,43.3952141 C28.8125663,44.0610645 28.3279493,44.5910267 27.7117353,44.5910267 Z M27.7117353,46.621652 C29.3421152,46.621652 30.6547733,45.1861695 30.6547733,43.3952141 L30.6547733,42.535332 C30.6547733,40.7443766 29.3421152,39.3088941 27.7117353,39.3088941 L20.2418107,39.3088941 C18.6114309,39.3088941 17.2987728,40.7443766 17.2987728,42.535332 L17.2987728,43.3952141 C17.2987728,45.1861695 18.6114309,46.621652 20.2418107,46.621652 L27.7117353,46.621652 Z" id="Shape"></path>
                        <path d="M41.3597931,49.3203781 L6.53758815,49.3203781 C5.84207127,49.3203781 5.26826262,48.7038873 5.26826262,47.940305 C5.26826262,47.1876284 5.83191194,46.5602319 6.53758815,46.5602319 L41.3597931,46.5602319 C42.05531,46.5602319 42.6291186,47.1767226 42.6291186,47.940305 C42.6291186,48.7289957 42.0883368,49.3203781 41.3597931,49.3203781 Z M41.3597931,51.3510033 C43.1025026,51.3510033 44.4713256,49.8541007 44.4713256,47.940305 C44.4713256,46.0434252 43.0623146,44.5296066 41.3597931,44.5296066 L6.53758815,44.5296066 C4.81043969,44.5296066 3.42605565,46.0705606 3.42605565,47.940305 C3.42605565,49.8371847 4.83506667,51.3510033 6.53758815,51.3510033 L41.3597931,51.3510033 Z" id="Shape"></path>
                        <polygon id="Shape" points="31.727429 22.2799635 24.9876474 29.588961 26.2796247 31.0364845 33.0194063 23.727487"></polygon>
                        <polygon id="Shape" points="39.7000957 19.396202 33.016479 26.7051995 34.3139392 28.1467522 40.9975559 20.8377547"></polygon>
                        <polygon id="Path-2" fill-opacity="0.3" points="1.00050888 31.2695257 1.78359934 35.822443 5.34255969 39.8139318 19.3484515 40.561921 41.937141 40.4319575 46.1950639 35.5111593 47.0293321 31.2684776"></polygon>
                    </g>
                </g>
            </g>
        </g>
    </g>
</svg>