<svg width="48" height="52" viewBox="0 0 48 52" xmlns="http://www.w3.org/2000/svg"><title>Group Copy 2</title><g fill="#2A98FE" fill-rule="evenodd"><path d="M39.45.06H8.503C3.878.06.056 4.22.056 9.308v22.91c0 5.066 3.802 9.245 8.447 9.245H39.45c4.626 0 8.447-4.158 8.447-9.245V9.307C47.834 4.194 44.055.06 39.45.06zm0 2.032c3.595 0 6.556 3.238 6.605 7.23v22.895c0 3.96-2.99 7.215-6.605 7.215H8.503c-3.628 0-6.605-3.272-6.605-7.215V9.307c0-3.96 2.992-7.215 6.605-7.215H39.45z"/><path d="M1.54 32.434h44.48v-2.03H1.54M27.712 44.59h-7.47c-.616 0-1.1-.53-1.1-1.195v-.86c0-.666.484-1.195 1.1-1.195h7.47c.616 0 1.1.53 1.1 1.195v.86c0 .666-.484 1.196-1.1 1.196zm0 2.032c1.63 0 2.943-1.436 2.943-3.227v-.86c0-1.79-1.313-3.226-2.943-3.226h-7.47c-1.63 0-2.943 1.434-2.943 3.225v.86c0 1.79 1.31 3.227 2.942 3.227h7.47z"/><path d="M41.36 49.32H6.538c-.696 0-1.27-.616-1.27-1.38 0-.752.564-1.38 1.27-1.38H41.36c.695 0 1.27.617 1.27 1.38 0 .79-.542 1.38-1.27 1.38zm0 2.03c1.743 0 3.11-1.496 3.11-3.41 0-1.897-1.408-3.41-3.11-3.41H6.538c-1.728 0-3.112 1.54-3.112 3.41 0 1.897 1.41 3.41 3.112 3.41H41.36zM31.727 22.28l-6.74 7.31 1.293 1.446 6.74-7.31M39.7 19.396l-6.684 7.31 1.298 1.44 6.684-7.308"/><path fill-opacity=".3" d="M1 31.27l.784 4.552 3.56 3.992 14.004.748 22.59-.13 4.257-4.92.834-4.244"/></g></svg>