<?xml version="1.0" encoding="UTF-8"?>
<svg width="425px" height="68px" viewBox="0 0 425 68" version="1.1" xmlns="http://www.w3.org/2000/svg" xmlns:xlink="http://www.w3.org/1999/xlink">
    <!-- Generator: Sketch 41.2 (35397) - http://www.bohemiancoding.com/sketch -->
    <title>logo</title>
    <desc>Created with Sketch.</desc>
    <defs></defs>
    <g id="Page-1" stroke="none" stroke-width="1" fill="none" fill-rule="evenodd">
        <g id="Cylinder-logos-uppercase" transform="translate(-182.000000, -104.000000)">
            <g id="white">
                <g id="logo" transform="translate(182.000000, 104.000000)">
                    <g id="cylinder">
                        <rect id="Rectangle-2" fill="#43505C" x="0" y="10.4081633" width="57.6145535" height="46.6657445"></rect>
                        <ellipse id="Oval-2-Copy" fill="#2A98FF" cx="28.8072768" cy="10.7488513" rx="28.8072768" ry="10.7488513"></ellipse>
                        <ellipse id="Oval-2" fill="#43505C" cx="28.8072768" cy="57.2386472" rx="28.8072768" ry="10.7488513"></ellipse>
                    </g>
                    <g id="letters" transform="translate(87.000000, 11.000000)" fill="#2A98FF">
                        <path d="M0.99,23.5986014 C0.99,38.3888112 11.8361538,47 24.3256643,47 C33.6599301,47 43.1256643,42.0699301 45.4263636,30.8293706 L37.9983916,30.8293706 C35.9606294,36.9426573 30.6361538,40.0321678 24.3256643,40.0321678 C14.9256643,40.0321678 8.68090909,32.7356643 8.68090909,23.5986014 C8.68090909,13.8041958 14.9256643,6.96783217 24.3256643,6.96783217 C30.3732168,7.03356643 35.5004895,9.66293706 37.8011888,15.3818182 L45.1634266,15.3818182 C42.7312587,4.9958042 33.396993,-1.42108547e-14 24.3913986,-1.42108547e-14 C11.8361538,-1.42108547e-14 0.99,8.74265734 0.99,23.5986014 Z M68.6002205,21.3636364 L63.0785422,10.7804196 L56.8995212,0.525874126 L48.682738,0.525874126 L48.682738,1.64335664 L64.9191016,27.8713287 L64.9191016,46.5398601 L72.5442765,46.5398601 L72.5442765,27.8713287 L88.7149058,1.64335664 L88.7149058,0.525874126 L80.5638569,0.525874126 L74.5820387,10.4517483 L68.8631576,21.3636364 L68.6002205,21.3636364 Z M104.263588,0.525874126 L96.5726788,0.525874126 L96.5726788,46.5398601 L124.049602,46.5398601 L124.049602,39.6377622 L104.263588,39.6377622 L104.263588,0.525874126 Z M196.296616,46.6055944 L198.925987,46.6055944 L198.925987,0.525874126 L191.300812,0.525874126 L191.300812,17.2881119 L191.826686,31.3552448 L163.889623,0.394405594 L161.128784,0.394405594 L161.128784,46.5398601 L168.688225,46.5398601 L168.688225,29.8433566 L168.162351,15.2503497 L196.296616,46.6055944 Z M211.845298,0.591608392 L211.845298,46.5398601 L228.476068,46.5398601 C242.937606,46.5398601 250.957187,35.5622378 250.957187,23.4671329 C250.957187,11.372028 242.806138,0.591608392 228.476068,0.591608392 L211.845298,0.591608392 Z M219.470473,39.572028 L219.470473,7.49370629 L228.410333,7.49370629 C237.810333,7.49370629 243.332012,14.8559441 243.332012,23.5328671 C243.332012,32.2097902 237.876068,39.572028 228.344599,39.572028 L219.470473,39.572028 Z M289.18419,0.525874126 L261.181393,0.525874126 L261.181393,46.5398601 L289.578596,46.5398601 L289.578596,39.572028 L268.872302,39.572028 L268.872302,26.1622378 L288.066708,26.1622378 L288.066708,19.3916084 L268.872302,19.3916084 L268.872302,7.23076923 L289.18419,7.23076923 L289.18419,0.525874126 Z M325.833572,29.3174825 C331.683921,27.213986 335.496509,21.8895105 335.496509,15.5132867 C335.496509,7.2965035 329.514691,0.525874126 319.523082,0.525874126 L300.525879,0.525874126 L300.525879,46.5398601 L308.216788,46.5398601 L308.216788,30.5006993 L318.339865,30.5006993 L329.777628,46.5398601 L337.534271,46.5398601 L337.534271,45.4223776 L325.833572,29.3174825 Z M308.08532,24.1902098 L308.08532,7.16503497 L319.457348,7.16503497 C324.518886,7.16503497 328.068537,10.7804196 328.068537,15.579021 C328.068537,20.5748252 324.453152,24.1902098 319.457348,24.1902098 L308.08532,24.1902098 Z" id="CYLINDER"></path>
                        <rect id="Rectangle-3" x="137" y="0" width="8" height="47"></rect>
                    </g>
                </g>
            </g>
        </g>
    </g>
</svg>