<svg width="425" height="68" viewBox="0 0 425 68" xmlns="http://www.w3.org/2000/svg"><title>logo</title><g fill="none" fill-rule="evenodd"><g><path fill="#43505C" d="M0 10.408h57.615v46.666H0z"/><ellipse fill="#2A98FF" cx="28.807" cy="10.749" rx="28.807" ry="10.749"/><ellipse fill="#43505C" cx="28.807" cy="57.239" rx="28.807" ry="10.749"/></g><g fill="#2A98FF"><path d="M87.99 34.6c0 14.79 10.846 23.4 23.336 23.4 9.334 0 18.8-4.93 21.1-16.17h-7.428c-2.037 6.113-7.362 9.202-13.672 9.202-9.4 0-15.645-7.296-15.645-16.433 0-9.796 6.246-16.632 15.646-16.632 6.047.066 11.174 2.695 13.475 8.414h7.363C129.73 15.996 120.397 11 111.39 11c-12.554 0-23.4 8.743-23.4 23.6zm67.61-2.236l-5.52-10.584-6.18-10.254h-8.217v1.117L151.92 38.87v18.67h7.624V38.87l16.17-26.227v-1.117h-8.15l-5.982 9.926-5.72 10.912h-.262zm35.664-20.838h-7.69V57.54h27.476v-6.902h-19.786V11.526zm92.033 46.08h2.63v-46.08H278.3v16.762l.527 14.067-27.937-30.96h-2.76V57.54h7.558V40.843l-.526-14.593 28.135 31.356zm15.548-46.014V57.54h16.63c14.463 0 22.482-10.978 22.482-23.073s-8.15-22.875-22.48-22.875h-16.632zm7.625 38.98V18.494h8.94c9.4 0 14.922 7.362 14.922 16.04 0 8.676-5.456 16.038-14.987 16.038h-8.875zm69.714-39.046H348.18V57.54h28.4v-6.968H355.87v-13.41h19.195v-6.77h-19.195v-12.16h20.312v-6.706zm36.65 28.79c5.85-2.102 9.663-7.426 9.663-13.803 0-8.216-5.982-14.987-15.974-14.987h-18.997V57.54h7.69V41.5h10.124l11.438 16.04h7.756v-1.118l-11.7-16.105zm-17.75-5.126V18.165h11.373c5.062 0 8.612 3.615 8.612 8.414 0 4.995-3.617 8.61-8.613 8.61h-11.372zM224 11h8v47h-8z"/></g></g></svg>