<?xml version="1.0" encoding="UTF-8"?>
<svg width="56px" height="52px" viewBox="0 0 56 52" version="1.1" xmlns="http://www.w3.org/2000/svg" xmlns:xlink="http://www.w3.org/1999/xlink">
    <!-- Generator: Sketch 41.2 (35397) - http://www.bohemiancoding.com/sketch -->
    <title>Group</title>
    <desc>Created with Sketch.</desc>
    <defs></defs>
    <g id="Page-1" stroke="none" stroke-width="1" fill="none" fill-rule="evenodd">
        <g id="Cylinder-landing" transform="translate(-510.000000, -912.000000)" fill="#69C61B">
            <g id="services" transform="translate(153.000000, 778.000000)">
                <g id="expert-developer" transform="translate(356.000000, 134.000000)">
                    <g id="Group" transform="translate(1.000000, 0.000000)">
                        <circle id="Oval" opacity="0.198539402" cx="10.5" cy="41.5" r="8.5"></circle>
                        <path d="M9.62297838,49.2913014 C5.9689786,48.825314 3.02467286,45.9201173 2.61357084,42.3521722 C1.9372772,37.0366862 6.44167621,32.5858369 11.7642557,33.2586986 C15.3607575,33.724005 18.3118318,36.6358804 18.775685,40.2143439 C19.4499568,45.5133138 14.9455578,49.9641631 9.62297838,49.2913014 Z M12.0689999,30.9144722 C5.19943929,30.0460415 -0.622169112,35.7984408 0.24767611,42.6343511 C0.782691781,47.2784594 4.58691916,51.0321554 9.32039963,51.6358059 C16.1877948,52.5039585 22.0094032,46.7515592 21.1395579,39.9156489 C20.5368969,35.2663068 16.7387682,31.5186285 12.0689999,30.9144722 Z" id="Shape"></path>
                        <path d="M33.8199099,20.6925675 C31.072157,20.3456502 28.8155147,18.1073248 28.4670613,15.3916995 C27.9648198,11.3564954 31.3769786,7.95568266 35.405622,8.49834163 C38.2134718,8.84654117 40.4087244,11.0239752 40.758137,13.7965865 C41.2607121,17.8344137 37.8485534,21.2352264 33.8199099,20.6925675 Z M35.7137435,6.15458069 C30.1389443,5.40358698 25.4095099,10.1172952 26.1025946,15.6857132 C26.5887406,19.4744934 29.6938004,22.5543498 33.5091438,23.0359975 C39.0865876,23.7873221 43.816022,19.0736139 43.1229373,13.5051959 C42.6380841,9.65784295 39.5907835,6.63527701 35.7137435,6.15458069 Z" id="Shape"></path>
                        <path d="M47.1281528,46.6368227 C44.9039151,46.252953 43.0876939,44.4514738 42.6972736,42.2247786 C42.1085727,38.5256826 45.2542405,35.3893813 49.0250386,35.9722682 C51.2884941,36.3066696 53.1093034,38.1268091 53.4518584,40.3596133 C54.0446187,44.0834083 50.898951,47.2197096 47.1281528,46.6368227 Z M49.3840305,33.6356207 C44.0226092,32.8068293 39.5030225,37.3129586 40.3464952,42.6115921 C40.9123061,45.8394353 43.5045955,48.4106834 46.7405297,48.9688866 C52.1305822,49.8022616 56.650169,45.2961323 55.8066963,39.9974988 C55.3086159,36.7508438 52.6792142,34.1224092 49.3840305,33.6356207 Z" id="Shape"></path>
                        <polygon id="Shape" points="18.0268091 34.4007109 28.6906388 18.682529 26.7136165 17.3629255 16.0497867 33.0811073"></polygon>
                        <polygon id="Shape" points="46.1891441 34.2119439 40.0529739 20.3255802 37.8704304 21.2744198 44.0066006 35.1607834"></polygon>
                        <path d="M20.716771,13.1076287 C20.7057934,13.0399883 20.6865308,12.8915506 20.6664007,12.6742554 C20.5188277,11.081271 20.6284118,9.2777864 21.179345,7.60577799 C22.270481,4.29432606 24.8056644,2.36363636 29.4893617,2.36363636 L29.4893617,0 C23.7475271,0 20.3178169,2.61192394 18.9142721,6.87149474 C18.2467054,8.89747018 18.1186854,11.0043641 18.2934188,12.8905326 C18.3186756,13.1631682 18.3447997,13.3644807 18.3640801,13.4832804 L20.716771,13.1076287 Z" id="Shape"></path>
                    </g>
                </g>
            </g>
        </g>
    </g>
</svg>