<svg width="56" height="52" viewBox="0 0 56 52" xmlns="http://www.w3.org/2000/svg"><title>Group</title><g fill="#69C61B" fill-rule="evenodd"><circle opacity=".199" cx="10.5" cy="41.5" r="8.5"/><path d="M9.623 49.29c-3.654-.465-6.598-3.37-7.01-6.938-.676-5.315 3.83-9.766 9.15-9.093 3.598.464 6.55 3.376 7.013 6.954.674 5.3-3.83 9.75-9.153 9.077zm2.446-18.376C5.2 30.046-.623 35.798.247 42.634c.535 4.644 4.34 8.398 9.072 9.002 6.868.868 12.69-4.884 11.82-11.72-.603-4.65-4.4-8.397-9.07-9.002zM33.82 20.693c-2.748-.347-5.004-2.586-5.353-5.3-.502-4.037 2.91-7.437 6.94-6.895 2.806.35 5.002 2.526 5.35 5.3.504 4.036-2.908 7.437-6.937 6.895zm1.894-14.538c-5.575-.75-10.304 3.962-9.61 9.53.485 3.79 3.59 6.87 7.405 7.35 5.577.752 10.306-3.96 9.613-9.53-.485-3.847-3.532-6.87-7.41-7.35zM47.128 46.637c-2.224-.384-4.04-2.186-4.43-4.412-.59-3.7 2.556-6.836 6.327-6.253 2.263.335 4.084 2.155 4.427 4.388.593 3.723-2.553 6.86-6.324 6.277zm2.256-13c-5.36-.83-9.88 3.676-9.038 8.975.566 3.227 3.16 5.8 6.395 6.357 5.39.832 9.91-3.674 9.067-8.973-.498-3.246-3.128-5.875-6.423-6.36z"/><path d="M18.027 34.4L28.69 18.684l-1.976-1.32L16.05 33.08M46.19 34.212l-6.137-13.886-2.183.948 6.137 13.887M20.717 13.108c-.01-.068-.03-.216-.05-.434-.148-1.593-.04-3.396.512-5.068 1.09-3.312 3.626-5.242 8.31-5.242V0c-5.742 0-9.172 2.612-10.576 6.87-.667 2.027-.795 4.134-.62 6.02.025.273.05.474.07.593l2.353-.375z"/></g></svg>