<?xml version="1.0" encoding="UTF-8"?>
<svg width="52px" height="52px" viewBox="0 0 52 52" version="1.1" xmlns="http://www.w3.org/2000/svg" xmlns:xlink="http://www.w3.org/1999/xlink">
    <!-- Generator: Sketch 41.2 (35397) - http://www.bohemiancoding.com/sketch -->
    <title>Group</title>
    <desc>Created with Sketch.</desc>
    <defs></defs>
    <g id="Page-1" stroke="none" stroke-width="1" fill="none" fill-rule="evenodd">
        <g id="Cylinder-landing" transform="translate(-865.000000, -912.000000)" fill="#FF2A76">
            <g id="services" transform="translate(153.000000, 778.000000)">
                <g id="improve-your" transform="translate(712.000000, 134.000000)">
                    <g id="Group">
                        <path d="M30.5381224,31.8495475 C24.1768355,37.4474799 14.4981645,37.4474799 8.13651355,31.849227 C0.447429696,25.0767226 0.447429696,13.1107774 8.13687758,6.33795249 C14.4956626,0.793109726 24.1793374,0.793109726 30.542175,6.34150416 C38.2275703,13.1107774 38.2275703,25.0767226 30.5381224,31.8495475 Z M6.70884171,4.70849584 C-1.96409636,12.3475559 -1.96409636,25.8399441 6.70478909,33.4754525 C13.8851688,39.7941868 24.7898312,39.7941868 31.9698469,33.475773 C40.6390964,25.8399441 40.6390964,12.3475559 31.9702109,4.71204751 C24.7873293,-1.55144306 13.8876707,-1.55144306 6.70884171,4.70849584 Z" id="Shape"></path>
                        <path d="M14.4062675,24.7353762 C11.8279196,23.6164705 10.1291667,21.1275999 10.1291667,18.3083333 C10.1291667,14.4649751 13.2733085,11.3208333 17.1166667,11.3208333 L17.1166667,9.15416667 C12.0766915,9.15416667 7.9625,13.2683582 7.9625,18.3083333 C7.9625,22.0067024 10.187396,25.2664337 13.5437325,26.7229571 L14.4062675,24.7353762 Z" id="Shape"></path>
                        <g transform="translate(28.708333, 27.166667)">
                            <path d="M8.17146765,6.24646765 L5.30063432,9.11730099 C4.64036897,9.77756634 3.5387977,9.77756634 2.87853235,9.11730099 C2.218267,8.45703564 2.218267,7.35546436 2.87853235,6.69519901 L5.74936568,3.82436568 C6.40963103,3.16410033 7.5112023,3.16410033 8.17146765,3.82436568 C8.831733,4.48463103 8.831733,5.5862023 8.17146765,6.24646765 Z M9.70353235,7.77853235 C11.2099337,6.27213103 11.2099337,3.7987023 9.70353235,2.29230099 C8.19713103,0.785899671 5.7237023,0.785899671 4.21730099,2.29230099 L1.34646765,5.16313432 C-0.159933662,6.66953564 -0.159933662,9.14296436 1.34646765,10.6493657 C2.85286897,12.155767 5.3262977,12.155767 6.83269901,10.6493657 L9.70353235,7.77853235 Z" id="Shape"></path>
                            <rect id="Rectangle-6" opacity="0.2" transform="translate(5.550967, 6.179019) rotate(-46.000000) translate(-5.550967, -6.179019) " x="0.0509673049" y="4.17901898" width="11" height="4" rx="2"></rect>
                            <rect id="Rectangle-6-Copy" opacity="0.2" transform="translate(13.879295, 14.828780) rotate(-137.000000) translate(-13.879295, -14.828780) " x="4.32126812" y="12.8287803" width="19.1160542" height="4" rx="2"></rect>
                            <path d="M18.0104161,21.2705214 L8.62019901,11.879801 C7.96324818,11.2228502 7.96324818,10.1364599 8.60031192,9.53124939 C9.27714985,8.85491484 10.3635401,8.85491484 10.9687506,9.49197858 L20.3589677,18.882699 C21.019233,19.5429644 21.019233,20.590369 20.3589677,21.2506343 C19.7020168,21.9075852 18.6156266,21.9075852 18.0104161,21.2705214 Z M21.8910323,17.3506343 L12.520199,7.97980099 C11.0864599,6.47008516 8.59785015,6.47008516 7.08813432,7.97980099 C5.57841849,9.41354006 5.57841849,11.9021498 7.08813432,13.4118657 L16.4589677,22.782699 C17.8927067,24.2924148 20.3813165,24.2924148 21.8910323,22.782699 C23.3974337,21.2762977 23.3974337,18.8570356 21.8910323,17.3506343 Z" id="Shape"></path>
                        </g>
                    </g>
                </g>
            </g>
        </g>
    </g>
</svg>