<svg width="52" height="52" viewBox="0 0 52 52" xmlns="http://www.w3.org/2000/svg"><title>Group</title><g fill="#FF2A76" fill-rule="evenodd"><path d="M30.538 31.85c-6.36 5.597-16.04 5.597-22.4 0-7.69-6.773-7.69-18.74 0-25.512C14.495.793 24.177.793 30.54 6.342c7.686 6.77 7.686 18.735-.004 25.508zM6.708 4.708c-8.672 7.64-8.672 21.132-.003 28.767 7.18 6.32 18.085 6.32 25.265 0 8.67-7.635 8.67-21.127 0-28.763C24.787-1.55 13.888-1.55 6.71 4.708z"/><path d="M14.406 24.735c-2.578-1.12-4.277-3.607-4.277-6.427 0-3.843 3.143-6.987 6.987-6.987V9.155c-5.04 0-9.155 4.114-9.155 9.154 0 3.7 2.225 6.958 5.582 8.415l.862-1.988z"/><g transform="translate(28.708 27.167)"><path d="M8.17 6.246L5.3 9.116c-.66.662-1.76.662-2.42 0-.662-.66-.662-1.76 0-2.42l2.87-2.872c.66-.66 1.76-.66 2.42 0 .662.66.662 1.762 0 2.422zM9.705 7.78c1.506-1.508 1.506-3.98 0-5.488-1.507-1.506-3.98-1.506-5.487 0l-2.87 2.87c-1.507 1.508-1.507 3.98 0 5.487 1.506 1.506 3.98 1.506 5.486 0l2.87-2.87z"/><rect opacity=".2" transform="rotate(-46 5.55 6.18)" x=".051" y="4.179" width="11" height="4" rx="2"/><rect opacity=".2" transform="rotate(-137 13.88 14.83)" x="4.321" y="12.829" width="19.116" height="4" rx="2"/><path d="M18.01 21.27l-9.39-9.39c-.657-.657-.657-1.744-.02-2.35.677-.675 1.764-.675 2.37-.038l9.39 9.39c.66.66.66 1.708 0 2.37-.658.656-1.744.656-2.35.02zm3.88-3.92l-9.37-9.37c-1.434-1.51-3.922-1.51-5.432 0-1.51 1.434-1.51 3.922 0 5.432l9.37 9.37c1.435 1.51 3.923 1.51 5.433 0 1.507-1.506 1.507-3.925 0-5.43z"/></g></g></svg>