<?xml version="1.0" standalone="no"?>
<!DOCTYPE svg PUBLIC "-//W3C//DTD SVG 20010904//EN"
 "http://www.w3.org/TR/2001/REC-SVG-20010904/DTD/svg10.dtd">
<svg version="1.0" xmlns="http://www.w3.org/2000/svg"
 width="1088.000000pt" height="1088.000000pt" viewBox="0 0 1088.000000 1088.000000"
 preserveAspectRatio="xMidYMid meet">
<metadata>
Created by potrace 1.11, written by Peter Selinger 2001-2013
</metadata>
<g transform="translate(0.000000,1088.000000) scale(0.100000,-0.100000)"
fill="#000000" stroke="none">
<path d="M5007 10874 c-1 -1 -56 -5 -122 -8 -66 -4 -158 -9 -205 -12 -47 -2
-119 -7 -160 -9 -41 -2 -75 -5 -75 -6 0 -1 -20 -3 -45 -4 -25 -1 -45 -4 -45
-5 0 -1 -22 -3 -50 -5 -27 -1 -50 -3 -50 -4 0 -1 -34 -4 -75 -6 -41 -3 -86 -7
-100 -11 -14 -3 -43 -7 -65 -9 -22 -2 -53 -5 -70 -8 -39 -7 -122 -19 -160 -22
-16 -2 -43 -5 -60 -8 -16 -3 -50 -8 -75 -11 -49 -7 -85 -14 -85 -16 0 -2 -28
-7 -75 -13 -19 -3 -87 -15 -150 -27 -63 -12 -128 -24 -145 -27 -44 -8 -60 -11
-60 -13 0 -3 -38 -11 -70 -15 -38 -5 -417 -101 -470 -120 -54 -19 -216 -68
-235 -71 -8 -2 -23 -7 -35 -13 -11 -5 -58 -23 -105 -39 -47 -17 -119 -44 -160
-62 -41 -17 -79 -33 -85 -34 -5 -2 -23 -9 -40 -16 -16 -7 -32 -14 -35 -15 -3
-1 -36 -16 -75 -34 -38 -18 -72 -32 -74 -31 -2 1 -7 -2 -10 -7 -3 -5 -25 -17
-48 -27 -24 -11 -43 -23 -43 -28 0 -4 -3 -7 -8 -6 -9 3 -75 -32 -83 -44 -3 -5
-10 -9 -15 -9 -8 1 -179 -107 -209 -131 -5 -5 -39 -31 -75 -59 -55 -43 -212
-196 -245 -240 -60 -79 -140 -221 -149 -267 -1 -9 -6 -24 -9 -32 -3 -8 -10
-35 -16 -60 -13 -56 -15 -7637 -2 -7672 5 -13 13 -43 19 -68 6 -25 19 -63 28
-85 10 -22 18 -42 19 -45 3 -17 66 -115 111 -171 63 -79 129 -147 209 -214 33
-27 62 -53 63 -57 2 -5 10 -8 17 -8 8 0 19 -8 24 -17 6 -10 11 -13 11 -8 0 6
3 6 8 -1 7 -11 146 -105 172 -117 8 -4 38 -20 65 -37 80 -47 310 -158 430
-207 61 -24 119 -48 130 -53 28 -12 285 -101 310 -107 11 -3 27 -7 35 -10 8
-4 20 -7 25 -8 6 0 17 -4 25 -7 8 -3 35 -11 60 -18 25 -7 56 -16 70 -20 14 -5
39 -12 55 -16 17 -4 35 -9 40 -10 6 -2 19 -5 30 -8 11 -2 20 -5 20 -6 0 -1 14
-4 30 -6 17 -3 37 -7 45 -11 8 -3 24 -8 35 -10 11 -2 58 -13 105 -24 47 -12
94 -22 105 -24 11 -2 31 -6 45 -9 25 -6 55 -12 100 -22 14 -2 41 -7 60 -9 19
-3 46 -7 60 -10 99 -20 188 -36 230 -41 14 -1 25 -3 25 -4 0 -1 18 -4 40 -5
22 -2 40 -4 40 -5 0 -2 20 -5 95 -14 30 -3 64 -8 75 -10 30 -5 104 -15 155
-21 25 -2 70 -7 100 -10 134 -15 153 -17 325 -30 39 -3 90 -8 115 -11 25 -3
56 -4 70 -4 31 2 32 2 110 -4 253 -21 1196 -22 1229 -2 6 4 11 1 11 -6 0 -8 3
-9 8 -3 4 6 32 10 62 10 30 0 64 3 76 6 11 4 28 3 37 -2 9 -6 17 -6 17 -2 0 4
19 8 43 9 44 1 192 12 262 19 58 6 132 14 195 19 30 3 73 8 95 11 22 3 63 8
90 11 28 3 61 7 75 10 14 2 45 7 70 9 25 3 56 8 70 10 14 3 52 8 85 11 33 4
63 8 66 10 4 2 24 6 45 9 22 3 46 8 53 11 8 3 33 7 55 10 23 3 48 6 56 8 8 1
31 6 50 10 19 4 49 9 65 11 17 2 30 4 30 5 0 2 29 8 65 14 14 3 36 7 50 10 14
3 41 9 60 13 45 9 39 8 85 21 40 11 83 21 120 27 11 2 20 4 20 5 0 1 7 3 15 5
8 2 24 6 35 9 11 3 56 14 100 26 44 11 91 25 105 30 14 6 36 13 50 16 30 6 40
9 60 17 8 3 67 22 130 43 63 20 120 41 126 46 7 5 16 8 20 6 5 -1 26 6 48 15
21 9 42 17 46 17 4 0 21 7 39 16 17 9 37 17 44 18 16 4 58 21 109 46 23 11 48
20 55 20 7 0 13 5 13 10 0 6 9 10 20 10 11 0 20 5 20 10 0 6 3 9 8 8 8 -3 183
81 192 91 3 3 25 17 50 30 69 37 261 165 299 200 19 17 37 31 41 31 11 0 184
174 204 205 11 17 25 34 33 38 7 4 13 14 13 22 0 7 4 15 9 17 11 4 90 149 94
173 1 11 7 27 12 35 5 8 10 21 11 30 1 8 7 42 13 75 15 84 15 7603 0 7660 -6
22 -16 58 -22 80 -16 61 -81 188 -129 252 -69 94 -247 266 -333 322 -22 14
-51 36 -65 49 -14 12 -30 22 -37 22 -7 0 -13 4 -13 9 0 5 -8 11 -17 14 -21 7
-102 54 -123 72 -15 12 -38 22 -54 23 -5 0 -12 5 -15 10 -3 5 -64 37 -136 71
-71 34 -138 66 -147 71 -10 6 -25 10 -33 10 -8 0 -15 5 -15 12 0 6 -3 9 -6 5
-4 -3 -18 0 -33 7 -14 8 -71 30 -126 50 -55 20 -107 40 -115 43 -8 4 -18 7
-22 8 -5 2 -9 3 -10 4 -2 2 -14 4 -27 7 -14 2 -30 9 -38 15 -7 6 -13 8 -13 4
0 -4 -7 -2 -15 5 -8 7 -15 10 -15 7 0 -3 -16 1 -35 9 -19 8 -35 11 -35 8 0 -4
-6 -2 -12 3 -10 8 -96 35 -118 38 -3 0 -32 9 -65 19 -93 27 -199 55 -235 61
-8 2 -40 10 -70 18 -30 8 -68 17 -85 20 -16 3 -37 8 -45 11 -8 3 -28 7 -45 10
-16 3 -39 7 -50 9 -11 2 -36 7 -55 11 -19 3 -46 9 -60 12 -14 3 -36 7 -50 9
-14 2 -38 6 -55 9 -16 3 -43 7 -60 10 -16 3 -55 10 -85 16 -30 6 -77 13 -105
17 -54 6 -80 10 -80 13 0 1 -13 3 -30 4 -38 4 -212 26 -245 32 -42 7 -112 14
-167 17 -29 1 -53 4 -53 7 0 3 -30 7 -68 9 -102 5 -147 8 -147 11 0 2 -45 5
-220 15 -66 3 -147 8 -180 11 -60 5 -1013 13 -1018 8z"/>
</g>
</svg>
