<?xml version="1.0" encoding="UTF-8"?>
<svg width="79px" height="58px" viewBox="0 0 79 58" version="1.1" xmlns="http://www.w3.org/2000/svg" xmlns:xlink="http://www.w3.org/1999/xlink">
    <!-- Generator: Sketch 44.1 (41455) - http://www.bohemiancoding.com/sketch -->
    <title>code</title>
    <desc>Created with Sketch.</desc>
    <defs></defs>
    <g id="Page-1" stroke="none" stroke-width="1" fill="none" fill-rule="evenodd">
        <g id="code" fill-rule="nonzero">
            <g id="Group" transform="translate(18.366667, 22.233333)" fill="#FFCE5B">
                <path d="M13.4366667,1.16 C12.8566667,0.58 11.9866667,0.58 11.4066667,1.16 L0.773333333,11.7933333 L11.02,22.04 C11.31,22.33 11.6966667,22.4266667 12.0833333,22.4266667 C12.47,22.4266667 12.8566667,22.33 13.1466667,22.04 C13.7266667,21.46 13.7266667,20.59 13.1466667,20.01 L4.83333333,11.7933333 L13.4366667,3.19 C14.0166667,2.61 14.0166667,1.74 13.4366667,1.16 Z" id="Shape"></path>
                <path d="M27.6466667,1.16 C27.0666667,1.74 27.0666667,2.61 27.6466667,3.19 L35.7666667,11.31 L27.1633333,19.9133333 C26.5833333,20.4933333 26.5833333,21.3633333 27.1633333,21.9433333 C27.4533333,22.2333333 27.84,22.33 28.2266667,22.33 C28.6133333,22.33 29,22.2333333 29.29,21.9433333 L39.9233333,11.31 L29.6766667,1.16 C29.0966667,0.58 28.2266667,0.58 27.6466667,1.16 Z" id="Shape"></path>
                <path d="M23.8766667,0.773333333 C23.1033333,0.483333333 22.33,0.966666667 22.04,1.64333333 L15.7566667,20.3966667 C15.4666667,21.17 15.95,21.9433333 16.6266667,22.2333333 C16.82,22.33 16.9166667,22.33 17.11,22.33 C17.69,22.33 18.27,21.9433333 18.4633333,21.3633333 L24.7466667,2.61 C25.0366667,1.83666667 24.65,1.06333333 23.8766667,0.773333333 Z" id="Shape"></path>
            </g>
            <path d="M74.8417618,0 L3.31158238,0 C1.51386623,0 0,1.51386623 0,3.31158238 L0,54.6884176 C0,56.4861338 1.51386623,58 3.31158238,58 L74.9363785,58 C76.7340946,58 78.2479608,56.4861338 78.2479608,54.6884176 L78.2479608,3.31158238 C78.1533442,1.51386623 76.7340946,0 74.8417618,0 Z M3.31158238,2.83849918 L74.9363785,2.83849918 C75.2202284,2.83849918 75.4094617,3.02773246 75.4094617,3.31158238 L75.4094617,9.27243067 L2.83849918,9.27243067 L2.83849918,3.31158238 C2.83849918,3.1223491 3.02773246,2.83849918 3.31158238,2.83849918 Z M74.8417618,55.2561175 L3.31158238,55.2561175 C3.02773246,55.2561175 2.83849918,55.0668842 2.83849918,54.7830343 L2.83849918,12.2055465 L75.4094617,12.2055465 L75.4094617,54.7830343 C75.314845,54.9722675 75.1256117,55.2561175 74.8417618,55.2561175 Z" id="Shape" fill="#0065C3"></path>
            <circle id="Oval" fill="#0065C3" cx="6.86333333" cy="6.18666667" r="1.35333333"></circle>
            <circle id="Oval" fill="#0065C3" cx="12.0833333" cy="6.18666667" r="1.35333333"></circle>
            <circle id="Oval" fill="#0065C3" cx="17.3033333" cy="6.18666667" r="1.35333333"></circle>
        </g>
    </g>
</svg>