<?xml version="1.0" encoding="UTF-8"?>
<svg width="66px" height="61px" viewBox="0 0 66 61" version="1.1" xmlns="http://www.w3.org/2000/svg" xmlns:xlink="http://www.w3.org/1999/xlink">
    <!-- Generator: Sketch 44.1 (41455) - http://www.bohemiancoding.com/sketch -->
    <title>team</title>
    <desc>Created with Sketch.</desc>
    <defs></defs>
    <g id="Page-1" stroke="none" stroke-width="1" fill="none" fill-rule="evenodd">
        <g id="team" fill-rule="nonzero">
            <path d="M33,46.1 C29.1,46.1 26,49.2 26,53.1 C26,57 29.1,60.1 33,60.1 C36.9,60.1 40,57 40,53.1 C40,49.2 36.9,46.1 33,46.1 Z M33,57.1 C30.8,57.1 29,55.3 29,53.1 C29,50.9 30.8,49.1 33,49.1 C35.2,49.1 37,50.9 37,53.1 C37,55.3 35.2,57.1 33,57.1 Z" id="Shape" fill="#FFCE5B"></path>
            <path d="M58.5,1 C54.6,1 51.5,4.1 51.5,8 C51.5,11.9 54.6,15 58.5,15 C62.4,15 65.5,11.9 65.5,8 C65.5,4.1 62.4,1 58.5,1 Z M58.5,12.1 C56.3,12.1 54.5,10.3 54.5,8.1 C54.5,5.9 56.3,4.1 58.5,4.1 C60.7,4.1 62.5,5.9 62.5,8.1 C62.5,10.3 60.7,12.1 58.5,12.1 Z" id="Shape" fill="#FFCE5B"></path>
            <path d="M14.5,8.1 C14.5,4.2 11.4,1.1 7.5,1.1 C3.6,1.1 0.5,4.2 0.5,8.1 C0.5,12 3.6,15.1 7.5,15.1 C11.4,15.1 14.5,11.9 14.5,8.1 Z M7.5,12.1 C5.3,12.1 3.5,10.3 3.5,8.1 C3.5,5.9 5.3,4.1 7.5,4.1 C9.7,4.1 11.5,5.9 11.5,8.1 C11.5,10.3 9.7,12.1 7.5,12.1 Z" id="Shape" fill="#FFCE5B"></path>
            <path d="M51.9,19.9 C51.2,19.5 50.3,19.8 49.9,20.5 L40.4,37.6 L38.5,31.7 C38.2,30.9 37.4,30.5 36.6,30.7 C35.8,31 35.4,31.8 35.6,32.6 L39,43.4 L49.4,40 C50.2,39.7 50.6,38.9 50.4,38.1 C50.1,37.3 49.3,36.9 48.5,37.1 L43,38.9 L52.4,21.9 C52.9,21.2 52.6,20.3 51.9,19.9 Z" id="Shape" fill="#0065C3"></path>
            <path d="M15.9,22.4 L21.7,24.6 C22.5,24.9 23.3,24.5 23.6,23.7 C23.9,22.9 23.5,22.1 22.7,21.8 L12.2,17.9 L8.4,28.1 C8.1,28.9 8.5,29.7 9.3,30 C9.5,30.1 9.6,30.1 9.8,30.1 C10.4,30.1 11,29.7 11.2,29.1 L13.2,23.7 L22.9,41.1 C23.2,41.6 23.7,41.9 24.2,41.9 C24.4,41.9 24.7,41.8 24.9,41.7 C25.6,41.3 25.9,40.4 25.5,39.7 L15.9,22.4 Z" id="Shape" fill="#0065C3"></path>
            <path d="M22.6,9.6 L40.6,9.6 L36.4,13.7 C35.8,14.3 35.8,15.2 36.4,15.8 C36.7,16.1 37.1,16.3 37.5,16.3 C37.9,16.3 38.3,16.2 38.5,15.9 L46.3,8.3 L38.7,0.5 C38.1,-0.1 37.2,-0.1 36.6,0.5 C36,1.1 36,2 36.6,2.6 L40.6,6.7 L22.6,6.7 C21.8,6.7 21.1,7.4 21.1,8.2 C21.1,9 21.8,9.6 22.6,9.6 Z" id="Shape" fill="#0065C3"></path>
        </g>
    </g>
</svg>